font.ufo
<glyph name="exclam" format="1">
  <advance width="185"/>
  <unicode hex="0021"/>
  <outline>
    <contour>
      <point x="50" y="622" type="line"/>
      <point x="63" y="196" type="line"/>
      <point x="122" y="196" type="line"/>
      <point x="135" y="622" type="line"/>
    </contour>
    <contour>
      <point x="51" y="0" type="line"/>
      <point x="133" y="0" type="line"/>
      <point x="133" y="112" type="line"/>
      <point x="51" y="112" type="line"/>
    </contour>
  </outline>
</glyph>
<glyph name="numbersign" format="1">
  <advance width="448"/>
  <unicode hex="0023"/>
  <outline>
    <contour>
      <point x="154" y="622" type="line"/>
      <point x="51" y="0" type="line"/>
      <point x="114" y="0" type="line"/>
      <point x="217" y="622" type="line"/>
    </contour>
    <contour>
      <point x="418" y="456" type="line"/>
      <point x="60" y="456" type="line"/>
      <point x="60" y="398" type="line"/>
      <point x="418" y="398" type="line"/>
    </contour>
    <contour>
      <point x="294" y="0" type="line"/>
      <point x="397" y="622" type="line"/>
      <point x="334" y="622" type="line"/>
      <point x="231" y="0" type="line"/>
    </contour>
    <contour>
      <point x="30" y="166" type="line"/>
      <point x="388" y="166" type="line"/>
      <point x="388" y="224" type="line"/>
      <point x="30" y="224" type="line"/>
    </contour>
  </outline>
</glyph>
<glyph name="percent" format="1">
  <advance width="573"/>
  <unicode hex="0025"/>
  <outline>
    <contour>
      <point x="221" y="551" type="line"/>
      <point x="221" y="600"/>
      <point x="200" y="622"/>
      <point x="154" y="622" type="curve" smooth="yes"/>
      <point x="97" y="622" type="line" smooth="yes"/>
      <point x="51" y="622"/>
      <point x="30" y="600"/>
      <point x="30" y="551" type="curve" smooth="yes"/>
      <point x="30" y="367" type="line" smooth="yes"/>
      <point x="30" y="318"/>
      <point x="51" y="296"/>
      <point x="97" y="296" type="curve"/>
      <point x="154" y="296" type="line" smooth="yes"/>
      <point x="200" y="296"/>
      <point x="221" y="318"/>
      <point x="221" y="367" type="curve" smooth="yes"/>
    </contour>
    <contour>
      <point x="543" y="255" type="line"/>
      <point x="543" y="304"/>
      <point x="522" y="326"/>
      <point x="476" y="326" type="curve"/>
      <point x="419" y="326" type="line"/>
      <point x="373" y="326"/>
      <point x="352" y="304"/>
      <point x="352" y="255" type="curve" smooth="yes"/>
      <point x="352" y="71" type="line" smooth="yes"/>
      <point x="352" y="22"/>
      <point x="373" y="0"/>
      <point x="419" y="0" type="curve" smooth="yes"/>
      <point x="476" y="0" type="line" smooth="yes"/>
      <point x="522" y="0"/>
      <point x="543" y="22"/>
      <point x="543" y="71" type="curve" smooth="yes"/>
    </contour>
    <contour>
      <point x="165" y="376" type="line"/>
      <point x="165" y="351"/>
      <point x="162" y="346"/>
      <point x="137" y="346" type="curve" smooth="yes"/>
      <point x="114" y="346" type="line" smooth="yes"/>
      <point x="89" y="346"/>
      <point x="86" y="351"/>
      <point x="86" y="376" type="curve" smooth="yes"/>
      <point x="86" y="542" type="line" smooth="yes"/>
      <point x="86" y="567"/>
      <point x="89" y="572"/>
      <point x="114" y="572" type="curve"/>
      <point x="137" y="572" type="line" smooth="yes"/>
      <point x="162" y="572"/>
      <point x="165" y="567"/>
      <point x="165" y="542" type="curve" smooth="yes"/>
    </contour>
    <contour>
      <point x="487" y="80" type="line"/>
      <point x="487" y="55"/>
      <point x="484" y="50"/>
      <point x="459" y="50" type="curve"/>
      <point x="436" y="50" type="line"/>
      <point x="411" y="50"/>
      <point x="408" y="55"/>
      <point x="408" y="80" type="curve" smooth="yes"/>
      <point x="408" y="246" type="line" smooth="yes"/>
      <point x="408" y="271"/>
      <point x="411" y="276"/>
      <point x="436" y="276" type="curve" smooth="yes"/>
      <point x="459" y="276" type="line" smooth="yes"/>
      <point x="484" y="276"/>
      <point x="487" y="271"/>
      <point x="487" y="246" type="curve" smooth="yes"/>
    </contour>
    <contour>
      <point x="392" y="622" type="line"/>
      <point x="120" y="0" type="line"/>
      <point x="180" y="0" type="line"/>
      <point x="453" y="622" type="line"/>
    </contour>
  </outline>
</glyph>
<glyph name="quotesingle" format="1">
  <advance width="139"/>
  <unicode hex="0027"/>
  <outline>
    <contour>
      <point x="35" y="622" type="line"/>
      <point x="35" y="410" type="line"/>
      <point x="104" y="410" type="line"/>
      <point x="104" y="622" type="line"/>
    </contour>
  </outline>
</glyph>
<glyph name="parenleft" format="1">
  <advance width="245"/>
  <unicode hex="0028"/>
  <outline>
    <contour>
      <point x="49" y="342" type="curve"/>
      <point x="49" y="271" type="line"/>
      <point x="49" y="-14"/>
      <point x="112" y="-178"/>
      <point x="255" y="-178" type="curve" smooth="yes"/>
      <point x="271" y="-178" type="line"/>
      <point x="271" y="-121" type="line"/>
      <point x="257" y="-120" type="line" smooth="yes"/>
      <point x="146" y="-112"/>
      <point x="116" y="52"/>
      <point x="116" y="270" type="curve" smooth="yes"/>
      <point x="116" y="343" type="line" smooth="yes"/>
      <point x="116" y="561"/>
      <point x="146" y="725"/>
      <point x="257" y="733" type="curve" smooth="yes"/>
      <point x="271" y="734" type="line"/>
      <point x="271" y="791" type="line"/>
      <point x="255" y="791" type="line" smooth="yes"/>
      <point x="112" y="791"/>
      <point x="49" y="627"/>
    </contour>
  </outline>
</glyph>
<glyph name="asterisk" format="1">
  <advance width="302"/>
  <unicode hex="002A"/>
  <outline>
    <contour>
      <point x="166" y="489" type="line"/>
      <point x="166" y="489"/>
      <point x="182" y="521"/>
      <point x="182" y="581" type="curve" smooth="yes"/>
      <point x="182" y="622" type="line"/>
      <point x="120" y="622" type="line"/>
      <point x="120" y="581" type="line" smooth="yes"/>
      <point x="120" y="521"/>
      <point x="136" y="489"/>
      <point x="136" y="489" type="curve"/>
    </contour>
    <contour>
      <point x="156" y="503" type="line"/>
      <point x="156" y="503"/>
      <point x="130" y="528"/>
      <point x="73" y="547" type="curve" smooth="yes"/>
      <point x="34" y="560" type="line"/>
      <point x="15" y="501" type="line"/>
      <point x="54" y="488" type="line" smooth="yes"/>
      <point x="111" y="469"/>
      <point x="146" y="475"/>
      <point x="146" y="475" type="curve"/>
    </contour>
    <contour>
      <point x="139" y="498" type="line"/>
      <point x="139" y="498"/>
      <point x="107" y="481"/>
      <point x="72" y="433" type="curve" smooth="yes"/>
      <point x="47" y="400" type="line"/>
      <point x="98" y="363" type="line"/>
      <point x="122" y="396" type="line" smooth="yes"/>
      <point x="158" y="445"/>
      <point x="163" y="480"/>
      <point x="163" y="480" type="curve"/>
    </contour>
    <contour>
      <point x="139" y="480" type="line"/>
      <point x="139" y="480"/>
      <point x="145" y="445"/>
      <point x="180" y="397" type="curve" smooth="yes"/>
      <point x="204" y="363" type="line"/>
      <point x="254" y="400" type="line"/>
      <point x="230" y="433" type="line" smooth="yes"/>
      <point x="195" y="482"/>
      <point x="163" y="498"/>
      <point x="163" y="498" type="curve"/>
    </contour>
    <contour>
      <point x="156" y="475" type="line"/>
      <point x="156" y="475"/>
      <point x="191" y="470"/>
      <point x="247" y="488" type="curve" smooth="yes"/>
      <point x="287" y="500" type="line"/>
      <point x="267" y="559" type="line"/>
      <point x="229" y="547" type="line" smooth="yes"/>
      <point x="171" y="529"/>
      <point x="146" y="503"/>
      <point x="146" y="503" type="curve"/>
    </contour>
  </outline>
</glyph>
<glyph name="period" format="1">
  <advance width="142"/>
  <unicode hex="002E"/>
  <outline>
    <contour>
      <point x="30" y="0" type="line"/>
      <point x="112" y="0" type="line"/>
      <point x="112" y="112" type="line"/>
      <point x="30" y="112" type="line"/>
    </contour>
  </outline>
</glyph>
<glyph name="one" format="1">
  <advance width="211"/>
  <unicode hex="0031"/>
  <outline>
    <contour>
      <point x="115" y="622" type="line"/>
      <point x="20" y="622" type="line"/>
      <point x="20" y="563" type="line"/>
      <point x="115" y="563" type="line"/>
    </contour>
    <contour>
      <point x="88" y="622" type="line"/>
      <point x="88" y="0" type="line"/>
      <point x="156" y="0" type="line"/>
      <point x="156" y="622" type="line"/>
    </contour>
  </outline>
</glyph>
<glyph name="six" format="1">
  <advance width="352"/>
  <unicode hex="0036"/>
  <outline>
    <contour>
      <point x="238" y="90" type="line"/>
      <point x="238" y="64"/>
      <point x="233" y="59"/>
      <point x="207" y="59" type="curve" smooth="yes"/>
      <point x="174" y="59" type="line"/>
      <point x="174" y="0" type="line"/>
      <point x="228" y="0" type="line" smooth="yes"/>
      <point x="281" y="0"/>
      <point x="307" y="26"/>
      <point x="307" y="79" type="curve" smooth="yes"/>
      <point x="307" y="274" type="line" smooth="yes"/>
      <point x="307" y="327"/>
      <point x="281" y="353"/>
      <point x="228" y="353" type="curve" smooth="yes"/>
      <point x="94" y="353" type="line"/>
      <point x="94" y="294" type="line"/>
      <point x="207" y="294" type="line" smooth="yes"/>
      <point x="233" y="294"/>
      <point x="238" y="289"/>
      <point x="238" y="263" type="curve" smooth="yes"/>
    </contour>
    <contour>
      <point x="119" y="532" type="line"/>
      <point x="119" y="558"/>
      <point x="124" y="563"/>
      <point x="150" y="563" type="curve" smooth="yes"/>
      <point x="182" y="563" type="line"/>
      <point x="182" y="622" type="line"/>
      <point x="129" y="622" type="line" smooth="yes"/>
      <point x="76" y="622"/>
      <point x="50" y="596"/>
      <point x="50" y="543" type="curve" smooth="yes"/>
      <point x="50" y="79" type="line" smooth="yes"/>
      <point x="50" y="26"/>
      <point x="76" y="0"/>
      <point x="129" y="0" type="curve" smooth="yes"/>
      <point x="183" y="0" type="line"/>
      <point x="183" y="59" type="line"/>
      <point x="150" y="59" type="line" smooth="yes"/>
      <point x="124" y="59"/>
      <point x="119" y="64"/>
      <point x="119" y="90" type="curve" smooth="yes"/>
    </contour>
    <contour>
      <point x="238" y="426" type="line"/>
      <point x="306" y="426" type="line"/>
      <point x="306" y="543" type="line" smooth="yes"/>
      <point x="306" y="596"/>
      <point x="280" y="622"/>
      <point x="227" y="622" type="curve" smooth="yes"/>
      <point x="171" y="622" type="line"/>
      <point x="171" y="563" type="line"/>
      <point x="207" y="563" type="line" smooth="yes"/>
      <point x="233" y="563"/>
      <point x="238" y="558"/>
      <point x="238" y="532" type="curve" smooth="yes"/>
    </contour>
  </outline>
</glyph>
<glyph name="equal" format="1">
  <advance width="390"/>
  <unicode hex="003D"/>
  <outline>
    <contour>
      <point x="30" y="366" type="line"/>
      <point x="360" y="366" type="line"/>
      <point x="360" y="428" type="line"/>
      <point x="30" y="428" type="line"/>
    </contour>
    <contour>
      <point x="30" y="194" type="line"/>
      <point x="360" y="194" type="line"/>
      <point x="360" y="256" type="line"/>
      <point x="30" y="256" type="line"/>
    </contour>
  </outline>
</glyph>
<glyph name="question" format="1">
  <advance width="308"/>
  <unicode hex="003F"/>
  <outline>
    <contour>
      <point x="194" y="354" type="line"/>
      <point x="194" y="330"/>
      <point x="191" y="322"/>
      <point x="166" y="322" type="curve" smooth="yes"/>
      <point x="135" y="322" type="line"/>
      <point x="135" y="263" type="line"/>
      <point x="184" y="263" type="line" smooth="yes"/>
      <point x="240" y="263"/>
      <point x="263" y="294"/>
      <point x="263" y="341" type="curve" smooth="yes"/>
      <point x="263" y="545" type="line" smooth="yes"/>
      <point x="263" y="592"/>
      <point x="240" y="622"/>
      <point x="184" y="622" type="curve" smooth="yes"/>
      <point x="126" y="622" type="line"/>
      <point x="126" y="564" type="line"/>
      <point x="166" y="564" type="line" smooth="yes"/>
      <point x="191" y="564"/>
      <point x="194" y="555"/>
      <point x="194" y="531" type="curve" smooth="yes"/>
    </contour>
    <contour>
      <point x="100" y="322" type="line"/>
      <point x="106" y="196" type="line"/>
      <point x="163" y="196" type="line"/>
      <point x="169" y="322" type="line"/>
    </contour>
    <contour>
      <point x="93" y="0" type="line"/>
      <point x="175" y="0" type="line"/>
      <point x="175" y="112" type="line"/>
      <point x="93" y="112" type="line"/>
    </contour>
    <contour>
      <point x="89" y="531" type="line"/>
      <point x="89" y="555"/>
      <point x="92" y="564"/>
      <point x="118" y="564" type="curve" smooth="yes"/>
      <point x="157" y="564" type="line"/>
      <point x="157" y="622" type="line"/>
      <point x="99" y="622" type="line" smooth="yes"/>
      <point x="43" y="622"/>
      <point x="20" y="592"/>
      <point x="20" y="545" type="curve" smooth="yes"/>
      <point x="20" y="459" type="line"/>
      <point x="89" y="459" type="line"/>
    </contour>
  </outline>
</glyph>
<glyph name="E" format="1">
  <advance width="315"/>
  <unicode hex="0045"/>
  <outline>
    <contour>
      <point x="55" y="622" type="line"/>
      <point x="55" y="0" type="line"/>
      <point x="124" y="0" type="line"/>
      <point x="124" y="622" type="line"/>
    </contour>
    <contour>
      <point x="258" y="353" type="line"/>
      <point x="99" y="353" type="line"/>
      <point x="99" y="294" type="line"/>
      <point x="258" y="294" type="line"/>
    </contour>
    <contour>
      <point x="288" y="622" type="line"/>
      <point x="99" y="622" type="line"/>
      <point x="99" y="563" type="line"/>
      <point x="288" y="563" type="line"/>
    </contour>
    <contour>
      <point x="295" y="59" type="line"/>
      <point x="99" y="59" type="line"/>
      <point x="99" y="0" type="line"/>
      <point x="295" y="0" type="line"/>
    </contour>
  </outline>
</glyph>
<glyph name="P" format="1">
  <advance width="345"/>
  <unicode hex="0050"/>
  <outline>
    <contour>
      <point x="247" y="340" type="line"/>
      <point x="247" y="314"/>
      <point x="242" y="309"/>
      <point x="216" y="309" type="curve" smooth="yes"/>
      <point x="96" y="309" type="line"/>
      <point x="96" y="250" type="line"/>
      <point x="236" y="250" type="line" smooth="yes"/>
      <point x="289" y="250"/>
      <point x="315" y="276"/>
      <point x="315" y="329" type="curve" smooth="yes"/>
      <point x="315" y="543" type="line" smooth="yes"/>
      <point x="315" y="596"/>
      <point x="289" y="622"/>
      <point x="236" y="622" type="curve" smooth="yes"/>
      <point x="55" y="622" type="line"/>
      <point x="55" y="563" type="line"/>
      <point x="216" y="563" type="line" smooth="yes"/>
      <point x="242" y="563"/>
      <point x="247" y="558"/>
      <point x="247" y="532" type="curve" smooth="yes"/>
    </contour>
    <contour>
      <point x="55" y="622" type="line"/>
      <point x="55" y="0" type="line"/>
      <point x="123" y="0" type="line"/>
      <point x="123" y="622" type="line"/>
    </contour>
  </outline>
</glyph>
<glyph name="R" format="1">
  <advance width="364"/>
  <unicode hex="0052"/>
  <outline>
    <contour>
      <point x="247" y="350" type="line"/>
      <point x="247" y="324"/>
      <point x="242" y="319"/>
      <point x="216" y="319" type="curve" smooth="yes"/>
      <point x="96" y="319" type="line"/>
      <point x="96" y="260" type="line"/>
      <point x="236" y="260" type="line" smooth="yes"/>
      <point x="289" y="260"/>
      <point x="315" y="286"/>
      <point x="315" y="339" type="curve" smooth="yes"/>
      <point x="315" y="543" type="line" smooth="yes"/>
      <point x="315" y="596"/>
      <point x="289" y="622"/>
      <point x="236" y="622" type="curve" smooth="yes"/>
      <point x="55" y="622" type="line"/>
      <point x="55" y="563" type="line"/>
      <point x="216" y="563" type="line" smooth="yes"/>
      <point x="242" y="563"/>
      <point x="247" y="558"/>
      <point x="247" y="532" type="curve" smooth="yes"/>
    </contour>
    <contour>
      <point x="55" y="622" type="line"/>
      <point x="55" y="0" type="line"/>
      <point x="123" y="0" type="line"/>
      <point x="123" y="622" type="line"/>
    </contour>
    <contour>
      <point x="173" y="286" type="line"/>
      <point x="273" y="0" type="line"/>
      <point x="347" y="0" type="line"/>
      <point x="244" y="286" type="line"/>
    </contour>
  </outline>
</glyph>
<glyph name="T" format="1">
  <advance width="278"/>
  <unicode hex="0054"/>
  <outline>
    <contour>
      <point x="105" y="622" type="line"/>
      <point x="105" y="0" type="line"/>
      <point x="173" y="0" type="line"/>
      <point x="173" y="622" type="line"/>
    </contour>
    <contour>
      <point x="273" y="622" type="line"/>
      <point x="5" y="622" type="line"/>
      <point x="5" y="563" type="line"/>
      <point x="273" y="563" type="line"/>
    </contour>
  </outline>
</glyph>
<glyph name="V" format="1">
  <advance width="319"/>
  <unicode hex="0056"/>
  <outline>
    <contour>
      <point x="245" y="622" type="line"/>
      <point x="159" y="48" type="line"/>
      <point x="74" y="622" type="line"/>
      <point x="5" y="622" type="line"/>
      <point x="105" y="0" type="line"/>
      <point x="214" y="0" type="line"/>
      <point x="314" y="622" type="line"/>
    </contour>
  </outline>
</glyph>
<glyph name="X" format="1">
  <advance width="334"/>
  <unicode hex="0058"/>
  <outline>
    <contour>
      <point x="203" y="318" type="line"/>
      <point x="319" y="622" type="line"/>
      <point x="245" y="622" type="line"/>
      <point x="167" y="380" type="line"/>
      <point x="89" y="622" type="line"/>
      <point x="15" y="622" type="line"/>
      <point x="131" y="318" type="line"/>
      <point x="5" y="0" type="line"/>
      <point x="79" y="0" type="line"/>
      <point x="167" y="253" type="line"/>
      <point x="255" y="0" type="line"/>
      <point x="329" y="0" type="line"/>
    </contour>
  </outline>
</glyph>
<glyph name="Z" format="1">
  <advance width="273"/>
  <unicode hex="005A"/>
  <outline>
    <contour>
      <point x="268" y="623" type="line"/>
      <point x="15" y="623" type="line"/>
      <point x="15" y="564" type="line"/>
      <point x="268" y="564" type="line"/>
    </contour>
    <contour>
      <point x="200" y="564" type="line"/>
      <point x="5" y="59" type="line"/>
      <point x="73" y="59" type="line"/>
      <point x="268" y="564" type="line"/>
    </contour>
    <contour>
      <point x="263" y="59" type="line"/>
      <point x="5" y="59" type="line"/>
      <point x="5" y="0" type="line"/>
      <point x="263" y="0" type="line"/>
    </contour>
  </outline>
</glyph>
<glyph name="backslash" format="1">
  <advance width="385"/>
  <unicode hex="005C"/>
  <outline>
    <contour>
      <point x="44" y="699" type="line"/>
      <point x="308" y="-136" type="line"/>
      <point x="377" y="-136" type="line"/>
      <point x="113" y="699" type="line"/>
    </contour>
  </outline>
</glyph>
<glyph name="underscore" format="1">
  <advance width="474"/>
  <unicode hex="005F"/>
  <outline>
    <contour>
      <point x="0" y="-103" type="line"/>
      <point x="474" y="-103" type="line"/>
      <point x="474" y="-44" type="line"/>
      <point x="0" y="-44" type="line"/>
    </contour>
  </outline>
</glyph>
<glyph name="b" format="1">
  <advance width="328"/>
  <unicode hex="0062"/>
  <outline>
    <contour>
      <point x="219" y="262" type="line"/>
      <point x="219" y="90" type="line" smooth="yes"/>
      <point x="219" y="64"/>
      <point x="214" y="59"/>
      <point x="188" y="59" type="curve" smooth="yes"/>
      <point x="148" y="59" type="line" smooth="yes"/>
      <point x="124" y="59"/>
      <point x="114" y="68"/>
      <point x="114" y="95" type="curve" smooth="yes"/>
      <point x="114" y="118" type="line"/>
      <point x="110" y="117" type="line"/>
      <point x="110" y="61" type="line" smooth="yes"/>
      <point x="110" y="16"/>
      <point x="134" y="0"/>
      <point x="169" y="0" type="curve" smooth="yes"/>
      <point x="209" y="0" type="line" smooth="yes"/>
      <point x="262" y="0"/>
      <point x="288" y="26"/>
      <point x="288" y="79" type="curve" smooth="yes"/>
      <point x="288" y="262" type="line"/>
    </contour>
    <contour>
      <point x="288" y="225" type="line"/>
      <point x="288" y="407" type="line" smooth="yes"/>
      <point x="288" y="460"/>
      <point x="262" y="486"/>
      <point x="209" y="486" type="curve" smooth="yes"/>
      <point x="169" y="486" type="line" smooth="yes"/>
      <point x="134" y="486"/>
      <point x="110" y="470"/>
      <point x="110" y="425" type="curve" smooth="yes"/>
      <point x="110" y="357" type="line"/>
      <point x="114" y="357" type="line"/>
      <point x="114" y="391" type="line" smooth="yes"/>
      <point x="114" y="418"/>
      <point x="124" y="427"/>
      <point x="148" y="427" type="curve" smooth="yes"/>
      <point x="188" y="427" type="line" smooth="yes"/>
      <point x="214" y="427"/>
      <point x="219" y="422"/>
      <point x="219" y="396" type="curve" smooth="yes"/>
      <point x="219" y="225" type="line"/>
    </contour>
    <contour>
      <point x="45" y="669" type="line"/>
      <point x="45" y="0" type="line"/>
      <point x="114" y="0" type="line"/>
      <point x="114" y="53" type="line"/>
      <point x="114" y="60" type="line"/>
      <point x="114" y="669" type="line"/>
    </contour>
  </outline>
</glyph>
<glyph name="e" format="1">
  <advance width="330"/>
  <unicode hex="0065"/>
  <outline>
    <contour>
      <point x="114" y="395" type="line"/>
      <point x="114" y="421"/>
      <point x="119" y="426"/>
      <point x="145" y="426" type="curve" smooth="yes"/>
      <point x="176" y="426" type="line"/>
      <point x="176" y="485" type="line"/>
      <point x="124" y="485" type="line" smooth="yes"/>
      <point x="71" y="485"/>
      <point x="45" y="459"/>
      <point x="45" y="406" type="curve" smooth="yes"/>
      <point x="45" y="79" type="line" smooth="yes"/>
      <point x="45" y="26"/>
      <point x="71" y="0"/>
      <point x="124" y="0" type="curve"/>
      <point x="169" y="0" type="line"/>
      <point x="169" y="59" type="line"/>
      <point x="145" y="59" type="line" smooth="yes"/>
      <point x="119" y="59"/>
      <point x="114" y="64"/>
      <point x="114" y="90" type="curve" smooth="yes"/>
    </contour>
    <contour>
      <point x="226" y="229" type="line"/>
      <point x="295" y="229" type="line"/>
      <point x="295" y="406" type="line" smooth="yes"/>
      <point x="295" y="459"/>
      <point x="269" y="485"/>
      <point x="216" y="485" type="curve" smooth="yes"/>
      <point x="161" y="485" type="line"/>
      <point x="161" y="426" type="line"/>
      <point x="195" y="426" type="line" smooth="yes"/>
      <point x="221" y="426"/>
      <point x="226" y="421"/>
      <point x="226" y="395" type="curve" smooth="yes"/>
    </contour>
    <contour>
      <point x="223" y="90" type="line"/>
      <point x="223" y="64"/>
      <point x="218" y="59"/>
      <point x="192" y="59" type="curve" smooth="yes"/>
      <point x="161" y="59" type="line"/>
      <point x="161" y="0" type="line"/>
      <point x="213" y="0" type="line" smooth="yes"/>
      <point x="266" y="0"/>
      <point x="292" y="26"/>
      <point x="292" y="79" type="curve" smooth="yes"/>
      <point x="292" y="134" type="line"/>
      <point x="223" y="134" type="line"/>
    </contour>
    <contour>
      <point x="295" y="278" type="line"/>
      <point x="75" y="278" type="line"/>
      <point x="75" y="219" type="line"/>
      <point x="295" y="219" type="line"/>
    </contour>
  </outline>
</glyph>
<glyph name="g" format="1">
  <advance width="328"/>
  <unicode hex="0067"/>
  <outline>
    <contour>
      <point x="40" y="262" type="line"/>
      <point x="40" y="79" type="line" smooth="yes"/>
      <point x="40" y="26"/>
      <point x="66" y="0"/>
      <point x="119" y="0" type="curve" smooth="yes"/>
      <point x="159" y="0" type="line" smooth="yes"/>
      <point x="194" y="0"/>
      <point x="218" y="16"/>
      <point x="218" y="61" type="curve" smooth="yes"/>
      <point x="218" y="117" type="line"/>
      <point x="214" y="118" type="line"/>
      <point x="214" y="95" type="line" smooth="yes"/>
      <point x="214" y="68"/>
      <point x="204" y="59"/>
      <point x="180" y="59" type="curve" smooth="yes"/>
      <point x="140" y="59" type="line" smooth="yes"/>
      <point x="114" y="59"/>
      <point x="109" y="64"/>
      <point x="109" y="90" type="curve" smooth="yes"/>
      <point x="109" y="262" type="line"/>
    </contour>
    <contour>
      <point x="109" y="224" type="line"/>
      <point x="109" y="395" type="line" smooth="yes"/>
      <point x="109" y="421"/>
      <point x="114" y="426"/>
      <point x="140" y="426" type="curve" smooth="yes"/>
      <point x="180" y="426" type="line" smooth="yes"/>
      <point x="204" y="426"/>
      <point x="214" y="417"/>
      <point x="214" y="390" type="curve" smooth="yes"/>
      <point x="214" y="356" type="line"/>
      <point x="218" y="356" type="line"/>
      <point x="218" y="424" type="line" smooth="yes"/>
      <point x="218" y="469"/>
      <point x="194" y="485"/>
      <point x="159" y="485" type="curve" smooth="yes"/>
      <point x="119" y="485" type="line" smooth="yes"/>
      <point x="66" y="485"/>
      <point x="40" y="459"/>
      <point x="40" y="406" type="curve" smooth="yes"/>
      <point x="40" y="224" type="line"/>
    </contour>
    <contour>
      <point x="214" y="-51" type="line"/>
      <point x="214" y="-77"/>
      <point x="209" y="-82"/>
      <point x="183" y="-82" type="curve" smooth="yes"/>
      <point x="55" y="-82" type="line"/>
      <point x="55" y="-141" type="line"/>
      <point x="204" y="-141" type="line" smooth="yes"/>
      <point x="257" y="-141"/>
      <point x="283" y="-115"/>
      <point x="283" y="-62" type="curve" smooth="yes"/>
      <point x="283" y="10" type="line"/>
      <point x="214" y="10" type="line"/>
    </contour>
    <contour>
      <point x="283" y="-2" type="line"/>
      <point x="283" y="485" type="line"/>
      <point x="214" y="485" type="line"/>
      <point x="214" y="435" type="line"/>
      <point x="214" y="432" type="line"/>
      <point x="214" y="-2" type="line"/>
    </contour>
  </outline>
</glyph>
<glyph name="h" format="1">
  <advance width="333"/>
  <unicode hex="0068"/>
  <outline>
    <contour>
      <point x="288" y="0" type="line"/>
      <point x="288" y="406" type="line" smooth="yes"/>
      <point x="288" y="459"/>
      <point x="262" y="485"/>
      <point x="209" y="485" type="curve" smooth="yes"/>
      <point x="169" y="485" type="line" smooth="yes"/>
      <point x="134" y="485"/>
      <point x="110" y="469"/>
      <point x="110" y="424" type="curve" smooth="yes"/>
      <point x="110" y="359" type="line"/>
      <point x="114" y="359" type="line"/>
      <point x="114" y="390" type="line" smooth="yes"/>
      <point x="114" y="417"/>
      <point x="124" y="426"/>
      <point x="148" y="426" type="curve" smooth="yes"/>
      <point x="188" y="426" type="line" smooth="yes"/>
      <point x="214" y="426"/>
      <point x="219" y="421"/>
      <point x="219" y="395" type="curve" smooth="yes"/>
      <point x="219" y="0" type="line"/>
    </contour>
    <contour>
      <point x="114" y="0" type="line"/>
      <point x="114" y="669" type="line"/>
      <point x="45" y="669" type="line"/>
      <point x="45" y="0" type="line"/>
    </contour>
  </outline>
</glyph>
<glyph name="m" format="1">
  <advance width="502"/>
  <unicode hex="006D"/>
  <outline>
    <contour>
      <point x="288" y="0" type="line"/>
      <point x="288" y="406" type="line" smooth="yes"/>
      <point x="288" y="459"/>
      <point x="262" y="485"/>
      <point x="209" y="485" type="curve" smooth="yes"/>
      <point x="169" y="485" type="line" smooth="yes"/>
      <point x="134" y="485"/>
      <point x="110" y="469"/>
      <point x="110" y="424" type="curve" smooth="yes"/>
      <point x="110" y="356" type="line"/>
      <point x="114" y="356" type="line"/>
      <point x="114" y="390" type="line" smooth="yes"/>
      <point x="114" y="417"/>
      <point x="124" y="426"/>
      <point x="148" y="426" type="curve" smooth="yes"/>
      <point x="188" y="426" type="line" smooth="yes"/>
      <point x="214" y="426"/>
      <point x="219" y="421"/>
      <point x="219" y="395" type="curve" smooth="yes"/>
      <point x="219" y="0" type="line"/>
    </contour>
    <contour>
      <point x="114" y="0" type="line"/>
      <point x="114" y="426" type="line"/>
      <point x="114" y="433" type="line"/>
      <point x="114" y="485" type="line"/>
      <point x="45" y="485" type="line"/>
      <point x="45" y="0" type="line"/>
    </contour>
    <contour>
      <point x="462" y="0" type="line"/>
      <point x="462" y="406" type="line" smooth="yes"/>
      <point x="462" y="459"/>
      <point x="436" y="485"/>
      <point x="383" y="485" type="curve" smooth="yes"/>
      <point x="343" y="485" type="line" smooth="yes"/>
      <point x="305" y="485"/>
      <point x="279" y="468"/>
      <point x="279" y="423" type="curve" smooth="yes"/>
      <point x="279" y="356" type="line"/>
      <point x="288" y="356" type="line"/>
      <point x="288" y="390" type="line" smooth="yes"/>
      <point x="288" y="417"/>
      <point x="298" y="426"/>
      <point x="322" y="426" type="curve" smooth="yes"/>
      <point x="362" y="426" type="line" smooth="yes"/>
      <point x="388" y="426"/>
      <point x="393" y="421"/>
      <point x="393" y="395" type="curve" smooth="yes"/>
      <point x="393" y="0" type="line"/>
    </contour>
  </outline>
</glyph>
<glyph name="p" format="1">
  <advance width="328"/>
  <unicode hex="0070"/>
  <outline>
    <contour>
      <point x="288" y="224" type="line"/>
      <point x="288" y="406" type="line" smooth="yes"/>
      <point x="288" y="459"/>
      <point x="262" y="485"/>
      <point x="209" y="485" type="curve" smooth="yes"/>
      <point x="169" y="485" type="line" smooth="yes"/>
      <point x="134" y="485"/>
      <point x="110" y="469"/>
      <point x="110" y="424" type="curve" smooth="yes"/>
      <point x="110" y="356" type="line"/>
      <point x="114" y="356" type="line"/>
      <point x="114" y="390" type="line" smooth="yes"/>
      <point x="114" y="417"/>
      <point x="124" y="426"/>
      <point x="148" y="426" type="curve" smooth="yes"/>
      <point x="188" y="426" type="line" smooth="yes"/>
      <point x="214" y="426"/>
      <point x="219" y="421"/>
      <point x="219" y="395" type="curve" smooth="yes"/>
      <point x="219" y="224" type="line"/>
    </contour>
    <contour>
      <point x="114" y="-141" type="line"/>
      <point x="114" y="424" type="line"/>
      <point x="114" y="437" type="line"/>
      <point x="114" y="485" type="line"/>
      <point x="45" y="485" type="line"/>
      <point x="45" y="-141" type="line"/>
    </contour>
    <contour>
      <point x="219" y="262" type="line"/>
      <point x="219" y="90" type="line" smooth="yes"/>
      <point x="219" y="64"/>
      <point x="214" y="59"/>
      <point x="188" y="59" type="curve" smooth="yes"/>
      <point x="148" y="59" type="line" smooth="yes"/>
      <point x="124" y="59"/>
      <point x="114" y="68"/>
      <point x="114" y="95" type="curve" smooth="yes"/>
      <point x="114" y="118" type="line"/>
      <point x="110" y="117" type="line"/>
      <point x="110" y="61" type="line" smooth="yes"/>
      <point x="110" y="16"/>
      <point x="134" y="0"/>
      <point x="169" y="0" type="curve" smooth="yes"/>
      <point x="209" y="0" type="line" smooth="yes"/>
      <point x="262" y="0"/>
      <point x="288" y="26"/>
      <point x="288" y="79" type="curve" smooth="yes"/>
      <point x="288" y="262" type="line"/>
    </contour>
  </outline>
</glyph>
<glyph name="u" format="1">
  <advance width="333"/>
  <unicode hex="0075"/>
  <outline>
    <contour>
      <point x="45" y="485" type="line"/>
      <point x="45" y="79" type="line" smooth="yes"/>
      <point x="45" y="26"/>
      <point x="71" y="0"/>
      <point x="124" y="0" type="curve" smooth="yes"/>
      <point x="164" y="0" type="line" smooth="yes"/>
      <point x="199" y="0"/>
      <point x="223" y="16"/>
      <point x="223" y="61" type="curve" smooth="yes"/>
      <point x="223" y="129" type="line"/>
      <point x="219" y="129" type="line"/>
      <point x="219" y="95" type="line" smooth="yes"/>
      <point x="219" y="68"/>
      <point x="209" y="59"/>
      <point x="185" y="59" type="curve" smooth="yes"/>
      <point x="145" y="59" type="line" smooth="yes"/>
      <point x="119" y="59"/>
      <point x="114" y="64"/>
      <point x="114" y="90" type="curve" smooth="yes"/>
      <point x="114" y="485" type="line"/>
    </contour>
    <contour>
      <point x="219" y="485" type="line"/>
      <point x="219" y="59" type="line"/>
      <point x="219" y="52" type="line"/>
      <point x="219" y="0" type="line"/>
      <point x="288" y="0" type="line"/>
      <point x="288" y="485" type="line"/>
    </contour>
  </outline>
</glyph>
<glyph name="v" format="1">
  <advance width="279"/>
  <unicode hex="0076"/>
  <outline>
    <contour>
      <point x="74" y="485" type="line"/>
      <point x="5" y="485" type="line"/>
      <point x="85" y="0" type="line"/>
      <point x="194" y="0" type="line"/>
      <point x="274" y="485" type="line"/>
      <point x="205" y="485" type="line"/>
      <point x="139" y="48" type="line"/>
    </contour>
  </outline>
</glyph>
<glyph name="y" format="1">
  <advance width="309"/>
  <unicode hex="0079"/>
  <outline>
    <contour>
      <point x="10" y="485" type="line"/>
      <point x="103" y="0" type="line"/>
      <point x="148" y="0" type="line"/>
      <point x="136" y="-51" type="line" smooth="yes"/>
      <point x="130" y="-76"/>
      <point x="112" y="-82"/>
      <point x="86" y="-82" type="curve" smooth="yes"/>
      <point x="53" y="-82" type="line"/>
      <point x="53" y="-141" type="line"/>
      <point x="107" y="-141" type="line" smooth="yes"/>
      <point x="160" y="-141"/>
      <point x="192" y="-114"/>
      <point x="202" y="-62" type="curve" smooth="yes"/>
      <point x="299" y="485" type="line"/>
      <point x="230" y="485" type="line"/>
      <point x="157" y="48" type="line"/>
      <point x="79" y="485" type="line"/>
    </contour>
  </outline>
</glyph>
<glyph name="z" format="1">
  <advance width="266"/>
  <unicode hex="007A"/>
  <outline>
    <contour>
      <point x="251" y="485" type="line"/>
      <point x="25" y="485" type="line"/>
      <point x="25" y="426" type="line"/>
      <point x="251" y="426" type="line"/>
    </contour>
    <contour>
      <point x="182" y="426" type="line"/>
      <point x="15" y="59" type="line"/>
      <point x="84" y="59" type="line"/>
      <point x="251" y="426" type="line"/>
    </contour>
    <contour>
      <point x="251" y="59" type="line"/>
      <point x="15" y="59" type="line"/>
      <point x="15" y="0" type="line"/>
      <point x="251" y="0" type="line"/>
    </contour>
  </outline>
</glyph>
<glyph name="braceleft" format="1">
  <advance width="271"/>
  <unicode hex="007B"/>
  <outline>
    <contour>
      <point x="180" y="689" type="line"/>
      <point x="180" y="713"/>
      <point x="188" y="722"/>
      <point x="214" y="722" type="curve" smooth="yes"/>
      <point x="264" y="722" type="line"/>
      <point x="264" y="781" type="line"/>
      <point x="181" y="781" type="line" smooth="yes"/>
      <point x="125" y="781"/>
      <point x="112" y="750"/>
      <point x="112" y="703" type="curve" smooth="yes"/>
      <point x="112" y="454" type="line" smooth="yes"/>
      <point x="112" y="373"/>
      <point x="85" y="337"/>
      <point x="24" y="337" type="curve" smooth="yes"/>
      <point x="5" y="337" type="line"/>
      <point x="5" y="279" type="line"/>
      <point x="24" y="279" type="line" smooth="yes"/>
      <point x="85" y="279"/>
      <point x="112" y="243"/>
      <point x="112" y="163" type="curve"/>
      <point x="112" y="-88" type="line" smooth="yes"/>
      <point x="112" y="-136"/>
      <point x="125" y="-166"/>
      <point x="181" y="-166" type="curve" smooth="yes"/>
      <point x="264" y="-166" type="line"/>
      <point x="264" y="-107" type="line"/>
      <point x="214" y="-107" type="line" smooth="yes"/>
      <point x="188" y="-107"/>
      <point x="180" y="-98"/>
      <point x="180" y="-74" type="curve" smooth="yes"/>
      <point x="180" y="189" type="line" smooth="yes"/>
      <point x="180" y="257"/>
      <point x="156" y="301"/>
      <point x="105" y="308" type="curve"/>
      <point x="156" y="314"/>
      <point x="180" y="358"/>
      <point x="180" y="428" type="curve" smooth="yes"/>
    </contour>
  </outline>
</glyph>
<glyph name="asciitilde" format="1">
  <advance width="472"/>
  <unicode hex="007E"/>
  <outline>
    <contour>
      <point x="318" y="216" type="curve" smooth="yes"/>
      <point x="344" y="216" type="line"/>
      <point x="400" y="216"/>
      <point x="422" y="246"/>
      <point x="422" y="292" type="curve" smooth="yes"/>
      <point x="422" y="352" type="line"/>
      <point x="358" y="352" type="line"/>
      <point x="358" y="306" type="line" smooth="yes"/>
      <point x="358" y="283"/>
      <point x="355" y="271"/>
      <point x="331" y="271" type="curve" smooth="yes"/>
      <point x="252" y="271"/>
      <point x="239" y="353"/>
      <point x="158" y="353" type="curve" smooth="yes"/>
      <point x="129" y="353" type="line" smooth="yes"/>
      <point x="74" y="353"/>
      <point x="52" y="324"/>
      <point x="52" y="277" type="curve" smooth="yes"/>
      <point x="52" y="217" type="line"/>
      <point x="116" y="217" type="line"/>
      <point x="116" y="264" type="line" smooth="yes"/>
      <point x="116" y="285"/>
      <point x="121" y="298"/>
      <point x="146" y="298" type="curve" smooth="yes"/>
      <point x="216" y="298"/>
      <point x="223" y="216"/>
    </contour>
  </outline>
</glyph>
<glyph name="cent" format="1">
  <advance width="325"/>
  <unicode hex="00A2"/>
  <outline>
    <contour>
      <point x="109" y="395" type="line"/>
      <point x="109" y="421"/>
      <point x="114" y="426"/>
      <point x="140" y="426" type="curve" smooth="yes"/>
      <point x="171" y="426" type="line"/>
      <point x="171" y="485" type="line"/>
      <point x="119" y="485" type="line" smooth="yes"/>
      <point x="66" y="485"/>
      <point x="40" y="459"/>
      <point x="40" y="406" type="curve" smooth="yes"/>
      <point x="40" y="79" type="line" smooth="yes"/>
      <point x="40" y="26"/>
      <point x="66" y="0"/>
      <point x="119" y="0" type="curve"/>
      <point x="164" y="0" type="line"/>
      <point x="164" y="59" type="line"/>
      <point x="140" y="59" type="line" smooth="yes"/>
      <point x="114" y="59"/>
      <point x="109" y="64"/>
      <point x="109" y="90" type="curve" smooth="yes"/>
    </contour>
    <contour>
      <point x="221" y="341" type="line"/>
      <point x="290" y="341" type="line"/>
      <point x="290" y="406" type="line" smooth="yes"/>
      <point x="290" y="459"/>
      <point x="264" y="485"/>
      <point x="211" y="485" type="curve" smooth="yes"/>
      <point x="156" y="485" type="line"/>
      <point x="156" y="426" type="line"/>
      <point x="190" y="426" type="line" smooth="yes"/>
      <point x="216" y="426"/>
      <point x="221" y="421"/>
      <point x="221" y="395" type="curve" smooth="yes"/>
    </contour>
    <contour>
      <point x="221" y="90" type="line"/>
      <point x="221" y="64"/>
      <point x="216" y="59"/>
      <point x="190" y="59" type="curve" smooth="yes"/>
      <point x="156" y="59" type="line"/>
      <point x="156" y="0" type="line"/>
      <point x="211" y="0" type="line" smooth="yes"/>
      <point x="264" y="0"/>
      <point x="290" y="26"/>
      <point x="290" y="79" type="curve" smooth="yes"/>
      <point x="290" y="144" type="line"/>
      <point x="221" y="144" type="line"/>
    </contour>
    <contour>
      <point x="201" y="475" type="line"/>
      <point x="201" y="561" type="line"/>
      <point x="136" y="561" type="line"/>
      <point x="136" y="475" type="line"/>
    </contour>
    <contour>
      <point x="201" y="-75" type="line"/>
      <point x="201" y="10" type="line"/>
      <point x="136" y="10" type="line"/>
      <point x="136" y="-75" type="line"/>
    </contour>
  </outline>
</glyph>
<glyph name="registered" format="1">
  <advance width="397"/>
  <unicode hex="00AE"/>
  <outline>
    <contour>
      <point x="362" y="529" type="line"/>
      <point x="362" y="629"/>
      <point x="328" y="681"/>
      <point x="250" y="681" type="curve" smooth="yes"/>
      <point x="147" y="681" type="line" smooth="yes"/>
      <point x="69" y="681"/>
      <point x="35" y="629"/>
      <point x="35" y="529" type="curve" smooth="yes"/>
      <point x="35" y="490" type="line" smooth="yes"/>
      <point x="35" y="390"/>
      <point x="69" y="343"/>
      <point x="147" y="343" type="curve" smooth="yes"/>
      <point x="250" y="343" type="line" smooth="yes"/>
      <point x="328" y="343"/>
      <point x="362" y="390"/>
      <point x="362" y="490" type="curve" smooth="yes"/>
    </contour>
    <contour>
      <point x="148" y="376" type="line"/>
      <point x="88" y="376"/>
      <point x="72" y="426"/>
      <point x="72" y="489" type="curve" smooth="yes"/>
      <point x="72" y="529" type="line" smooth="yes"/>
      <point x="72" y="593"/>
      <point x="88" y="650"/>
      <point x="148" y="650" type="curve" smooth="yes"/>
      <point x="250" y="650" type="line" smooth="yes"/>
      <point x="310" y="650"/>
      <point x="326" y="593"/>
      <point x="326" y="529" type="curve" smooth="yes"/>
      <point x="326" y="489" type="line" smooth="yes"/>
      <point x="326" y="426"/>
      <point x="310" y="376"/>
      <point x="250" y="376" type="curve" smooth="yes"/>
    </contour>
    <contour>
      <point x="152" y="620" type="line"/>
      <point x="152" y="407" type="line"/>
      <point x="183" y="407" type="line"/>
      <point x="183" y="493" type="line"/>
      <point x="195" y="493" type="line"/>
      <point x="226" y="407" type="line"/>
      <point x="258" y="407" type="line"/>
      <point x="226" y="494" type="line"/>
      <point x="240" y="497"/>
      <point x="247" y="507"/>
      <point x="247" y="524" type="curve"/>
      <point x="247" y="590" type="line" smooth="yes"/>
      <point x="247" y="611"/>
      <point x="237" y="620"/>
      <point x="216" y="620" type="curve" smooth="yes"/>
    </contour>
    <contour>
      <point x="216" y="527" type="line"/>
      <point x="216" y="522"/>
      <point x="215" y="521"/>
      <point x="210" y="521" type="curve" smooth="yes"/>
      <point x="183" y="521" type="line"/>
      <point x="183" y="594" type="line"/>
      <point x="210" y="594" type="line" smooth="yes"/>
      <point x="215" y="594"/>
      <point x="216" y="593"/>
      <point x="216" y="587" type="curve" smooth="yes"/>
    </contour>
  </outline>
</glyph>
<glyph name="plusminus" format="1">
  <advance width="390"/>
  <unicode hex="00B1"/>
  <outline>
    <contour>
      <point x="30" y="349" type="line"/>
      <point x="360" y="349" type="line"/>
      <point x="360" y="409" type="line"/>
      <point x="30" y="409" type="line"/>
    </contour>
    <contour>
      <point x="160" y="489" type="line"/>
      <point x="160" y="269" type="line"/>
      <point x="230" y="269" type="line"/>
      <point x="230" y="489" type="line"/>
    </contour>
    <contour>
      <point x="30" y="179" type="line"/>
      <point x="360" y="179" type="line"/>
      <point x="360" y="239" type="line"/>
      <point x="30" y="239" type="line"/>
    </contour>
  </outline>
</glyph>
<glyph name="onesuperior" format="1">
  <advance width="126"/>
  <unicode hex="00B9"/>
  <outline>
    <contour>
      <point x="63" y="622" type="line"/>
      <point x="11" y="622" type="line"/>
      <point x="11" y="580" type="line"/>
      <point x="63" y="580" type="line"/>
    </contour>
    <contour>
      <point x="48" y="622" type="line"/>
      <point x="48" y="280" type="line"/>
      <point x="96" y="280" type="line"/>
      <point x="96" y="622" type="line"/>
    </contour>
  </outline>
</glyph>
<glyph name="guillemotright" format="1">
  <advance width="487"/>
  <unicode hex="00BB"/>
  <outline>
    <contour>
      <point x="241" y="262" type="line"/>
      <point x="120" y="418" type="line"/>
      <point x="43" y="418" type="line"/>
      <point x="167" y="261" type="line"/>
      <point x="43" y="106" type="line"/>
      <point x="120" y="106" type="line"/>
    </contour>
    <contour>
      <point x="441" y="262" type="line"/>
      <point x="320" y="418" type="line"/>
      <point x="243" y="418" type="line"/>
      <point x="367" y="261" type="line"/>
      <point x="243" y="106" type="line"/>
      <point x="320" y="106" type="line"/>
    </contour>
  </outline>
</glyph>
<glyph name="igrave" format="1">
  <advance width="159"/>
  <unicode hex="00EC"/>
  <outline>
    <contour>
      <point x="114" y="0" type="line"/>
      <point x="114" y="485" type="line"/>
      <point x="45" y="485" type="line"/>
      <point x="45" y="0" type="line"/>
    </contour>
    <component base="grave" xOffset="-171"/>
  </outline>
</glyph>
<glyph name="dcroat" format="1">
  <advance width="333"/>
  <unicode hex="0111"/>
  <outline>
    <contour>
      <point x="114" y="224" type="line"/>
      <point x="114" y="395" type="line" smooth="yes"/>
      <point x="114" y="421"/>
      <point x="119" y="426"/>
      <point x="145" y="426" type="curve" smooth="yes"/>
      <point x="185" y="426" type="line" smooth="yes"/>
      <point x="209" y="426"/>
      <point x="219" y="417"/>
      <point x="219" y="390" type="curve" smooth="yes"/>
      <point x="219" y="356" type="line"/>
      <point x="223" y="356" type="line"/>
      <point x="223" y="424" type="line" smooth="yes"/>
      <point x="223" y="469"/>
      <point x="199" y="485"/>
      <point x="164" y="485" type="curve" smooth="yes"/>
      <point x="124" y="485" type="line" smooth="yes"/>
      <point x="71" y="485"/>
      <point x="45" y="459"/>
      <point x="45" y="406" type="curve" smooth="yes"/>
      <point x="45" y="224" type="line"/>
    </contour>
    <contour>
      <point x="219" y="669" type="line"/>
      <point x="219" y="60" type="line"/>
      <point x="219" y="53" type="line"/>
      <point x="219" y="0" type="line"/>
      <point x="288" y="0" type="line"/>
      <point x="288" y="669" type="line"/>
    </contour>
    <contour>
      <point x="45" y="262" type="line"/>
      <point x="45" y="79" type="line" smooth="yes"/>
      <point x="45" y="26"/>
      <point x="71" y="0"/>
      <point x="124" y="0" type="curve" smooth="yes"/>
      <point x="164" y="0" type="line" smooth="yes"/>
      <point x="199" y="0"/>
      <point x="223" y="16"/>
      <point x="223" y="61" type="curve" smooth="yes"/>
      <point x="223" y="117" type="line"/>
      <point x="219" y="118" type="line"/>
      <point x="219" y="95" type="line" smooth="yes"/>
      <point x="219" y="68"/>
      <point x="209" y="59"/>
      <point x="185" y="59" type="curve" smooth="yes"/>
      <point x="145" y="59" type="line" smooth="yes"/>
      <point x="119" y="59"/>
      <point x="114" y="64"/>
      <point x="114" y="90" type="curve" smooth="yes"/>
      <point x="114" y="262" type="line"/>
    </contour>
    <contour>
      <point x="333" y="603" type="line"/>
      <point x="134" y="603" type="line"/>
      <point x="134" y="544" type="line"/>
      <point x="333" y="544" type="line"/>
    </contour>
  </outline>
</glyph>
<glyph name="gcommaaccent" format="1">
  <advance width="328"/>
  <unicode hex="0123"/>
  <outline>
    <contour>
      <point x="210" y="516" type="line"/>
      <point x="210" y="676" type="line"/>
      <point x="183" y="676" type="line"/>
      <point x="130" y="555" type="line"/>
      <point x="130" y="516" type="line"/>
    </contour>
    <component base="g"/>
  </outline>
</glyph>
<glyph name="kcommaaccent" format="1">
  <advance width="325"/>
  <unicode hex="0137"/>
  <outline>
    <contour>
      <point x="114" y="0" type="line"/>
      <point x="114" y="669" type="line"/>
      <point x="45" y="669" type="line"/>
      <point x="45" y="0" type="line"/>
    </contour>
    <contour>
      <point x="136" y="256" type="line"/>
      <point x="246" y="0" type="line"/>
      <point x="320" y="0" type="line"/>
      <point x="207" y="256" type="line"/>
    </contour>
    <contour>
      <point x="207" y="256" type="line"/>
      <point x="320" y="485" type="line"/>
      <point x="246" y="485" type="line"/>
      <point x="136" y="256" type="line"/>
    </contour>
    <contour>
      <point x="130" y="-51" type="line"/>
      <point x="130" y="-211" type="line"/>
      <point x="157" y="-211" type="line"/>
      <point x="210" y="-90" type="line"/>
      <point x="210" y="-51" type="line"/>
    </contour>
  </outline>
</glyph>
<glyph name="Lslash" format="1">
  <advance width="276"/>
  <unicode hex="0141"/>
  <outline>
    <contour>
      <point x="220" y="392" type="line"/>
      <point x="-18" y="282" type="line"/>
      <point x="-18" y="223" type="line"/>
      <point x="220" y="333" type="line"/>
    </contour>
    <component base="L"/>
  </outline>
</glyph>
<glyph name="lslash" format="1">
  <advance width="169"/>
  <unicode hex="0142"/>
  <outline>
    <contour>
      <point x="210" y="442" type="line"/>
      <point x="-28" y="332" type="line"/>
      <point x="-28" y="273" type="line"/>
      <point x="210" y="383" type="line"/>
    </contour>
    <component base="l" xOffset="5"/>
  </outline>
</glyph>
<glyph name="Ncommaaccent" format="1">
  <advance width="377"/>
  <unicode hex="0145"/>
  <outline>
    <contour>
      <point x="259" y="622" type="line"/>
      <point x="259" y="157" type="line"/>
      <point x="135" y="622" type="line"/>
      <point x="55" y="622" type="line"/>
      <point x="55" y="0" type="line"/>
      <point x="118" y="0" type="line"/>
      <point x="118" y="482" type="line"/>
      <point x="247" y="0" type="line"/>
      <point x="322" y="0" type="line"/>
      <point x="322" y="622" type="line"/>
    </contour>
    <contour>
      <point x="139" y="-51" type="line"/>
      <point x="139" y="-211" type="line"/>
      <point x="166" y="-211" type="line"/>
      <point x="219" y="-90" type="line"/>
      <point x="219" y="-51" type="line"/>
    </contour>
  </outline>
</glyph>
<glyph name="OE" format="1">
  <advance width="517"/>
  <unicode hex="0152"/>
  <outline>
    <contour>
      <point x="242" y="141" type="line"/>
      <point x="280" y="141" type="line"/>
      <point x="280" y="543" type="line" smooth="yes"/>
      <point x="280" y="596"/>
      <point x="258" y="622"/>
      <point x="205" y="622" type="curve" smooth="yes"/>
      <point x="177" y="622" type="line"/>
      <point x="177" y="563" type="line"/>
      <point x="211" y="563" type="line" smooth="yes"/>
      <point x="237" y="563"/>
      <point x="242" y="558"/>
      <point x="242" y="532" type="curve" smooth="yes"/>
    </contour>
    <contour>
      <point x="242" y="90" type="line"/>
      <point x="242" y="64"/>
      <point x="237" y="59"/>
      <point x="211" y="59" type="curve" smooth="yes"/>
      <point x="170" y="59" type="line"/>
      <point x="170" y="0" type="line"/>
      <point x="206" y="0" type="line" smooth="yes"/>
      <point x="259" y="0"/>
      <point x="280" y="26"/>
      <point x="280" y="79" type="curve" smooth="yes"/>
      <point x="280" y="191" type="line"/>
      <point x="242" y="191" type="line"/>
    </contour>
    <contour>
      <point x="118" y="532" type="line"/>
      <point x="118" y="558"/>
      <point x="123" y="563"/>
      <point x="149" y="563" type="curve" smooth="yes"/>
      <point x="183" y="563" type="line"/>
      <point x="183" y="622" type="line"/>
      <point x="129" y="622" type="line" smooth="yes"/>
      <point x="76" y="622"/>
      <point x="50" y="596"/>
      <point x="50" y="543" type="curve" smooth="yes"/>
      <point x="50" y="140" type="line"/>
      <point x="118" y="140" type="line"/>
    </contour>
    <contour>
      <point x="118" y="199" type="line"/>
      <point x="50" y="199" type="line"/>
      <point x="50" y="79" type="line" smooth="yes"/>
      <point x="50" y="26"/>
      <point x="76" y="0"/>
      <point x="129" y="0" type="curve" smooth="yes"/>
      <point x="180" y="0" type="line"/>
      <point x="180" y="59" type="line"/>
      <point x="149" y="59" type="line" smooth="yes"/>
      <point x="123" y="59"/>
      <point x="118" y="64"/>
      <point x="118" y="90" type="curve" smooth="yes"/>
    </contour>
    <contour>
      <point x="262" y="622" type="line"/>
      <point x="262" y="0" type="line"/>
      <point x="321" y="0" type="line"/>
      <point x="321" y="622" type="line"/>
    </contour>
    <contour>
      <point x="455" y="353" type="line"/>
      <point x="296" y="353" type="line"/>
      <point x="296" y="294" type="line"/>
      <point x="455" y="294" type="line"/>
    </contour>
    <contour>
      <point x="485" y="622" type="line"/>
      <point x="296" y="622" type="line"/>
      <point x="296" y="563" type="line"/>
      <point x="485" y="563" type="line"/>
    </contour>
    <contour>
      <point x="492" y="59" type="line"/>
      <point x="296" y="59" type="line"/>
      <point x="296" y="0" type="line"/>
      <point x="492" y="0" type="line"/>
    </contour>
  </outline>
</glyph>
<glyph name="rcommaaccent" format="1">
  <advance width="212"/>
  <unicode hex="0157"/>
  <outline>
    <contour>
      <point x="207" y="485" type="line"/>
      <point x="186" y="485" type="line" smooth="yes"/>
      <point x="135" y="485"/>
      <point x="110" y="438"/>
      <point x="110" y="404" type="curve"/>
      <point x="110" y="331" type="line"/>
      <point x="114" y="331" type="line"/>
      <point x="114" y="350" type="line"/>
      <point x="114" y="401"/>
      <point x="133" y="425"/>
      <point x="177" y="425" type="curve" smooth="yes"/>
      <point x="207" y="425" type="line"/>
    </contour>
    <contour>
      <point x="114" y="0" type="line"/>
      <point x="114" y="395" type="line"/>
      <point x="114" y="400" type="line"/>
      <point x="114" y="485" type="line"/>
      <point x="45" y="485" type="line"/>
      <point x="45" y="0" type="line"/>
    </contour>
    <contour>
      <point x="42" y="-51" type="line"/>
      <point x="42" y="-211" type="line"/>
      <point x="69" y="-211" type="line"/>
      <point x="122" y="-90" type="line"/>
      <point x="122" y="-51" type="line"/>
    </contour>
  </outline>
</glyph>
<glyph name="Tcedilla" format="1">
  <advance width="278"/>
  <unicode hex="0162"/>
  <outline>
    <contour>
      <point x="105" y="622" type="line"/>
      <point x="105" y="0" type="line"/>
      <point x="173" y="0" type="line"/>
      <point x="173" y="622" type="line"/>
    </contour>
    <contour>
      <point x="273" y="622" type="line"/>
      <point x="5" y="622" type="line"/>
      <point x="5" y="563" type="line"/>
      <point x="273" y="563" type="line"/>
    </contour>
    <contour>
      <point x="97" y="-51" type="line"/>
      <point x="97" y="-211" type="line"/>
      <point x="124" y="-211" type="line"/>
      <point x="177" y="-90" type="line"/>
      <point x="177" y="-51" type="line"/>
    </contour>
  </outline>
</glyph>
<glyph name="tcedilla" format="1">
  <advance width="278"/>
  <unicode hex="0163"/>
  <outline>
    <contour>
      <point x="105" y="622" type="line"/>
      <point x="105" y="0" type="line"/>
      <point x="173" y="0" type="line"/>
      <point x="173" y="622" type="line"/>
    </contour>
    <contour>
      <point x="273" y="622" type="line"/>
      <point x="5" y="622" type="line"/>
      <point x="5" y="563" type="line"/>
      <point x="273" y="563" type="line"/>
    </contour>
    <contour>
      <point x="100" y="-51" type="line"/>
      <point x="100" y="-211" type="line"/>
      <point x="127" y="-211" type="line"/>
      <point x="180" y="-90" type="line"/>
      <point x="180" y="-51" type="line"/>
    </contour>
  </outline>
</glyph>
<glyph name="tcaron" format="1">
  <advance width="197"/>
  <unicode hex="0165"/>
  <outline>
    <contour>
      <point x="160" y="653" type="line"/>
      <point x="160" y="513" type="line"/>
      <point x="187" y="513" type="line"/>
      <point x="237" y="614" type="line"/>
      <point x="237" y="653" type="line"/>
    </contour>
    <component base="t"/>
  </outline>
</glyph>
<glyph name="caron" format="1">
  <advance width="400"/>
  <unicode hex="02C7"/>
  <outline>
    <contour>
      <point x="156" y="516" type="line"/>
      <point x="243" y="516" type="line"/>
      <point x="328" y="643" type="line"/>
      <point x="252" y="643" type="line"/>
      <point x="199" y="559" type="line"/>
      <point x="147" y="643" type="line"/>
      <point x="71" y="643" type="line"/>
    </contour>
  </outline>
</glyph>
<glyph name="hungarumlaut" format="1">
  <advance width="400"/>
  <unicode hex="02DD"/>
  <outline>
    <contour>
      <point x="174" y="516" type="line"/>
      <point x="228" y="516" type="line"/>
      <point x="326" y="643" type="line"/>
      <point x="252" y="643" type="line"/>
    </contour>
    <contour>
      <point x="74" y="516" type="line"/>
      <point x="128" y="516" type="line"/>
      <point x="226" y="643" type="line"/>
      <point x="152" y="643" type="line"/>
    </contour>
  </outline>
</glyph>
<glyph name="danda" format="1">
  <advance width="324"/>
  <unicode hex="0964"/>
  <outline>
    <contour>
      <point x="194" y="653" type="line"/>
      <point x="130" y="653" type="line"/>
      <point x="130" y="-31" type="line"/>
      <point x="194" y="-31" type="line"/>
    </contour>
  </outline>
</glyph>
<glyph name="quoteright" format="1">
  <advance width="142"/>
  <unicode hex="2019"/>
  <outline>
    <contour>
      <point x="30" y="622" type="line"/>
      <point x="30" y="373" type="line"/>
      <point x="57" y="373" type="line"/>
      <point x="112" y="564" type="line"/>
      <point x="112" y="622" type="line"/>
    </contour>
  </outline>
</glyph>
<glyph name="quotedblright" format="1">
  <advance width="274"/>
  <unicode hex="201D"/>
  <outline>
    <contour>
      <point x="30" y="622" type="line"/>
      <point x="30" y="373" type="line"/>
      <point x="57" y="373" type="line"/>
      <point x="112" y="564" type="line"/>
      <point x="112" y="622" type="line"/>
    </contour>
    <contour>
      <point x="162" y="622" type="line"/>
      <point x="162" y="373" type="line"/>
      <point x="189" y="373" type="line"/>
      <point x="244" y="564" type="line"/>
      <point x="244" y="622" type="line"/>
    </contour>
  </outline>
</glyph>
<glyph name="quotedblbase" format="1">
  <advance width="274"/>
  <unicode hex="201E"/>
  <outline>
    <contour>
      <point x="30" y="112" type="line"/>
      <point x="30" y="-137" type="line"/>
      <point x="57" y="-137" type="line"/>
      <point x="112" y="54" type="line"/>
      <point x="112" y="112" type="line"/>
    </contour>
    <contour>
      <point x="162" y="112" type="line"/>
      <point x="162" y="-137" type="line"/>
      <point x="189" y="-137" type="line"/>
      <point x="244" y="54" type="line"/>
      <point x="244" y="112" type="line"/>
    </contour>
  </outline>
</glyph>
<glyph name="daggerdbl" format="1">
  <advance width="358"/>
  <unicode hex="2021"/>
  <outline>
    <contour>
      <point x="145" y="622" type="line"/>
      <point x="145" y="-157" type="line"/>
      <point x="213" y="-157" type="line"/>
      <point x="213" y="622" type="line"/>
    </contour>
    <contour>
      <point x="343" y="458" type="line"/>
      <point x="15" y="458" type="line"/>
      <point x="15" y="399" type="line"/>
      <point x="343" y="399" type="line"/>
    </contour>
    <contour>
      <point x="343" y="66" type="line"/>
      <point x="15" y="66" type="line"/>
      <point x="15" y="7" type="line"/>
      <point x="343" y="7" type="line"/>
    </contour>
  </outline>
</glyph>
<glyph name="ellipsis" format="1">
  <advance width="502"/>
  <unicode hex="2026"/>
  <outline>
    <contour>
      <point x="55" y="0" type="line"/>
      <point x="147" y="0" type="line"/>
      <point x="147" y="107" type="line"/>
      <point x="55" y="107" type="line"/>
    </contour>
    <contour>
      <point x="235" y="0" type="line"/>
      <point x="327" y="0" type="line"/>
      <point x="327" y="107" type="line"/>
      <point x="235" y="107" type="line"/>
    </contour>
    <contour>
      <point x="415" y="0" type="line"/>
      <point x="507" y="0" type="line"/>
      <point x="507" y="107" type="line"/>
      <point x="415" y="107" type="line"/>
    </contour>
  </outline>
</glyph>
<glyph name="guilsinglleft" format="1">
  <advance width="287"/>
  <unicode hex="2039"/>
  <outline>
    <contour>
      <point x="164" y="106" type="line"/>
      <point x="241" y="106" type="line"/>
      <point x="117" y="261" type="line"/>
      <point x="241" y="418" type="line"/>
      <point x="164" y="418" type="line"/>
      <point x="43" y="262" type="line"/>
    </contour>
  </outline>
</glyph>
<glyph name="guilsinglright" format="1">
  <advance width="289"/>
  <unicode hex="203A"/>
  <outline>
    <contour>
      <point x="241" y="262" type="line"/>
      <point x="120" y="418" type="line"/>
      <point x="43" y="418" type="line"/>
      <point x="167" y="261" type="line"/>
      <point x="43" y="106" type="line"/>
      <point x="120" y="106" type="line"/>
    </contour>
  </outline>
</glyph>
<glyph name="estimated" format="1">
  <advance width="603"/>
  <unicode hex="212E"/>
  <outline>
    <contour>
      <point x="138" y="234" type="line"/>
      <point x="136" y="234"/>
      <point x="135" y="234"/>
      <point x="135" y="232" type="curve" smooth="yes"/>
      <point x="135" y="97" type="line" smooth="yes"/>
      <point x="135" y="91"/>
      <point x="137" y="86"/>
      <point x="140" y="82" type="curve" smooth="yes"/>
      <point x="184" y="37"/>
      <point x="243" y="9"/>
      <point x="308" y="9" type="curve" smooth="yes"/>
      <point x="379" y="9"/>
      <point x="442" y="41"/>
      <point x="485" y="90" type="curve"/>
      <point x="524" y="90" type="line"/>
      <point x="475" y="32"/>
      <point x="397" y="-5"/>
      <point x="307" y="-5" type="curve" smooth="yes"/>
      <point x="157" y="-5"/>
      <point x="34" y="105"/>
      <point x="34" y="240" type="curve" smooth="yes"/>
      <point x="34" y="377"/>
      <point x="157" y="488"/>
      <point x="307" y="488" type="curve" smooth="yes"/>
      <point x="459" y="488"/>
      <point x="582" y="377"/>
      <point x="582" y="240" type="curve" smooth="yes"/>
      <point x="582" y="234" type="line"/>
    </contour>
    <contour>
      <point x="481" y="387" type="line"/>
      <point x="481" y="393"/>
      <point x="479" y="399"/>
      <point x="475" y="403" type="curve" smooth="yes"/>
      <point x="431" y="446"/>
      <point x="373" y="473"/>
      <point x="308" y="473" type="curve" smooth="yes"/>
      <point x="243" y="473"/>
      <point x="185" y="444"/>
      <point x="141" y="401" type="curve"/>
      <point x="137" y="396"/>
      <point x="135" y="391"/>
      <point x="135" y="384" type="curve" smooth="yes"/>
      <point x="135" y="252" type="line" smooth="yes"/>
      <point x="135" y="249"/>
      <point x="136" y="247"/>
      <point x="138" y="247" type="curve" smooth="yes"/>
      <point x="478" y="247" type="line" smooth="yes"/>
      <point x="480" y="247"/>
      <point x="481" y="249"/>
      <point x="481" y="252" type="curve" smooth="yes"/>
    </contour>
  </outline>
</glyph>
<glyph name="infinity" format="1">
  <advance width="586"/>
  <unicode hex="221E"/>
  <outline>
    <contour>
      <point x="145" y="212" type="line"/>
      <point x="157" y="212" type="line" smooth="yes"/>
      <point x="229" y="212"/>
      <point x="248" y="225"/>
      <point x="288" y="288" type="curve" smooth="yes"/>
      <point x="362" y="405" type="line"/>
      <point x="374" y="421"/>
      <point x="381" y="431"/>
      <point x="398" y="431" type="curve" smooth="yes"/>
      <point x="425" y="431" type="line"/>
      <point x="425" y="484" type="line"/>
      <point x="412" y="484" type="line" smooth="yes"/>
      <point x="354" y="484"/>
      <point x="346" y="472"/>
      <point x="312" y="422" type="curve" smooth="yes"/>
      <point x="226" y="296" type="line" smooth="yes"/>
      <point x="216" y="281"/>
      <point x="197" y="266"/>
      <point x="177" y="266" type="curve" smooth="yes"/>
      <point x="155" y="266" type="line"/>
    </contour>
    <contour>
      <point x="165" y="266" type="line"/>
      <point x="146" y="266" type="line" smooth="yes"/>
      <point x="117" y="266"/>
      <point x="114" y="275"/>
      <point x="114" y="301" type="curve" smooth="yes"/>
      <point x="114" y="395" type="line" smooth="yes"/>
      <point x="114" y="420"/>
      <point x="117" y="430"/>
      <point x="146" y="430" type="curve" smooth="yes"/>
      <point x="164" y="430" type="line"/>
      <point x="164" y="484" type="line"/>
      <point x="127" y="484" type="line" smooth="yes"/>
      <point x="72" y="484"/>
      <point x="50" y="454"/>
      <point x="50" y="409" type="curve" smooth="yes"/>
      <point x="50" y="288" type="line" smooth="yes"/>
      <point x="50" y="241"/>
      <point x="72" y="212"/>
      <point x="127" y="212" type="curve" smooth="yes"/>
      <point x="152" y="212" type="line"/>
    </contour>
    <contour>
      <point x="301" y="380" type="line"/>
      <point x="264" y="430" type="line" smooth="yes"/>
      <point x="232" y="473"/>
      <point x="219" y="484"/>
      <point x="163" y="484" type="curve" smooth="yes"/>
      <point x="155" y="484" type="line"/>
      <point x="155" y="430" type="line"/>
      <point x="166" y="430" type="line" smooth="yes"/>
      <point x="194" y="430"/>
      <point x="203" y="420"/>
      <point x="219" y="398" type="curve" smooth="yes"/>
      <point x="261" y="340" type="line"/>
    </contour>
    <contour>
      <point x="285" y="305" type="line"/>
      <point x="313" y="266" type="line" smooth="yes"/>
      <point x="346" y="220"/>
      <point x="363" y="212"/>
      <point x="419" y="212" type="curve" smooth="yes"/>
      <point x="430" y="212" type="line"/>
      <point x="430" y="266" type="line"/>
      <point x="410" y="266" type="line" smooth="yes"/>
      <point x="389" y="266"/>
      <point x="380" y="271"/>
      <point x="370" y="285" type="curve" smooth="yes"/>
      <point x="320" y="349" type="line"/>
    </contour>
    <contour>
      <point x="427" y="212" type="line"/>
      <point x="458" y="212" type="line" smooth="yes"/>
      <point x="514" y="212"/>
      <point x="536" y="241"/>
      <point x="536" y="288" type="curve"/>
      <point x="536" y="409" type="line" smooth="yes"/>
      <point x="536" y="454"/>
      <point x="514" y="484"/>
      <point x="458" y="484" type="curve" smooth="yes"/>
      <point x="424" y="484" type="line"/>
      <point x="424" y="431" type="line"/>
      <point x="440" y="431" type="line" smooth="yes"/>
      <point x="469" y="431"/>
      <point x="472" y="421"/>
      <point x="472" y="396" type="curve" smooth="yes"/>
      <point x="472" y="301" type="line" smooth="yes"/>
      <point x="472" y="275"/>
      <point x="469" y="266"/>
      <point x="440" y="266" type="curve" smooth="yes"/>
      <point x="427" y="266" type="line"/>
    </contour>
  </outline>
</glyph>
<glyph name="integral" format="1">
  <advance width="243"/>
  <unicode hex="222B"/>
  <outline>
    <contour>
      <point x="156" y="639" type="line"/>
      <point x="156" y="665"/>
      <point x="161" y="670"/>
      <point x="187" y="670" type="curve" smooth="yes"/>
      <point x="233" y="670" type="line"/>
      <point x="233" y="734" type="line"/>
      <point x="166" y="734" type="line" smooth="yes"/>
      <point x="113" y="734"/>
      <point x="87" y="708"/>
      <point x="87" y="655" type="curve" smooth="yes"/>
      <point x="87" y="-21" type="line" smooth="yes"/>
      <point x="84" y="-47"/>
      <point x="82" y="-52"/>
      <point x="56" y="-52" type="curve" smooth="yes"/>
      <point x="10" y="-52" type="line"/>
      <point x="10" y="-116" type="line"/>
      <point x="77" y="-116" type="line" smooth="yes"/>
      <point x="130" y="-116"/>
      <point x="156" y="-90"/>
      <point x="156" y="-37" type="curve"/>
    </contour>
  </outline>
</glyph>
<glyph name="lessequal" format="1">
  <advance width="434"/>
  <unicode hex="2264"/>
  <outline>
    <contour>
      <point x="374" y="444" type="line"/>
      <point x="374" y="508" type="line"/>
      <point x="40" y="383" type="line"/>
      <point x="40" y="333" type="line"/>
      <point x="374" y="201" type="line"/>
      <point x="374" y="266" type="line"/>
      <point x="122" y="356" type="line"/>
    </contour>
    <contour>
      <point x="374" y="165" type="line"/>
      <point x="40" y="165" type="line"/>
      <point x="40" y="108" type="line"/>
      <point x="374" y="108" type="line"/>
    </contour>
  </outline>
</glyph>
<glyph name="fl" format="1">
  <advance width="341"/>
  <unicode hex="FB02"/>
  <outline>
    <contour>
      <point x="122" y="574" type="line"/>
      <point x="122" y="600"/>
      <point x="127" y="605"/>
      <point x="153" y="605" type="curve" smooth="yes"/>
      <point x="174" y="605" type="line"/>
      <point x="174" y="669" type="line"/>
      <point x="132" y="669" type="line" smooth="yes"/>
      <point x="79" y="669"/>
      <point x="53" y="643"/>
      <point x="53" y="590" type="curve" smooth="yes"/>
      <point x="53" y="0" type="line"/>
      <point x="122" y="0" type="line"/>
    </contour>
    <contour>
      <point x="296" y="485" type="line"/>
      <point x="5" y="485" type="line"/>
      <point x="5" y="426" type="line"/>
      <point x="296" y="426" type="line"/>
    </contour>
    <contour>
      <point x="296" y="0" type="line"/>
      <point x="296" y="669" type="line"/>
      <point x="227" y="669" type="line"/>
      <point x="227" y="0" type="line"/>
    </contour>
  </outline>
</glyph>
<glyph name="dvAbbreviationsign" format="1">
  <advance width="353"/>
  <outline>
    <contour>
      <point x="60" y="305" type="curve" smooth="yes"/>
      <point x="60" y="225"/>
      <point x="106" y="179"/>
      <point x="176" y="179" type="curve" smooth="yes"/>
      <point x="246" y="179"/>
      <point x="293" y="225"/>
      <point x="293" y="305" type="curve" smooth="yes"/>
      <point x="293" y="385"/>
      <point x="246" y="431"/>
      <point x="176" y="431" type="curve" smooth="yes"/>
      <point x="106" y="431"/>
      <point x="60" y="385"/>
    </contour>
    <contour>
      <point x="123" y="305" type="curve" smooth="yes"/>
      <point x="123" y="350"/>
      <point x="141" y="374"/>
      <point x="176" y="374" type="curve" smooth="yes"/>
      <point x="211" y="374"/>
      <point x="230" y="350"/>
      <point x="230" y="305" type="curve" smooth="yes"/>
      <point x="230" y="260"/>
      <point x="211" y="236"/>
      <point x="176" y="236" type="curve" smooth="yes"/>
      <point x="141" y="236"/>
      <point x="123" y="260"/>
    </contour>
  </outline>
</glyph>
<glyph name="dvAnusvara.amI" format="1">
  <advance width="0"/>
  <outline>
    <contour>
      <point x="-1" y="657" type="move" name="_abvm.i"/>
    </contour>
    <contour>
      <point x="20" y="743" type="line"/>
      <point x="20" y="657" type="line"/>
      <point x="93" y="657" type="line"/>
      <point x="93" y="743" type="line"/>
    </contour>
  </outline>
</glyph>
<glyph name="dvAnusvara" format="1">
  <advance width="0"/>
  <outline>
    <contour>
      <point x="-57" y="622" type="move" name="_abvm.bindu"/>
    </contour>
    <contour>
      <point x="-130" y="813" type="line"/>
      <point x="-130" y="727" type="line"/>
      <point x="-57" y="727" type="line"/>
      <point x="-57" y="813" type="line"/>
    </contour>
  </outline>
</glyph>
<glyph name="dvAvagraha" format="1">
  <advance width="343"/>
  <outline>
    <contour>
      <point x="280" y="563" type="line"/>
      <point x="280" y="622" type="line"/>
      <point x="141" y="622" type="line" smooth="yes"/>
      <point x="88" y="622"/>
      <point x="62" y="596"/>
      <point x="62" y="543" type="curve" smooth="yes"/>
      <point x="62" y="388" type="line" smooth="yes"/>
      <point x="62" y="335"/>
      <point x="88" y="309"/>
      <point x="141" y="309" type="curve" smooth="yes"/>
      <point x="193" y="309" type="line" smooth="yes"/>
      <point x="219" y="309"/>
      <point x="224" y="304"/>
      <point x="224" y="278" type="curve" smooth="yes"/>
      <point x="224" y="90" type="line" smooth="yes"/>
      <point x="224" y="64"/>
      <point x="219" y="59"/>
      <point x="193" y="59" type="curve" smooth="yes"/>
      <point x="150" y="59" type="line" smooth="yes"/>
      <point x="124" y="59"/>
      <point x="119" y="64"/>
      <point x="119" y="90" type="curve" smooth="yes"/>
      <point x="119" y="165" type="line"/>
      <point x="50" y="165" type="line"/>
      <point x="50" y="79" type="line" smooth="yes"/>
      <point x="50" y="26"/>
      <point x="76" y="0"/>
      <point x="129" y="0" type="curve" smooth="yes"/>
      <point x="214" y="0" type="line" smooth="yes"/>
      <point x="267" y="0"/>
      <point x="293" y="26"/>
      <point x="293" y="79" type="curve" smooth="yes"/>
      <point x="293" y="289" type="line" smooth="yes"/>
      <point x="293" y="342"/>
      <point x="267" y="368"/>
      <point x="214" y="368" type="curve" smooth="yes"/>
      <point x="162" y="368" type="line" smooth="yes"/>
      <point x="136" y="368"/>
      <point x="131" y="373"/>
      <point x="131" y="399" type="curve" smooth="yes"/>
      <point x="131" y="532" type="line" smooth="yes"/>
      <point x="131" y="558"/>
      <point x="136" y="563"/>
      <point x="162" y="563" type="curve" smooth="yes"/>
    </contour>
  </outline>
</glyph>
<glyph name="dvBH" format="1">
  <advance width="355"/>
  <outline>
    <contour>
      <point x="213" y="622" type="curve" smooth="yes"/>
      <point x="132" y="622" type="line" smooth="yes"/>
      <point x="79" y="622"/>
      <point x="53" y="596"/>
      <point x="53" y="543" type="curve" smooth="yes"/>
      <point x="53" y="476" type="line"/>
      <point x="122" y="476" type="line"/>
      <point x="122" y="532" type="line" smooth="yes"/>
      <point x="122" y="558"/>
      <point x="127" y="563"/>
      <point x="153" y="563" type="curve" smooth="yes"/>
      <point x="192" y="563" type="line" smooth="yes"/>
      <point x="218" y="563"/>
      <point x="223" y="558"/>
      <point x="223" y="532" type="curve" smooth="yes"/>
      <point x="223" y="168" type="line" smooth="yes"/>
      <point x="223" y="142"/>
      <point x="218" y="137"/>
      <point x="192" y="137" type="curve" smooth="yes"/>
      <point x="145" y="137" type="line" smooth="yes"/>
      <point x="119" y="137"/>
      <point x="114" y="142"/>
      <point x="114" y="168" type="curve" smooth="yes"/>
      <point x="114" y="311" type="line" smooth="yes"/>
      <point x="114" y="337"/>
      <point x="119" y="342"/>
      <point x="145" y="342" type="curve" smooth="yes"/>
      <point x="445" y="342" type="line"/>
      <point x="445" y="401" type="line"/>
      <point x="124" y="401" type="line" smooth="yes"/>
      <point x="71" y="401"/>
      <point x="45" y="375"/>
      <point x="45" y="322" type="curve" smooth="yes"/>
      <point x="45" y="157" type="line" smooth="yes"/>
      <point x="45" y="104"/>
      <point x="71" y="78"/>
      <point x="124" y="78" type="curve" smooth="yes"/>
      <point x="213" y="78" type="line" smooth="yes"/>
      <point x="266" y="78"/>
      <point x="292" y="104"/>
      <point x="292" y="157" type="curve" smooth="yes"/>
      <point x="292" y="543" type="line" smooth="yes"/>
      <point x="292" y="596"/>
      <point x="266" y="622"/>
    </contour>
  </outline>
</glyph>
<glyph name="dvBH_LA" format="1">
  <advance width="843"/>
  <outline>
    <contour>
      <point x="213" y="622" type="curve"/>
      <point x="132" y="622" type="line" smooth="yes"/>
      <point x="79" y="622"/>
      <point x="53" y="596"/>
      <point x="53" y="543" type="curve" smooth="yes"/>
      <point x="53" y="476" type="line"/>
      <point x="122" y="476" type="line"/>
      <point x="122" y="532" type="line" smooth="yes"/>
      <point x="122" y="558"/>
      <point x="127" y="563"/>
      <point x="153" y="563" type="curve" smooth="yes"/>
      <point x="192" y="563" type="line" smooth="yes"/>
      <point x="218" y="563"/>
      <point x="223" y="558"/>
      <point x="223" y="532" type="curve" smooth="yes"/>
      <point x="223" y="168" type="line" smooth="yes"/>
      <point x="223" y="142"/>
      <point x="218" y="137"/>
      <point x="192" y="137" type="curve" smooth="yes"/>
      <point x="145" y="137" type="line" smooth="yes"/>
      <point x="119" y="137"/>
      <point x="114" y="142"/>
      <point x="114" y="168" type="curve" smooth="yes"/>
      <point x="114" y="311" type="line" smooth="yes"/>
      <point x="114" y="337"/>
      <point x="119" y="342"/>
      <point x="145" y="342" type="curve" smooth="yes"/>
      <point x="405" y="342" type="line"/>
      <point x="405" y="401" type="line"/>
      <point x="124" y="401" type="line" smooth="yes"/>
      <point x="71" y="401"/>
      <point x="45" y="375"/>
      <point x="45" y="322" type="curve" smooth="yes"/>
      <point x="45" y="157" type="line" smooth="yes"/>
      <point x="45" y="104"/>
      <point x="71" y="78"/>
      <point x="124" y="78" type="curve" smooth="yes"/>
      <point x="213" y="78" type="line" smooth="yes"/>
      <point x="266" y="78"/>
      <point x="292" y="104"/>
      <point x="292" y="157" type="curve" smooth="yes"/>
      <point x="292" y="543" type="line" smooth="yes"/>
      <point x="292" y="596"/>
      <point x="266" y="622"/>
    </contour>
    <contour>
      <point x="337" y="622" type="line"/>
      <point x="337" y="563" type="line"/>
      <point x="860" y="563" type="line"/>
      <point x="860" y="622" type="line"/>
    </contour>
    <contour>
      <point x="548" y="485" type="curve"/>
      <point x="476" y="485" type="line" smooth="yes"/>
      <point x="423" y="485"/>
      <point x="397" y="459"/>
      <point x="397" y="406" type="curve" smooth="yes"/>
      <point x="397" y="79" type="line" smooth="yes"/>
      <point x="397" y="26"/>
      <point x="423" y="0"/>
      <point x="476" y="0" type="curve" smooth="yes"/>
      <point x="558" y="0" type="line"/>
      <point x="558" y="62" type="line"/>
      <point x="497" y="62" type="line" smooth="yes"/>
      <point x="471" y="62"/>
      <point x="466" y="67"/>
      <point x="466" y="93" type="curve" smooth="yes"/>
      <point x="466" y="395" type="line" smooth="yes"/>
      <point x="466" y="421"/>
      <point x="471" y="426"/>
      <point x="497" y="426" type="curve" smooth="yes"/>
      <point x="529" y="426" type="line" smooth="yes"/>
      <point x="555" y="426"/>
      <point x="560" y="421"/>
      <point x="560" y="395" type="curve" smooth="yes"/>
      <point x="560" y="189" type="line"/>
      <point x="629" y="189" type="line"/>
      <point x="629" y="395" type="line" smooth="yes"/>
      <point x="629" y="421"/>
      <point x="634" y="426"/>
      <point x="660" y="426" type="curve" smooth="yes"/>
      <point x="755" y="426" type="line"/>
      <point x="755" y="485" type="line"/>
      <point x="643" y="485" type="line" smooth="yes"/>
      <point x="614" y="485"/>
      <point x="599" y="471"/>
      <point x="597" y="448" type="curve"/>
      <point x="595" y="448" type="line"/>
      <point x="593" y="471"/>
      <point x="577" y="485"/>
    </contour>
    <contour>
      <point x="792" y="0" type="line"/>
      <point x="792" y="592" type="line"/>
      <point x="723" y="592" type="line"/>
      <point x="723" y="0" type="line"/>
    </contour>
  </outline>
</glyph>
<glyph name="dvBH_NA" format="1">
  <advance width="821"/>
  <outline>
    <contour>
      <point x="213" y="622" type="curve"/>
      <point x="132" y="622" type="line" smooth="yes"/>
      <point x="79" y="622"/>
      <point x="53" y="596"/>
      <point x="53" y="543" type="curve" smooth="yes"/>
      <point x="53" y="476" type="line"/>
      <point x="122" y="476" type="line"/>
      <point x="122" y="532" type="line" smooth="yes"/>
      <point x="122" y="558"/>
      <point x="127" y="563"/>
      <point x="153" y="563" type="curve" smooth="yes"/>
      <point x="192" y="563" type="line" smooth="yes"/>
      <point x="218" y="563"/>
      <point x="223" y="558"/>
      <point x="223" y="532" type="curve" smooth="yes"/>
      <point x="223" y="168" type="line" smooth="yes"/>
      <point x="223" y="142"/>
      <point x="218" y="137"/>
      <point x="192" y="137" type="curve" smooth="yes"/>
      <point x="145" y="137" type="line" smooth="yes"/>
      <point x="119" y="137"/>
      <point x="114" y="142"/>
      <point x="114" y="168" type="curve" smooth="yes"/>
      <point x="114" y="311" type="line" smooth="yes"/>
      <point x="114" y="337"/>
      <point x="119" y="342"/>
      <point x="145" y="342" type="curve" smooth="yes"/>
      <point x="405" y="342" type="line"/>
      <point x="405" y="401" type="line"/>
      <point x="124" y="401" type="line" smooth="yes"/>
      <point x="71" y="401"/>
      <point x="45" y="375"/>
      <point x="45" y="322" type="curve" smooth="yes"/>
      <point x="45" y="157" type="line" smooth="yes"/>
      <point x="45" y="104"/>
      <point x="71" y="78"/>
      <point x="124" y="78" type="curve" smooth="yes"/>
      <point x="213" y="78" type="line" smooth="yes"/>
      <point x="266" y="78"/>
      <point x="292" y="104"/>
      <point x="292" y="157" type="curve" smooth="yes"/>
      <point x="292" y="543" type="line" smooth="yes"/>
      <point x="292" y="596"/>
      <point x="266" y="622"/>
    </contour>
    <contour>
      <point x="697" y="597" type="line"/>
      <point x="697" y="0" type="line"/>
      <point x="766" y="0" type="line"/>
      <point x="766" y="597" type="line"/>
    </contour>
    <contour>
      <point x="380" y="622" type="line"/>
      <point x="380" y="563" type="line"/>
      <point x="841" y="563" type="line"/>
      <point x="841" y="622" type="line"/>
    </contour>
    <contour>
      <point x="609" y="157" type="curve"/>
      <point x="609" y="444" type="line"/>
      <point x="540" y="444" type="line"/>
      <point x="540" y="168" type="line" smooth="yes"/>
      <point x="540" y="142"/>
      <point x="535" y="137"/>
      <point x="509" y="137" type="curve" smooth="yes"/>
      <point x="480" y="137" type="line" smooth="yes"/>
      <point x="454" y="137"/>
      <point x="449" y="142"/>
      <point x="449" y="168" type="curve" smooth="yes"/>
      <point x="449" y="395" type="line" smooth="yes"/>
      <point x="449" y="421"/>
      <point x="454" y="426"/>
      <point x="480" y="426" type="curve" smooth="yes"/>
      <point x="718" y="426" type="line"/>
      <point x="718" y="485" type="line"/>
      <point x="459" y="485" type="line" smooth="yes"/>
      <point x="406" y="485"/>
      <point x="380" y="459"/>
      <point x="380" y="406" type="curve" smooth="yes"/>
      <point x="380" y="157" type="line" smooth="yes"/>
      <point x="380" y="104"/>
      <point x="406" y="78"/>
      <point x="459" y="78" type="curve" smooth="yes"/>
      <point x="530" y="78" type="line" smooth="yes"/>
      <point x="583" y="78"/>
      <point x="609" y="104"/>
    </contour>
  </outline>
</glyph>
<glyph name="dvBH_RA" format="1">
  <advance width="529"/>
  <outline>
    <contour>
      <point x="405" y="622" type="line"/>
      <point x="405" y="563" type="line"/>
      <point x="549" y="563" type="line"/>
      <point x="549" y="622" type="line"/>
    </contour>
    <contour>
      <point x="213" y="622" type="curve"/>
      <point x="132" y="622" type="line" smooth="yes"/>
      <point x="79" y="622"/>
      <point x="53" y="596"/>
      <point x="53" y="543" type="curve" smooth="yes"/>
      <point x="53" y="476" type="line"/>
      <point x="122" y="476" type="line"/>
      <point x="122" y="532" type="line" smooth="yes"/>
      <point x="122" y="558"/>
      <point x="127" y="563"/>
      <point x="153" y="563" type="curve" smooth="yes"/>
      <point x="192" y="563" type="line" smooth="yes"/>
      <point x="218" y="563"/>
      <point x="223" y="558"/>
      <point x="223" y="532" type="curve" smooth="yes"/>
      <point x="223" y="218" type="line" smooth="yes"/>
      <point x="223" y="192"/>
      <point x="218" y="187"/>
      <point x="192" y="187" type="curve" smooth="yes"/>
      <point x="145" y="187" type="line" smooth="yes"/>
      <point x="119" y="187"/>
      <point x="114" y="192"/>
      <point x="114" y="218" type="curve" smooth="yes"/>
      <point x="114" y="311" type="line" smooth="yes"/>
      <point x="114" y="337"/>
      <point x="119" y="342"/>
      <point x="145" y="342" type="curve" smooth="yes"/>
      <point x="426" y="342" type="line"/>
      <point x="426" y="401" type="line"/>
      <point x="124" y="401" type="line" smooth="yes"/>
      <point x="71" y="401"/>
      <point x="45" y="375"/>
      <point x="45" y="322" type="curve" smooth="yes"/>
      <point x="45" y="207" type="line" smooth="yes"/>
      <point x="45" y="154"/>
      <point x="71" y="128"/>
      <point x="124" y="128" type="curve" smooth="yes"/>
      <point x="213" y="128" type="line" smooth="yes"/>
      <point x="266" y="128"/>
      <point x="292" y="154"/>
      <point x="292" y="207" type="curve" smooth="yes"/>
      <point x="292" y="543" type="line" smooth="yes"/>
      <point x="292" y="596"/>
      <point x="266" y="622"/>
    </contour>
    <contour>
      <point x="405" y="599" type="line"/>
      <point x="405" y="239" type="line"/>
      <point x="143" y="-50" type="line"/>
      <point x="228" y="-50" type="line"/>
      <point x="405" y="147" type="line"/>
      <point x="405" y="0" type="line"/>
      <point x="474" y="0" type="line"/>
      <point x="474" y="599" type="line"/>
    </contour>
  </outline>
</glyph>
<glyph name="dvB" format="1">
  <advance width="205"/>
  <outline>
    <contour>
      <point x="296" y="622" type="line"/>
      <point x="-20" y="622" type="line"/>
      <point x="-20" y="563" type="line"/>
      <point x="296" y="563" type="line"/>
    </contour>
    <contour>
      <point x="129" y="78" type="curve" smooth="yes"/>
      <point x="296" y="78" type="line"/>
      <point x="296" y="124" type="line"/>
      <point x="296" y="124"/>
      <point x="246" y="239"/>
      <point x="220" y="286" type="curve" smooth="yes"/>
      <point x="144" y="426" type="line"/>
      <point x="220" y="426" type="line"/>
      <point x="220" y="485" type="line"/>
      <point x="129" y="485" type="line" smooth="yes"/>
      <point x="76" y="485"/>
      <point x="50" y="459"/>
      <point x="50" y="406" type="curve" smooth="yes"/>
      <point x="50" y="157" type="line" smooth="yes"/>
      <point x="50" y="104"/>
      <point x="76" y="78"/>
    </contour>
    <contour>
      <point x="119" y="168" type="curve" smooth="yes"/>
      <point x="119" y="395" type="line"/>
      <point x="119" y="395"/>
      <point x="134" y="356"/>
      <point x="170" y="288" type="curve" smooth="yes"/>
      <point x="251" y="137" type="line"/>
      <point x="150" y="137" type="line" smooth="yes"/>
      <point x="124" y="137"/>
      <point x="119" y="142"/>
    </contour>
  </outline>
</glyph>
<glyph name="dvB_JHA" format="1">
  <advance width="736"/>
  <outline>
    <contour>
      <point x="212" y="485" type="line"/>
      <point x="121" y="485" type="line" smooth="yes"/>
      <point x="68" y="485"/>
      <point x="42" y="459"/>
      <point x="42" y="406" type="curve" smooth="yes"/>
      <point x="42" y="157" type="line" smooth="yes"/>
      <point x="42" y="104"/>
      <point x="68" y="78"/>
      <point x="121" y="78" type="curve" smooth="yes"/>
      <point x="227" y="78" type="line" smooth="yes"/>
      <point x="265" y="78"/>
      <point x="283" y="95"/>
      <point x="288" y="125" type="curve"/>
      <point x="272" y="122" type="line"/>
      <point x="272" y="0" type="line"/>
      <point x="341" y="0" type="line"/>
      <point x="341" y="240" type="line"/>
      <point x="272" y="240" type="line"/>
      <point x="272" y="149" type="line"/>
      <point x="280" y="149" type="line"/>
      <point x="120" y="466" type="line"/>
      <point x="95" y="426" type="line"/>
      <point x="212" y="426" type="line"/>
    </contour>
    <contour>
      <point x="111" y="168" type="curve"/>
      <point x="111" y="395" type="line"/>
      <point x="111" y="395"/>
      <point x="126" y="356"/>
      <point x="162" y="288" type="curve" smooth="yes"/>
      <point x="240" y="141" type="line"/>
      <point x="235" y="138"/>
      <point x="228" y="137"/>
      <point x="218" y="137" type="curve" smooth="yes"/>
      <point x="142" y="137" type="line" smooth="yes"/>
      <point x="116" y="137"/>
      <point x="111" y="142"/>
    </contour>
    <contour>
      <point x="-20" y="622" type="line"/>
      <point x="-20" y="563" type="line"/>
      <point x="776" y="563" type="line"/>
      <point x="776" y="622" type="line"/>
    </contour>
    <contour>
      <point x="632" y="592" type="line"/>
      <point x="632" y="0" type="line"/>
      <point x="701" y="0" type="line"/>
      <point x="701" y="592" type="line"/>
    </contour>
    <contour>
      <point x="447" y="594" type="line"/>
      <point x="447" y="485" type="line"/>
      <point x="349" y="485" type="line" smooth="yes"/>
      <point x="296" y="485"/>
      <point x="270" y="459"/>
      <point x="270" y="406" type="curve" smooth="yes"/>
      <point x="270" y="344" type="line" smooth="yes"/>
      <point x="270" y="291"/>
      <point x="296" y="265"/>
      <point x="349" y="265" type="curve" smooth="yes"/>
      <point x="424" y="265" type="line" smooth="yes"/>
      <point x="450" y="265"/>
      <point x="455" y="260"/>
      <point x="455" y="234" type="curve" smooth="yes"/>
      <point x="455" y="168" type="line" smooth="yes"/>
      <point x="455" y="142"/>
      <point x="450" y="137"/>
      <point x="424" y="137" type="curve" smooth="yes"/>
      <point x="303" y="137" type="line"/>
      <point x="303" y="78" type="line"/>
      <point x="445" y="78" type="line" smooth="yes"/>
      <point x="498" y="78"/>
      <point x="524" y="104"/>
      <point x="524" y="157" type="curve" smooth="yes"/>
      <point x="524" y="245" type="line" smooth="yes"/>
      <point x="524" y="263"/>
      <point x="521" y="278"/>
      <point x="515" y="289" type="curve"/>
      <point x="478" y="265" type="line"/>
      <point x="655" y="265" type="line"/>
      <point x="655" y="324" type="line"/>
      <point x="370" y="324" type="line" smooth="yes"/>
      <point x="344" y="324"/>
      <point x="339" y="329"/>
      <point x="339" y="355" type="curve" smooth="yes"/>
      <point x="339" y="395" type="line" smooth="yes"/>
      <point x="339" y="421"/>
      <point x="344" y="426"/>
      <point x="370" y="426" type="curve" smooth="yes"/>
      <point x="516" y="426" type="line"/>
      <point x="516" y="594" type="line"/>
    </contour>
  </outline>
</glyph>
<glyph name="dvB_JxA" format="1">
  <advance width="710"/>
  <outline>
    <contour>
      <point x="225" y="485" type="line"/>
      <point x="134" y="485" type="line" smooth="yes"/>
      <point x="81" y="485"/>
      <point x="55" y="459"/>
      <point x="55" y="406" type="curve" smooth="yes"/>
      <point x="55" y="157" type="line" smooth="yes"/>
      <point x="55" y="104"/>
      <point x="81" y="78"/>
      <point x="134" y="78" type="curve" smooth="yes"/>
      <point x="236" y="78" type="line" smooth="yes"/>
      <point x="274" y="78"/>
      <point x="290" y="90"/>
      <point x="294" y="125" type="curve"/>
      <point x="265" y="171" type="line"/>
      <point x="265" y="145"/>
      <point x="257" y="137"/>
      <point x="231" y="137" type="curve" smooth="yes"/>
      <point x="155" y="137" type="line" smooth="yes"/>
      <point x="129" y="137"/>
      <point x="124" y="142"/>
      <point x="124" y="168" type="curve" smooth="yes"/>
      <point x="124" y="395" type="line"/>
      <point x="124" y="395"/>
      <point x="139" y="356"/>
      <point x="175" y="288" type="curve" smooth="yes"/>
      <point x="258" y="132" type="line"/>
      <point x="273" y="114" type="line"/>
      <point x="284" y="90"/>
      <point x="308" y="78"/>
      <point x="344" y="78" type="curve" smooth="yes"/>
      <point x="420" y="78" type="line" smooth="yes"/>
      <point x="474" y="78"/>
      <point x="499" y="104"/>
      <point x="499" y="157" type="curve" smooth="yes"/>
      <point x="499" y="426" type="line"/>
      <point x="624" y="426" type="line"/>
      <point x="624" y="485" type="line"/>
      <point x="430" y="485" type="line"/>
      <point x="430" y="168" type="line" smooth="yes"/>
      <point x="430" y="142"/>
      <point x="425" y="137"/>
      <point x="399" y="137" type="curve" smooth="yes"/>
      <point x="365" y="137" type="line" smooth="yes"/>
      <point x="339" y="137"/>
      <point x="334" y="142"/>
      <point x="334" y="168" type="curve" smooth="yes"/>
      <point x="334" y="485" type="line"/>
      <point x="265" y="485" type="line"/>
      <point x="265" y="271" type="line" smooth="yes"/>
      <point x="265" y="213"/>
      <point x="271" y="190"/>
      <point x="271" y="190" type="curve"/>
      <point x="271" y="190"/>
      <point x="251" y="239"/>
      <point x="225" y="286" type="curve" smooth="yes"/>
      <point x="149" y="426" type="line"/>
      <point x="225" y="426" type="line"/>
    </contour>
    <contour>
      <point x="586" y="592" type="line"/>
      <point x="586" y="0" type="line"/>
      <point x="655" y="0" type="line"/>
      <point x="655" y="592" type="line"/>
    </contour>
    <contour>
      <point x="-20" y="622" type="line"/>
      <point x="-20" y="563" type="line"/>
      <point x="730" y="563" type="line"/>
      <point x="730" y="622" type="line"/>
    </contour>
    <component base="dvNukta" xOffset="476" yOffset="71"/>
  </outline>
</glyph>
<glyph name="dvB_L_YA" format="1">
  <advance width="984"/>
  <outline>
    <contour>
      <point x="265" y="336" type="curve"/>
      <point x="265" y="325" type="line" smooth="yes"/>
      <point x="265" y="236"/>
      <point x="271" y="190"/>
      <point x="271" y="190" type="curve"/>
      <point x="271" y="190"/>
      <point x="251" y="239"/>
      <point x="225" y="286" type="curve" smooth="yes"/>
      <point x="149" y="426" type="line"/>
      <point x="225" y="426" type="line"/>
      <point x="225" y="485" type="line"/>
      <point x="134" y="485" type="line" smooth="yes"/>
      <point x="81" y="485"/>
      <point x="55" y="459"/>
      <point x="55" y="406" type="curve" smooth="yes"/>
      <point x="55" y="157" type="line" smooth="yes"/>
      <point x="55" y="104"/>
      <point x="81" y="78"/>
      <point x="134" y="78" type="curve" smooth="yes"/>
      <point x="233" y="78" type="line" smooth="yes"/>
      <point x="263" y="78"/>
      <point x="276" y="89"/>
      <point x="276" y="125" type="curve"/>
      <point x="265" y="171" type="line"/>
      <point x="265" y="145"/>
      <point x="257" y="137"/>
      <point x="231" y="137" type="curve" smooth="yes"/>
      <point x="155" y="137" type="line" smooth="yes"/>
      <point x="129" y="137"/>
      <point x="124" y="142"/>
      <point x="124" y="168" type="curve" smooth="yes"/>
      <point x="124" y="395" type="line"/>
      <point x="124" y="395"/>
      <point x="139" y="356"/>
      <point x="175" y="288" type="curve" smooth="yes"/>
      <point x="270" y="110" type="line"/>
      <point x="265" y="98" type="line"/>
      <point x="265" y="79" type="line"/>
      <point x="265" y="26"/>
      <point x="291" y="0"/>
      <point x="344" y="0" type="curve" smooth="yes"/>
      <point x="426" y="0" type="line"/>
      <point x="426" y="62" type="line"/>
      <point x="365" y="62" type="line" smooth="yes"/>
      <point x="339" y="62"/>
      <point x="334" y="67"/>
      <point x="334" y="93" type="curve" smooth="yes"/>
      <point x="334" y="325" type="line" smooth="yes"/>
      <point x="334" y="351"/>
      <point x="339" y="356"/>
      <point x="365" y="356" type="curve" smooth="yes"/>
      <point x="397" y="356" type="line" smooth="yes"/>
      <point x="423" y="356"/>
      <point x="428" y="351"/>
      <point x="428" y="325" type="curve" smooth="yes"/>
      <point x="428" y="149" type="line"/>
      <point x="497" y="149" type="line"/>
      <point x="497" y="325" type="line" smooth="yes"/>
      <point x="497" y="351"/>
      <point x="502" y="356"/>
      <point x="528" y="356" type="curve" smooth="yes"/>
      <point x="623" y="356" type="line"/>
      <point x="623" y="415" type="line"/>
      <point x="511" y="415" type="line" smooth="yes"/>
      <point x="482" y="415"/>
      <point x="467" y="401"/>
      <point x="465" y="378" type="curve"/>
      <point x="463" y="378" type="line"/>
      <point x="461" y="401"/>
      <point x="445" y="415"/>
      <point x="416" y="415" type="curve" smooth="yes"/>
      <point x="344" y="415" type="line" smooth="yes"/>
      <point x="291" y="415"/>
      <point x="265" y="389"/>
    </contour>
    <contour>
      <point x="-20" y="622" type="line"/>
      <point x="-20" y="563" type="line"/>
      <point x="1004" y="563" type="line"/>
      <point x="1004" y="622" type="line"/>
    </contour>
    <contour>
      <point x="860" y="592" type="line"/>
      <point x="860" y="0" type="line"/>
      <point x="929" y="0" type="line"/>
      <point x="929" y="592" type="line"/>
    </contour>
    <contour>
      <point x="771" y="435" type="curve"/>
      <point x="771" y="536" type="line" smooth="yes"/>
      <point x="771" y="564"/>
      <point x="758" y="571"/>
      <point x="736" y="571" type="curve"/>
      <point x="656" y="563" type="line"/>
      <point x="700" y="563"/>
      <point x="702" y="559"/>
      <point x="702" y="531" type="curve" smooth="yes"/>
      <point x="702" y="446" type="line" smooth="yes"/>
      <point x="702" y="420"/>
      <point x="697" y="415"/>
      <point x="671" y="415" type="curve" smooth="yes"/>
      <point x="591" y="415" type="line"/>
      <point x="591" y="157" type="line" smooth="yes"/>
      <point x="591" y="104"/>
      <point x="617" y="78"/>
      <point x="670" y="78" type="curve" smooth="yes"/>
      <point x="828" y="78" type="line" smooth="yes"/>
      <point x="858" y="78"/>
      <point x="871" y="89"/>
      <point x="871" y="125" type="curve"/>
      <point x="860" y="171" type="line"/>
      <point x="860" y="145"/>
      <point x="852" y="137"/>
      <point x="826" y="137" type="curve" smooth="yes"/>
      <point x="691" y="137" type="line" smooth="yes"/>
      <point x="665" y="137"/>
      <point x="660" y="142"/>
      <point x="660" y="168" type="curve" smooth="yes"/>
      <point x="660" y="356" type="line"/>
      <point x="692" y="356" type="line" smooth="yes"/>
      <point x="745" y="356"/>
      <point x="771" y="382"/>
    </contour>
  </outline>
</glyph>
<glyph name="dvB_R" format="1">
  <advance width="278"/>
  <outline>
    <contour>
      <point x="-20" y="622" type="line"/>
      <point x="-20" y="563" type="line"/>
      <point x="296" y="563" type="line"/>
      <point x="296" y="622" type="line"/>
    </contour>
    <contour>
      <point x="119" y="168" type="curve"/>
      <point x="119" y="395" type="line"/>
      <point x="119" y="395"/>
      <point x="134" y="356"/>
      <point x="170" y="288" type="curve" smooth="yes"/>
      <point x="251" y="137" type="line"/>
      <point x="150" y="137" type="line" smooth="yes"/>
      <point x="124" y="137"/>
      <point x="119" y="142"/>
    </contour>
    <contour>
      <point x="50" y="406" type="curve"/>
      <point x="50" y="157" type="line" smooth="yes"/>
      <point x="50" y="104"/>
      <point x="76" y="78"/>
      <point x="129" y="78" type="curve" smooth="yes"/>
      <point x="221" y="78" type="line"/>
      <point x="114" y="-50" type="line"/>
      <point x="195" y="-50" type="line"/>
      <point x="296" y="78" type="line"/>
      <point x="296" y="124" type="line"/>
      <point x="296" y="124"/>
      <point x="246" y="239"/>
      <point x="220" y="286" type="curve" smooth="yes"/>
      <point x="144" y="426" type="line"/>
      <point x="220" y="426" type="line"/>
      <point x="220" y="485" type="line"/>
      <point x="129" y="485" type="line" smooth="yes"/>
      <point x="76" y="485"/>
      <point x="50" y="459"/>
    </contour>
  </outline>
</glyph>
<glyph name="dvB_SHA" format="1">
  <advance width="726"/>
  <outline>
    <contour>
      <point x="442" y="623" type="curve"/>
      <point x="356" y="623" type="line" smooth="yes"/>
      <point x="303" y="623"/>
      <point x="277" y="597"/>
      <point x="277" y="544" type="curve" smooth="yes"/>
      <point x="277" y="449" type="line"/>
      <point x="346" y="449" type="line"/>
      <point x="346" y="533" type="line" smooth="yes"/>
      <point x="346" y="559"/>
      <point x="351" y="564"/>
      <point x="377" y="564" type="curve" smooth="yes"/>
      <point x="421" y="564" type="line" smooth="yes"/>
      <point x="447" y="564"/>
      <point x="452" y="559"/>
      <point x="452" y="533" type="curve" smooth="yes"/>
      <point x="452" y="358" type="line" smooth="yes"/>
      <point x="452" y="332"/>
      <point x="447" y="327"/>
      <point x="421" y="327" type="curve" smooth="yes"/>
      <point x="322" y="327" type="line"/>
      <point x="322" y="268" type="line"/>
      <point x="442" y="268" type="line" smooth="yes"/>
      <point x="495" y="268"/>
      <point x="521" y="294"/>
      <point x="521" y="347" type="curve" smooth="yes"/>
      <point x="521" y="544" type="line" smooth="yes"/>
      <point x="521" y="597"/>
      <point x="495" y="623"/>
    </contour>
    <contour>
      <point x="602" y="622" type="line"/>
      <point x="602" y="0" type="line"/>
      <point x="670" y="0" type="line"/>
      <point x="670" y="563" type="line"/>
      <point x="746" y="563" type="line"/>
      <point x="746" y="622" type="line"/>
    </contour>
    <contour>
      <point x="275" y="374" type="line"/>
      <point x="275" y="325" type="line" smooth="yes"/>
      <point x="275" y="236"/>
      <point x="281" y="190"/>
      <point x="281" y="190" type="curve"/>
      <point x="281" y="190"/>
      <point x="261" y="239"/>
      <point x="235" y="286" type="curve" smooth="yes"/>
      <point x="159" y="426" type="line"/>
      <point x="235" y="426" type="line"/>
      <point x="235" y="485" type="line"/>
      <point x="144" y="485" type="line" smooth="yes"/>
      <point x="91" y="485"/>
      <point x="65" y="459"/>
      <point x="65" y="406" type="curve" smooth="yes"/>
      <point x="65" y="157" type="line" smooth="yes"/>
      <point x="65" y="104"/>
      <point x="91" y="78"/>
      <point x="144" y="78" type="curve" smooth="yes"/>
      <point x="243" y="78" type="line" smooth="yes"/>
      <point x="273" y="78"/>
      <point x="286" y="89"/>
      <point x="286" y="125" type="curve"/>
      <point x="275" y="171" type="line"/>
      <point x="275" y="145"/>
      <point x="267" y="137"/>
      <point x="241" y="137" type="curve" smooth="yes"/>
      <point x="165" y="137" type="line" smooth="yes"/>
      <point x="139" y="137"/>
      <point x="134" y="142"/>
      <point x="134" y="168" type="curve" smooth="yes"/>
      <point x="134" y="395" type="line"/>
      <point x="134" y="395"/>
      <point x="149" y="356"/>
      <point x="185" y="288" type="curve" smooth="yes"/>
      <point x="280" y="110" type="line"/>
      <point x="275" y="98" type="line"/>
      <point x="275" y="79" type="line" smooth="yes"/>
      <point x="275" y="26"/>
      <point x="301" y="0"/>
      <point x="354" y="0" type="curve" smooth="yes"/>
      <point x="440" y="0" type="line" smooth="yes"/>
      <point x="493" y="0"/>
      <point x="519" y="26"/>
      <point x="519" y="79" type="curve" smooth="yes"/>
      <point x="519" y="194" type="line"/>
      <point x="450" y="194" type="line"/>
      <point x="450" y="90" type="line" smooth="yes"/>
      <point x="450" y="64"/>
      <point x="445" y="59"/>
      <point x="419" y="59" type="curve" smooth="yes"/>
      <point x="375" y="59" type="line" smooth="yes"/>
      <point x="349" y="59"/>
      <point x="344" y="64"/>
      <point x="344" y="90" type="curve" smooth="yes"/>
      <point x="344" y="374" type="line"/>
    </contour>
    <contour>
      <point x="-20" y="622" type="line"/>
      <point x="-20" y="563" type="line"/>
      <point x="235" y="563" type="line"/>
      <point x="235" y="622" type="line"/>
    </contour>
  </outline>
</glyph>
<glyph name="dvCA" format="1">
  <advance width="386"/>
  <outline>
    <contour>
      <point x="-20" y="622" type="line"/>
      <point x="-20" y="563" type="line"/>
      <point x="406" y="563" type="line"/>
      <point x="406" y="622" type="line"/>
    </contour>
    <contour>
      <point x="262" y="594" type="line"/>
      <point x="262" y="0" type="line"/>
      <point x="331" y="0" type="line"/>
      <point x="331" y="594" type="line"/>
    </contour>
    <contour>
      <point x="5" y="485" type="line"/>
      <point x="5" y="426" type="line"/>
      <point x="209" y="426" type="line"/>
      <point x="209" y="485" type="line"/>
    </contour>
    <contour>
      <point x="68" y="400" type="curve"/>
      <point x="68" y="157" type="line" smooth="yes"/>
      <point x="68" y="104"/>
      <point x="94" y="78"/>
      <point x="147" y="78" type="curve" smooth="yes"/>
      <point x="230" y="78" type="line" smooth="yes"/>
      <point x="260" y="78"/>
      <point x="273" y="89"/>
      <point x="273" y="125" type="curve"/>
      <point x="262" y="171" type="line"/>
      <point x="262" y="145"/>
      <point x="254" y="137"/>
      <point x="228" y="137" type="curve" smooth="yes"/>
      <point x="168" y="137" type="line" smooth="yes"/>
      <point x="142" y="137"/>
      <point x="137" y="142"/>
      <point x="137" y="168" type="curve" smooth="yes"/>
      <point x="137" y="395" type="line" smooth="yes"/>
      <point x="137" y="429"/>
      <point x="145" y="426"/>
      <point x="198" y="426" type="curve"/>
      <point x="124" y="432" type="line"/>
      <point x="89" y="434"/>
      <point x="68" y="436"/>
    </contour>
  </outline>
</glyph>
<glyph name="dvC" format="1">
  <advance width="207"/>
  <outline>
    <contour>
      <point x="296" y="622" type="line"/>
      <point x="-20" y="622" type="line"/>
      <point x="-20" y="563" type="line"/>
      <point x="296" y="563" type="line"/>
    </contour>
    <contour>
      <point x="209" y="485" type="line"/>
      <point x="5" y="485" type="line"/>
      <point x="5" y="426" type="line"/>
      <point x="103" y="426" type="line"/>
      <point x="103" y="433" type="line"/>
      <point x="81" y="433"/>
      <point x="68" y="428"/>
      <point x="68" y="400" type="curve"/>
      <point x="68" y="157" type="line" smooth="yes"/>
      <point x="68" y="104"/>
      <point x="94" y="78"/>
      <point x="147" y="78" type="curve" smooth="yes"/>
      <point x="296" y="78" type="line"/>
      <point x="296" y="137" type="line"/>
      <point x="168" y="137" type="line" smooth="yes"/>
      <point x="142" y="137"/>
      <point x="137" y="142"/>
      <point x="137" y="168" type="curve" smooth="yes"/>
      <point x="137" y="395" type="line" smooth="yes"/>
      <point x="137" y="421"/>
      <point x="142" y="426"/>
      <point x="168" y="426" type="curve" smooth="yes"/>
      <point x="209" y="426" type="line"/>
    </contour>
  </outline>
</glyph>
<glyph name="dvC_CHA" format="1">
  <advance width="708"/>
  <outline>
    <contour>
      <point x="506" y="-40" type="move" name="blwm.uu"/>
    </contour>
    <contour>
      <point x="537" y="-60" type="move" name="blwm.vr"/>
    </contour>
    <contour>
      <point x="588" y="632" type="move" name="abvm.e"/>
    </contour>
    <contour>
      <point x="588" y="622" type="move" name="abvm.bindu"/>
    </contour>
    <contour>
      <point x="523" y="-20" type="move" name="blwm.virama"/>
    </contour>
    <contour>
      <point x="461" y="-30" type="move" name="blwm.u"/>
    </contour>
    <contour>
      <point x="-20" y="622" type="line"/>
      <point x="-20" y="563" type="line"/>
      <point x="728" y="563" type="line"/>
      <point x="728" y="622" type="line"/>
    </contour>
    <contour>
      <point x="525" y="591" type="line"/>
      <point x="525" y="465" type="line"/>
      <point x="589" y="465" type="line"/>
      <point x="589" y="591" type="line"/>
    </contour>
    <contour>
      <point x="262" y="537" type="curve"/>
      <point x="262" y="355" type="line" smooth="yes"/>
      <point x="262" y="326"/>
      <point x="276" y="310"/>
      <point x="299" y="308" type="curve"/>
      <point x="299" y="306" type="line"/>
      <point x="276" y="304"/>
      <point x="262" y="289"/>
      <point x="262" y="260" type="curve" smooth="yes"/>
      <point x="262" y="79" type="line" smooth="yes"/>
      <point x="262" y="26"/>
      <point x="288" y="0"/>
      <point x="341" y="0" type="curve" smooth="yes"/>
      <point x="581" y="0" type="line" smooth="yes"/>
      <point x="634" y="0"/>
      <point x="660" y="26"/>
      <point x="660" y="79" type="curve" smooth="yes"/>
      <point x="660" y="406" type="line" smooth="yes"/>
      <point x="660" y="459"/>
      <point x="634" y="485"/>
      <point x="581" y="485" type="curve" smooth="yes"/>
      <point x="529" y="485" type="line" smooth="yes"/>
      <point x="476" y="485"/>
      <point x="450" y="459"/>
      <point x="450" y="406" type="curve" smooth="yes"/>
      <point x="450" y="252" type="line" smooth="yes"/>
      <point x="450" y="199"/>
      <point x="476" y="173"/>
      <point x="529" y="173" type="curve" smooth="yes"/>
      <point x="565" y="173" type="line"/>
      <point x="565" y="232" type="line"/>
      <point x="545" y="232" type="line" smooth="yes"/>
      <point x="519" y="232"/>
      <point x="514" y="237"/>
      <point x="514" y="263" type="curve" smooth="yes"/>
      <point x="514" y="395" type="line" smooth="yes"/>
      <point x="514" y="421"/>
      <point x="519" y="426"/>
      <point x="545" y="426" type="curve" smooth="yes"/>
      <point x="565" y="426" type="line" smooth="yes"/>
      <point x="591" y="426"/>
      <point x="596" y="421"/>
      <point x="596" y="395" type="curve" smooth="yes"/>
      <point x="596" y="90" type="line" smooth="yes"/>
      <point x="596" y="64"/>
      <point x="591" y="59"/>
      <point x="565" y="59" type="curve" smooth="yes"/>
      <point x="362" y="59" type="line" smooth="yes"/>
      <point x="336" y="59"/>
      <point x="331" y="64"/>
      <point x="331" y="90" type="curve" smooth="yes"/>
      <point x="331" y="248" type="line" smooth="yes"/>
      <point x="331" y="274"/>
      <point x="336" y="279"/>
      <point x="362" y="279" type="curve" smooth="yes"/>
      <point x="399" y="279" type="line"/>
      <point x="399" y="338" type="line"/>
      <point x="362" y="338" type="line" smooth="yes"/>
      <point x="336" y="338"/>
      <point x="331" y="343"/>
      <point x="331" y="369" type="curve" smooth="yes"/>
      <point x="331" y="532" type="line" smooth="yes"/>
      <point x="331" y="566"/>
      <point x="339" y="564"/>
      <point x="392" y="562" type="curve"/>
      <point x="318" y="569" type="line"/>
      <point x="283" y="571"/>
      <point x="262" y="573"/>
    </contour>
    <contour>
      <point x="5" y="485" type="line"/>
      <point x="5" y="426" type="line"/>
      <point x="103" y="426" type="line"/>
      <point x="103" y="433" type="line"/>
      <point x="81" y="433"/>
      <point x="68" y="428"/>
      <point x="68" y="400" type="curve" smooth="yes"/>
      <point x="68" y="157" type="line" smooth="yes"/>
      <point x="68" y="104"/>
      <point x="94" y="78"/>
      <point x="147" y="78" type="curve" smooth="yes"/>
      <point x="221" y="78" type="line" smooth="yes"/>
      <point x="274" y="78"/>
      <point x="290" y="101"/>
      <point x="290" y="149" type="curve"/>
      <point x="262" y="170" type="line"/>
      <point x="262" y="146"/>
      <point x="254" y="137"/>
      <point x="228" y="137" type="curve" smooth="yes"/>
      <point x="168" y="137" type="line" smooth="yes"/>
      <point x="142" y="137"/>
      <point x="137" y="142"/>
      <point x="137" y="168" type="curve" smooth="yes"/>
      <point x="137" y="395" type="line" smooth="yes"/>
      <point x="137" y="421"/>
      <point x="142" y="426"/>
      <point x="168" y="426" type="curve" smooth="yes"/>
      <point x="209" y="426" type="line"/>
      <point x="209" y="485" type="line"/>
    </contour>
  </outline>
</glyph>
<glyph name="dvC_R" format="1">
  <advance width="246"/>
  <outline>
    <contour>
      <point x="-20" y="622" type="line"/>
      <point x="-20" y="563" type="line"/>
      <point x="266" y="563" type="line"/>
      <point x="266" y="622" type="line"/>
    </contour>
    <contour>
      <point x="5" y="485" type="line"/>
      <point x="5" y="426" type="line"/>
      <point x="209" y="426" type="line"/>
      <point x="209" y="485" type="line"/>
    </contour>
    <contour>
      <point x="68" y="400" type="curve"/>
      <point x="68" y="187" type="line" smooth="yes"/>
      <point x="68" y="134"/>
      <point x="94" y="108"/>
      <point x="147" y="108" type="curve" smooth="yes"/>
      <point x="163" y="108" type="line"/>
      <point x="183" y="108" type="line"/>
      <point x="75" y="-50" type="line"/>
      <point x="151" y="-50" type="line"/>
      <point x="266" y="125" type="line"/>
      <point x="266" y="167" type="line"/>
      <point x="168" y="167" type="line" smooth="yes"/>
      <point x="142" y="167"/>
      <point x="137" y="172"/>
      <point x="137" y="198" type="curve" smooth="yes"/>
      <point x="137" y="395" type="line" smooth="yes"/>
      <point x="137" y="429"/>
      <point x="145" y="426"/>
      <point x="198" y="426" type="curve"/>
      <point x="124" y="432" type="line"/>
      <point x="89" y="434"/>
      <point x="68" y="436"/>
    </contour>
  </outline>
</glyph>
<glyph name="dvDDH_YA" format="1">
  <advance width="778"/>
  <outline>
    <contour>
      <point x="654" y="592" type="line"/>
      <point x="654" y="0" type="line"/>
      <point x="723" y="0" type="line"/>
      <point x="723" y="592" type="line"/>
    </contour>
    <contour>
      <point x="798" y="622" type="line"/>
      <point x="-20" y="622" type="line"/>
      <point x="-20" y="563" type="line"/>
      <point x="798" y="563" type="line"/>
    </contour>
    <contour>
      <point x="665" y="125" type="curve"/>
      <point x="654" y="171" type="line"/>
      <point x="654" y="145"/>
      <point x="646" y="137"/>
      <point x="620" y="137" type="curve" smooth="yes"/>
      <point x="485" y="137" type="line" smooth="yes"/>
      <point x="459" y="137"/>
      <point x="454" y="142"/>
      <point x="454" y="168" type="curve" smooth="yes"/>
      <point x="454" y="260" type="line"/>
      <point x="486" y="260" type="line" smooth="yes"/>
      <point x="539" y="260"/>
      <point x="565" y="286"/>
      <point x="565" y="339" type="curve" smooth="yes"/>
      <point x="565" y="406" type="line" smooth="yes"/>
      <point x="565" y="459"/>
      <point x="539" y="485"/>
      <point x="486" y="485" type="curve" smooth="yes"/>
      <point x="272" y="485" type="line"/>
      <point x="272" y="426" type="line"/>
      <point x="465" y="426" type="line" smooth="yes"/>
      <point x="491" y="426"/>
      <point x="496" y="421"/>
      <point x="496" y="395" type="curve" smooth="yes"/>
      <point x="496" y="350" type="line" smooth="yes"/>
      <point x="496" y="324"/>
      <point x="491" y="319"/>
      <point x="465" y="319" type="curve" smooth="yes"/>
      <point x="385" y="319" type="line"/>
      <point x="385" y="157" type="line" smooth="yes"/>
      <point x="385" y="104"/>
      <point x="411" y="78"/>
      <point x="464" y="78" type="curve" smooth="yes"/>
      <point x="622" y="78" type="line" smooth="yes"/>
      <point x="652" y="78"/>
      <point x="665" y="89"/>
    </contour>
    <contour>
      <point x="213" y="580" type="line"/>
      <point x="213" y="485" type="line"/>
      <point x="134" y="485" type="line" smooth="yes"/>
      <point x="81" y="485"/>
      <point x="55" y="459"/>
      <point x="55" y="406" type="curve" smooth="yes"/>
      <point x="55" y="79" type="line" smooth="yes"/>
      <point x="55" y="26"/>
      <point x="81" y="0"/>
      <point x="134" y="0" type="curve" smooth="yes"/>
      <point x="243" y="0" type="line" smooth="yes"/>
      <point x="296" y="0"/>
      <point x="322" y="26"/>
      <point x="322" y="79" type="curve" smooth="yes"/>
      <point x="322" y="204" type="line" smooth="yes"/>
      <point x="322" y="257"/>
      <point x="296" y="283"/>
      <point x="243" y="283" type="curve" smooth="yes"/>
      <point x="181" y="283" type="line"/>
      <point x="181" y="224" type="line"/>
      <point x="222" y="224" type="line" smooth="yes"/>
      <point x="248" y="224"/>
      <point x="253" y="219"/>
      <point x="253" y="193" type="curve" smooth="yes"/>
      <point x="253" y="90" type="line" smooth="yes"/>
      <point x="253" y="64"/>
      <point x="248" y="59"/>
      <point x="222" y="59" type="curve" smooth="yes"/>
      <point x="155" y="59" type="line" smooth="yes"/>
      <point x="129" y="59"/>
      <point x="124" y="64"/>
      <point x="124" y="90" type="curve" smooth="yes"/>
      <point x="124" y="395" type="line" smooth="yes"/>
      <point x="124" y="421"/>
      <point x="129" y="426"/>
      <point x="155" y="426" type="curve" smooth="yes"/>
      <point x="282" y="426" type="line"/>
      <point x="282" y="580" type="line"/>
    </contour>
  </outline>
</glyph>
<glyph name="dvDD_DDHA" format="1">
  <advance width="369"/>
  <outline>
    <contour>
      <point x="-20" y="622" type="line"/>
      <point x="-20" y="563" type="line"/>
      <point x="389" y="563" type="line"/>
      <point x="389" y="622" type="line"/>
    </contour>
    <contour>
      <point x="252" y="594" type="line"/>
      <point x="252" y="485" type="line"/>
      <point x="129" y="485" type="line" smooth="yes"/>
      <point x="76" y="485"/>
      <point x="50" y="459"/>
      <point x="50" y="406" type="curve" smooth="yes"/>
      <point x="50" y="366" type="line" smooth="yes"/>
      <point x="50" y="313"/>
      <point x="76" y="287"/>
      <point x="129" y="287" type="curve" smooth="yes"/>
      <point x="231" y="287" type="line" smooth="yes"/>
      <point x="257" y="287"/>
      <point x="262" y="282"/>
      <point x="262" y="256" type="curve" smooth="yes"/>
      <point x="262" y="231" type="line" smooth="yes"/>
      <point x="262" y="205"/>
      <point x="257" y="200"/>
      <point x="231" y="200" type="curve" smooth="yes"/>
      <point x="138" y="200" type="line" smooth="yes"/>
      <point x="112" y="200"/>
      <point x="107" y="205"/>
      <point x="107" y="231" type="curve" smooth="yes"/>
      <point x="107" y="256" type="line"/>
      <point x="38" y="256" type="line"/>
      <point x="38" y="216" type="line" smooth="yes"/>
      <point x="38" y="187"/>
      <point x="52" y="171"/>
      <point x="75" y="169" type="curve"/>
      <point x="75" y="167" type="line"/>
      <point x="52" y="165"/>
      <point x="38" y="150"/>
      <point x="38" y="121" type="curve" smooth="yes"/>
      <point x="38" y="-64" type="line" smooth="yes"/>
      <point x="38" y="-117"/>
      <point x="64" y="-143"/>
      <point x="117" y="-143" type="curve" smooth="yes"/>
      <point x="252" y="-143" type="line" smooth="yes"/>
      <point x="305" y="-143"/>
      <point x="331" y="-117"/>
      <point x="331" y="-64" type="curve" smooth="yes"/>
      <point x="331" y="-18" type="line" smooth="yes"/>
      <point x="331" y="35"/>
      <point x="305" y="61"/>
      <point x="252" y="61" type="curve" smooth="yes"/>
      <point x="161" y="61" type="line"/>
      <point x="161" y="2" type="line"/>
      <point x="231" y="2" type="line" smooth="yes"/>
      <point x="257" y="2"/>
      <point x="262" y="-3"/>
      <point x="262" y="-29" type="curve" smooth="yes"/>
      <point x="262" y="-53" type="line" smooth="yes"/>
      <point x="262" y="-79"/>
      <point x="257" y="-84"/>
      <point x="231" y="-84" type="curve" smooth="yes"/>
      <point x="138" y="-84" type="line" smooth="yes"/>
      <point x="112" y="-84"/>
      <point x="107" y="-79"/>
      <point x="107" y="-53" type="curve" smooth="yes"/>
      <point x="107" y="110" type="line" smooth="yes"/>
      <point x="107" y="136"/>
      <point x="112" y="141"/>
      <point x="138" y="141" type="curve" smooth="yes"/>
      <point x="252" y="141" type="line" smooth="yes"/>
      <point x="305" y="141"/>
      <point x="331" y="167"/>
      <point x="331" y="220" type="curve" smooth="yes"/>
      <point x="331" y="267" type="line" smooth="yes"/>
      <point x="331" y="320"/>
      <point x="305" y="346"/>
      <point x="252" y="346" type="curve" smooth="yes"/>
      <point x="150" y="346" type="line" smooth="yes"/>
      <point x="124" y="346"/>
      <point x="119" y="351"/>
      <point x="119" y="377" type="curve" smooth="yes"/>
      <point x="119" y="395" type="line" smooth="yes"/>
      <point x="119" y="421"/>
      <point x="124" y="426"/>
      <point x="150" y="426" type="curve" smooth="yes"/>
      <point x="321" y="426" type="line"/>
      <point x="321" y="594" type="line"/>
    </contour>
  </outline>
</glyph>
<glyph name="dvD_BA" format="1">
  <advance width="379"/>
  <outline>
    <contour>
      <point x="333" y="-10" type="move" name="blwm.uu"/>
    </contour>
    <contour>
      <point x="331" y="-20" type="move" name="blwm.vr"/>
    </contour>
    <contour>
      <point x="326" y="632" type="move" name="abvm.e"/>
    </contour>
    <contour>
      <point x="326" y="622" type="move" name="abvm.bindu"/>
    </contour>
    <contour>
      <point x="338" y="-20" type="move" name="blwm.virama"/>
    </contour>
    <contour>
      <point x="372" y="0" type="move" name="blwm.u"/>
    </contour>
    <contour>
      <point x="55" y="406" type="curve"/>
      <point x="55" y="282" type="line" smooth="yes"/>
      <point x="55" y="253"/>
      <point x="69" y="237"/>
      <point x="92" y="235" type="curve"/>
      <point x="92" y="233" type="line"/>
      <point x="69" y="231"/>
      <point x="55" y="216"/>
      <point x="55" y="187" type="curve" smooth="yes"/>
      <point x="55" y="77" type="line" smooth="yes"/>
      <point x="55" y="30"/>
      <point x="80" y="0"/>
      <point x="133" y="0" type="curve" smooth="yes"/>
      <point x="232" y="0" type="line" smooth="yes"/>
      <point x="245" y="0"/>
      <point x="254" y="2"/>
      <point x="260" y="8" type="curve"/>
      <point x="260" y="-57" type="line"/>
      <point x="329" y="-57" type="line"/>
      <point x="329" y="339" type="line"/>
      <point x="260" y="339" type="line"/>
      <point x="260" y="291" type="line" smooth="yes"/>
      <point x="260" y="270"/>
      <point x="255" y="265"/>
      <point x="229" y="265" type="curve" smooth="yes"/>
      <point x="155" y="265" type="line" smooth="yes"/>
      <point x="129" y="265"/>
      <point x="124" y="270"/>
      <point x="124" y="296" type="curve" smooth="yes"/>
      <point x="124" y="395" type="line" smooth="yes"/>
      <point x="124" y="421"/>
      <point x="129" y="426"/>
      <point x="155" y="426" type="curve" smooth="yes"/>
      <point x="313" y="426" type="line"/>
      <point x="313" y="594" type="line"/>
      <point x="244" y="594" type="line"/>
      <point x="244" y="485" type="line"/>
      <point x="134" y="485" type="line" smooth="yes"/>
      <point x="81" y="485"/>
      <point x="55" y="459"/>
    </contour>
    <contour>
      <point x="155" y="206" type="curve"/>
      <point x="224" y="206" type="line" smooth="yes"/>
      <point x="238" y="206"/>
      <point x="250" y="208"/>
      <point x="260" y="211" type="curve"/>
      <point x="260" y="90" type="line" smooth="yes"/>
      <point x="260" y="66"/>
      <point x="253" y="59"/>
      <point x="230" y="59" type="curve" smooth="yes"/>
      <point x="152" y="59" type="line" smooth="yes"/>
      <point x="129" y="59"/>
      <point x="124" y="64"/>
      <point x="124" y="87" type="curve" smooth="yes"/>
      <point x="124" y="175" type="line" smooth="yes"/>
      <point x="124" y="201"/>
      <point x="129" y="206"/>
    </contour>
    <contour>
      <point x="-10" y="622" type="line"/>
      <point x="-10" y="563" type="line"/>
      <point x="389" y="563" type="line"/>
      <point x="389" y="622" type="line"/>
    </contour>
    <contour>
      <point x="91" y="210" type="line"/>
      <point x="252" y="41" type="line"/>
      <point x="296" y="41" type="line"/>
      <point x="135" y="210" type="line"/>
    </contour>
  </outline>
</glyph>
<glyph name="dvD_BHA" format="1">
  <advance width="476"/>
  <outline>
    <contour>
      <point x="430" y="-10" type="move" name="blwm.uu"/>
    </contour>
    <contour>
      <point x="428" y="-20" type="move" name="blwm.vr"/>
    </contour>
    <contour>
      <point x="423" y="632" type="move" name="abvm.e"/>
    </contour>
    <contour>
      <point x="423" y="622" type="move" name="abvm.bindu"/>
    </contour>
    <contour>
      <point x="435" y="-20" type="move" name="blwm.virama"/>
    </contour>
    <contour>
      <point x="469" y="0" type="move" name="blwm.u"/>
    </contour>
    <contour>
      <point x="-20" y="622" type="line"/>
      <point x="-20" y="563" type="line"/>
      <point x="496" y="563" type="line"/>
      <point x="496" y="622" type="line"/>
    </contour>
    <contour>
      <point x="352" y="580" type="line"/>
      <point x="352" y="455" type="line"/>
      <point x="263" y="455" type="line" smooth="yes"/>
      <point x="210" y="455"/>
      <point x="184" y="429"/>
      <point x="184" y="376" type="curve" smooth="yes"/>
      <point x="184" y="190" type="line" smooth="yes"/>
      <point x="184" y="137"/>
      <point x="210" y="111"/>
      <point x="263" y="111" type="curve" smooth="yes"/>
      <point x="327" y="111" type="line" smooth="yes"/>
      <point x="357" y="111"/>
      <point x="370" y="122"/>
      <point x="370" y="158" type="curve"/>
      <point x="359" y="204" type="line"/>
      <point x="359" y="178"/>
      <point x="351" y="170"/>
      <point x="325" y="170" type="curve" smooth="yes"/>
      <point x="284" y="170" type="line" smooth="yes"/>
      <point x="258" y="170"/>
      <point x="253" y="175"/>
      <point x="253" y="201" type="curve" smooth="yes"/>
      <point x="253" y="365" type="line" smooth="yes"/>
      <point x="253" y="391"/>
      <point x="258" y="396"/>
      <point x="284" y="396" type="curve" smooth="yes"/>
      <point x="421" y="396" type="line"/>
      <point x="421" y="580" type="line"/>
    </contour>
    <contour>
      <point x="359" y="286" type="line"/>
      <point x="359" y="0" type="line"/>
      <point x="428" y="0" type="line"/>
      <point x="428" y="286" type="line"/>
    </contour>
    <contour>
      <point x="126" y="-77" type="line"/>
      <point x="126" y="175" type="line" smooth="yes"/>
      <point x="126" y="228"/>
      <point x="100" y="254"/>
      <point x="47" y="254" type="curve" smooth="yes"/>
      <point x="17" y="254" type="line"/>
      <point x="17" y="195" type="line"/>
      <point x="26" y="195" type="line" smooth="yes"/>
      <point x="52" y="195"/>
      <point x="57" y="190"/>
      <point x="57" y="164" type="curve" smooth="yes"/>
      <point x="57" y="-77" type="line"/>
    </contour>
    <contour>
      <point x="109" y="0" type="line"/>
      <point x="295" y="0" type="line"/>
      <point x="295" y="59" type="line"/>
      <point x="109" y="59" type="line"/>
    </contour>
  </outline>
</glyph>
<glyph name="dvD_GHA" format="1">
  <advance width="540"/>
  <outline>
    <contour>
      <point x="494" y="-10" type="move" name="blwm.uu"/>
    </contour>
    <contour>
      <point x="492" y="-20" type="move" name="blwm.vr"/>
    </contour>
    <contour>
      <point x="487" y="632" type="move" name="abvm.e"/>
    </contour>
    <contour>
      <point x="487" y="622" type="move" name="abvm.bindu"/>
    </contour>
    <contour>
      <point x="499" y="-20" type="move" name="blwm.virama"/>
    </contour>
    <contour>
      <point x="533" y="0" type="move" name="blwm.u"/>
    </contour>
    <contour>
      <point x="359" y="19" type="line"/>
      <point x="155" y="19" type="line" smooth="yes"/>
      <point x="129" y="19"/>
      <point x="124" y="24"/>
      <point x="124" y="50" type="curve" smooth="yes"/>
      <point x="124" y="96" type="line" smooth="yes"/>
      <point x="124" y="122"/>
      <point x="129" y="127"/>
      <point x="155" y="127" type="curve" smooth="yes"/>
      <point x="191" y="127" type="line"/>
      <point x="191" y="186" type="line"/>
      <point x="155" y="186" type="line" smooth="yes"/>
      <point x="129" y="186"/>
      <point x="124" y="191"/>
      <point x="124" y="217" type="curve" smooth="yes"/>
      <point x="124" y="265" type="line" smooth="yes"/>
      <point x="124" y="291"/>
      <point x="129" y="296"/>
      <point x="155" y="296" type="curve" smooth="yes"/>
      <point x="271" y="296" type="line"/>
      <point x="271" y="355" type="line"/>
      <point x="134" y="355" type="line" smooth="yes"/>
      <point x="81" y="355"/>
      <point x="55" y="329"/>
      <point x="55" y="276" type="curve" smooth="yes"/>
      <point x="55" y="203" type="line" smooth="yes"/>
      <point x="55" y="174"/>
      <point x="69" y="158"/>
      <point x="92" y="156" type="curve"/>
      <point x="92" y="154" type="line"/>
      <point x="69" y="152"/>
      <point x="55" y="137"/>
      <point x="55" y="108" type="curve" smooth="yes"/>
      <point x="55" y="39" type="line" smooth="yes"/>
      <point x="55" y="-14"/>
      <point x="81" y="-40"/>
      <point x="134" y="-40" type="curve" smooth="yes"/>
      <point x="359" y="-40" type="line"/>
    </contour>
    <contour>
      <point x="-20" y="622" type="line"/>
      <point x="-20" y="563" type="line"/>
      <point x="560" y="563" type="line"/>
      <point x="560" y="622" type="line"/>
    </contour>
    <contour>
      <point x="416" y="580" type="line"/>
      <point x="416" y="455" type="line"/>
      <point x="327" y="455" type="line" smooth="yes"/>
      <point x="274" y="455"/>
      <point x="248" y="429"/>
      <point x="248" y="376" type="curve" smooth="yes"/>
      <point x="248" y="150" type="line" smooth="yes"/>
      <point x="248" y="97"/>
      <point x="274" y="71"/>
      <point x="327" y="71" type="curve" smooth="yes"/>
      <point x="391" y="71" type="line" smooth="yes"/>
      <point x="421" y="71"/>
      <point x="434" y="82"/>
      <point x="434" y="118" type="curve"/>
      <point x="423" y="164" type="line"/>
      <point x="423" y="138"/>
      <point x="415" y="130"/>
      <point x="389" y="130" type="curve" smooth="yes"/>
      <point x="348" y="130" type="line" smooth="yes"/>
      <point x="322" y="130"/>
      <point x="317" y="135"/>
      <point x="317" y="161" type="curve" smooth="yes"/>
      <point x="317" y="365" type="line" smooth="yes"/>
      <point x="317" y="391"/>
      <point x="322" y="396"/>
      <point x="348" y="396" type="curve" smooth="yes"/>
      <point x="485" y="396" type="line"/>
      <point x="485" y="580" type="line"/>
    </contour>
    <contour>
      <point x="423" y="257" type="line"/>
      <point x="423" y="-40" type="line"/>
      <point x="492" y="-40" type="line"/>
      <point x="492" y="257" type="line"/>
    </contour>
  </outline>
</glyph>
<glyph name="dvEyelash" format="1">
  <advance width="289"/>
  <outline>
    <contour>
      <point x="309" y="374" type="line"/>
      <point x="205" y="374" type="line" smooth="yes"/>
      <point x="179" y="374"/>
      <point x="174" y="379"/>
      <point x="174" y="405" type="curve" smooth="yes"/>
      <point x="174" y="467" type="line"/>
      <point x="105" y="467" type="line"/>
      <point x="105" y="394" type="line" smooth="yes"/>
      <point x="105" y="341"/>
      <point x="131" y="315"/>
      <point x="184" y="315" type="curve" smooth="yes"/>
      <point x="309" y="315" type="line"/>
    </contour>
    <contour>
      <point x="-20" y="622" type="line"/>
      <point x="-20" y="563" type="line"/>
      <point x="309" y="563" type="line"/>
      <point x="309" y="622" type="line"/>
    </contour>
  </outline>
</glyph>
<glyph name="dvEyelash_HA" format="1">
  <advance width="507"/>
  <outline>
    <contour>
      <point x="346" y="-40" type="move" name="blwm.uu"/>
    </contour>
    <contour>
      <point x="391" y="-60" type="move" name="blwm.vr"/>
    </contour>
    <contour>
      <point x="462" y="632" type="move" name="abvm.e"/>
    </contour>
    <contour>
      <point x="462" y="622" type="move" name="abvm.bindu"/>
    </contour>
    <contour>
      <point x="370" y="-20" type="move" name="blwm.virama"/>
    </contour>
    <contour>
      <point x="315" y="-30" type="move" name="blwm.u"/>
    </contour>
    <contour>
      <point x="-20" y="622" type="line"/>
      <point x="-20" y="563" type="line"/>
      <point x="537" y="563" type="line"/>
      <point x="537" y="622" type="line"/>
    </contour>
    <contour>
      <point x="25" y="437" type="line"/>
      <point x="25" y="364" type="line" smooth="yes"/>
      <point x="25" y="311"/>
      <point x="51" y="285"/>
      <point x="104" y="285" type="curve" smooth="yes"/>
      <point x="236" y="285" type="line"/>
      <point x="236" y="283" type="line"/>
      <point x="213" y="281"/>
      <point x="199" y="266"/>
      <point x="199" y="237" type="curve" smooth="yes"/>
      <point x="199" y="79" type="line" smooth="yes"/>
      <point x="199" y="26"/>
      <point x="225" y="0"/>
      <point x="278" y="0" type="curve" smooth="yes"/>
      <point x="462" y="0" type="line"/>
      <point x="462" y="59" type="line"/>
      <point x="299" y="59" type="line" smooth="yes"/>
      <point x="273" y="59"/>
      <point x="268" y="64"/>
      <point x="268" y="90" type="curve" smooth="yes"/>
      <point x="268" y="225" type="line" smooth="yes"/>
      <point x="268" y="251"/>
      <point x="273" y="256"/>
      <point x="299" y="256" type="curve" smooth="yes"/>
      <point x="362" y="256" type="line" smooth="yes"/>
      <point x="388" y="256"/>
      <point x="393" y="251"/>
      <point x="393" y="225" type="curve" smooth="yes"/>
      <point x="393" y="174" type="line"/>
      <point x="462" y="174" type="line"/>
      <point x="462" y="236" type="line" smooth="yes"/>
      <point x="462" y="289"/>
      <point x="436" y="315"/>
      <point x="383" y="315" type="curve" smooth="yes"/>
      <point x="299" y="315" type="line" smooth="yes"/>
      <point x="273" y="315"/>
      <point x="268" y="320"/>
      <point x="268" y="346" type="curve" smooth="yes"/>
      <point x="268" y="395" type="line" smooth="yes"/>
      <point x="268" y="421"/>
      <point x="273" y="426"/>
      <point x="299" y="426" type="curve" smooth="yes"/>
      <point x="452" y="426" type="line"/>
      <point x="452" y="580" type="line"/>
      <point x="383" y="580" type="line"/>
      <point x="383" y="485" type="line"/>
      <point x="278" y="485" type="line" smooth="yes"/>
      <point x="225" y="485"/>
      <point x="199" y="459"/>
      <point x="199" y="406" type="curve" smooth="yes"/>
      <point x="199" y="299" type="line"/>
      <point x="244" y="344" type="line"/>
      <point x="125" y="344" type="line" smooth="yes"/>
      <point x="99" y="344"/>
      <point x="94" y="349"/>
      <point x="94" y="375" type="curve" smooth="yes"/>
      <point x="94" y="437" type="line"/>
    </contour>
  </outline>
</glyph>
<glyph name="dvGH" format="1">
  <advance width="237"/>
  <outline>
    <contour>
      <point x="324" y="622" type="line"/>
      <point x="-20" y="622" type="line"/>
      <point x="-20" y="563" type="line"/>
      <point x="83" y="563" type="line"/>
      <point x="83" y="570" type="line"/>
      <point x="61" y="570"/>
      <point x="48" y="565"/>
      <point x="48" y="537" type="curve"/>
      <point x="48" y="396" type="line"/>
      <point x="48" y="367"/>
      <point x="62" y="351"/>
      <point x="85" y="349" type="curve"/>
      <point x="85" y="347" type="line"/>
      <point x="62" y="345"/>
      <point x="48" y="330"/>
      <point x="48" y="301" type="curve" smooth="yes"/>
      <point x="48" y="157" type="line" smooth="yes"/>
      <point x="48" y="104"/>
      <point x="74" y="78"/>
      <point x="127" y="78" type="curve" smooth="yes"/>
      <point x="324" y="78" type="line"/>
      <point x="324" y="137" type="line"/>
      <point x="148" y="137" type="line" smooth="yes"/>
      <point x="122" y="137"/>
      <point x="117" y="142"/>
      <point x="117" y="168" type="curve" smooth="yes"/>
      <point x="117" y="289" type="line" smooth="yes"/>
      <point x="117" y="315"/>
      <point x="122" y="320"/>
      <point x="148" y="320" type="curve" smooth="yes"/>
      <point x="216" y="320" type="line"/>
      <point x="216" y="379" type="line"/>
      <point x="148" y="379" type="line" smooth="yes"/>
      <point x="122" y="379"/>
      <point x="117" y="384"/>
      <point x="117" y="410" type="curve" smooth="yes"/>
      <point x="117" y="532" type="line" smooth="yes"/>
      <point x="117" y="558"/>
      <point x="122" y="563"/>
      <point x="148" y="563" type="curve" smooth="yes"/>
      <point x="324" y="563" type="line"/>
    </contour>
  </outline>
</glyph>
<glyph name="dvGH_MA" format="1">
  <advance width="759"/>
  <outline>
    <contour>
      <point x="48" y="537" type="curve"/>
      <point x="48" y="396" type="line"/>
      <point x="48" y="367"/>
      <point x="62" y="351"/>
      <point x="85" y="349" type="curve"/>
      <point x="85" y="347" type="line"/>
      <point x="62" y="345"/>
      <point x="48" y="330"/>
      <point x="48" y="301" type="curve" smooth="yes"/>
      <point x="48" y="157" type="line" smooth="yes"/>
      <point x="48" y="104"/>
      <point x="74" y="78"/>
      <point x="127" y="78" type="curve" smooth="yes"/>
      <point x="246" y="78" type="line" smooth="yes"/>
      <point x="299" y="78"/>
      <point x="315" y="101"/>
      <point x="315" y="149" type="curve" smooth="yes"/>
      <point x="276" y="170" type="line"/>
      <point x="276" y="146"/>
      <point x="268" y="137"/>
      <point x="242" y="137" type="curve" smooth="yes"/>
      <point x="148" y="137" type="line" smooth="yes"/>
      <point x="122" y="137"/>
      <point x="117" y="142"/>
      <point x="117" y="168" type="curve" smooth="yes"/>
      <point x="117" y="289" type="line" smooth="yes"/>
      <point x="117" y="315"/>
      <point x="122" y="320"/>
      <point x="148" y="320" type="curve" smooth="yes"/>
      <point x="216" y="320" type="line"/>
      <point x="216" y="379" type="line"/>
      <point x="148" y="379" type="line" smooth="yes"/>
      <point x="122" y="379"/>
      <point x="117" y="384"/>
      <point x="117" y="410" type="curve" smooth="yes"/>
      <point x="117" y="532" type="line" smooth="yes"/>
      <point x="117" y="558"/>
      <point x="122" y="563"/>
      <point x="148" y="563" type="curve" smooth="yes"/>
      <point x="779" y="563" type="line"/>
      <point x="779" y="622" type="line"/>
      <point x="-20" y="622" type="line"/>
      <point x="-20" y="563" type="line"/>
      <point x="83" y="563" type="line"/>
      <point x="83" y="570" type="line"/>
      <point x="61" y="570"/>
      <point x="48" y="565"/>
    </contour>
    <contour>
      <point x="454" y="574" type="line"/>
      <point x="454" y="168" type="line" smooth="yes"/>
      <point x="454" y="142"/>
      <point x="449" y="137"/>
      <point x="423" y="137" type="curve" smooth="yes"/>
      <point x="376" y="137" type="line" smooth="yes"/>
      <point x="350" y="137"/>
      <point x="345" y="142"/>
      <point x="345" y="168" type="curve" smooth="yes"/>
      <point x="345" y="342" type="line" smooth="yes"/>
      <point x="345" y="368"/>
      <point x="350" y="373"/>
      <point x="376" y="373" type="curve" smooth="yes"/>
      <point x="657" y="373" type="line"/>
      <point x="657" y="432" type="line"/>
      <point x="355" y="432" type="line" smooth="yes"/>
      <point x="302" y="432"/>
      <point x="276" y="406"/>
      <point x="276" y="353" type="curve" smooth="yes"/>
      <point x="276" y="157" type="line" smooth="yes"/>
      <point x="276" y="104"/>
      <point x="302" y="78"/>
      <point x="355" y="78" type="curve" smooth="yes"/>
      <point x="444" y="78" type="line" smooth="yes"/>
      <point x="497" y="78"/>
      <point x="523" y="104"/>
      <point x="523" y="157" type="curve" smooth="yes"/>
      <point x="523" y="574" type="line"/>
    </contour>
    <contour>
      <point x="636" y="597" type="line"/>
      <point x="636" y="0" type="line"/>
      <point x="705" y="0" type="line"/>
      <point x="705" y="597" type="line"/>
    </contour>
  </outline>
</glyph>
<glyph name="dvGH_YA" format="1">
  <advance width="649"/>
  <outline>
    <contour>
      <point x="48" y="537" type="curve"/>
      <point x="48" y="396" type="line"/>
      <point x="48" y="367"/>
      <point x="62" y="351"/>
      <point x="85" y="349" type="curve"/>
      <point x="85" y="347" type="line"/>
      <point x="62" y="345"/>
      <point x="48" y="330"/>
      <point x="48" y="301" type="curve" smooth="yes"/>
      <point x="48" y="157" type="line" smooth="yes"/>
      <point x="48" y="104"/>
      <point x="74" y="78"/>
      <point x="127" y="78" type="curve" smooth="yes"/>
      <point x="246" y="78" type="line" smooth="yes"/>
      <point x="299" y="78"/>
      <point x="315" y="101"/>
      <point x="315" y="149" type="curve" smooth="yes"/>
      <point x="276" y="170" type="line"/>
      <point x="276" y="146"/>
      <point x="268" y="137"/>
      <point x="242" y="137" type="curve" smooth="yes"/>
      <point x="148" y="137" type="line" smooth="yes"/>
      <point x="122" y="137"/>
      <point x="117" y="142"/>
      <point x="117" y="168" type="curve" smooth="yes"/>
      <point x="117" y="289" type="line" smooth="yes"/>
      <point x="117" y="315"/>
      <point x="122" y="320"/>
      <point x="148" y="320" type="curve" smooth="yes"/>
      <point x="216" y="320" type="line"/>
      <point x="216" y="379" type="line"/>
      <point x="148" y="379" type="line" smooth="yes"/>
      <point x="122" y="379"/>
      <point x="117" y="384"/>
      <point x="117" y="410" type="curve" smooth="yes"/>
      <point x="117" y="532" type="line" smooth="yes"/>
      <point x="117" y="558"/>
      <point x="122" y="563"/>
      <point x="148" y="563" type="curve" smooth="yes"/>
      <point x="669" y="563" type="line"/>
      <point x="669" y="622" type="line"/>
      <point x="-20" y="622" type="line"/>
      <point x="-20" y="563" type="line"/>
      <point x="83" y="563" type="line"/>
      <point x="83" y="570" type="line"/>
      <point x="61" y="570"/>
      <point x="48" y="565"/>
    </contour>
    <contour>
      <point x="545" y="592" type="line"/>
      <point x="545" y="0" type="line"/>
      <point x="614" y="0" type="line"/>
      <point x="614" y="592" type="line"/>
    </contour>
    <contour>
      <point x="456" y="394" type="curve"/>
      <point x="456" y="536" type="line" smooth="yes"/>
      <point x="456" y="564"/>
      <point x="443" y="571"/>
      <point x="421" y="571" type="curve"/>
      <point x="341" y="563" type="line"/>
      <point x="385" y="563"/>
      <point x="387" y="559"/>
      <point x="387" y="531" type="curve" smooth="yes"/>
      <point x="387" y="405" type="line" smooth="yes"/>
      <point x="387" y="379"/>
      <point x="382" y="374"/>
      <point x="356" y="374" type="curve" smooth="yes"/>
      <point x="276" y="374" type="line"/>
      <point x="276" y="157" type="line" smooth="yes"/>
      <point x="276" y="104"/>
      <point x="302" y="78"/>
      <point x="355" y="78" type="curve" smooth="yes"/>
      <point x="513" y="78" type="line" smooth="yes"/>
      <point x="543" y="78"/>
      <point x="556" y="89"/>
      <point x="556" y="125" type="curve"/>
      <point x="545" y="171" type="line"/>
      <point x="545" y="145"/>
      <point x="537" y="137"/>
      <point x="511" y="137" type="curve" smooth="yes"/>
      <point x="376" y="137" type="line" smooth="yes"/>
      <point x="350" y="137"/>
      <point x="345" y="142"/>
      <point x="345" y="168" type="curve" smooth="yes"/>
      <point x="345" y="315" type="line"/>
      <point x="377" y="315" type="line" smooth="yes"/>
      <point x="430" y="315"/>
      <point x="456" y="341"/>
    </contour>
  </outline>
</glyph>
<glyph name="dvH" format="1">
  <advance width="334"/>
  <outline>
    <contour>
      <point x="419" y="622" type="line"/>
      <point x="-20" y="622" type="line"/>
      <point x="-20" y="563" type="line"/>
      <point x="419" y="563" type="line"/>
    </contour>
    <contour>
      <point x="308" y="580" type="line"/>
      <point x="239" y="580" type="line"/>
      <point x="239" y="485" type="line"/>
      <point x="134" y="485" type="line" smooth="yes"/>
      <point x="81" y="485"/>
      <point x="55" y="459"/>
      <point x="55" y="406" type="curve" smooth="yes"/>
      <point x="55" y="332" type="line" smooth="yes"/>
      <point x="55" y="303"/>
      <point x="69" y="287"/>
      <point x="92" y="285" type="curve"/>
      <point x="92" y="283" type="line"/>
      <point x="69" y="281"/>
      <point x="55" y="266"/>
      <point x="55" y="237" type="curve" smooth="yes"/>
      <point x="55" y="79" type="line" smooth="yes"/>
      <point x="55" y="26"/>
      <point x="81" y="0"/>
      <point x="134" y="0" type="curve" smooth="yes"/>
      <point x="318" y="0" type="line"/>
      <point x="318" y="59" type="line"/>
      <point x="155" y="59" type="line" smooth="yes"/>
      <point x="129" y="59"/>
      <point x="124" y="64"/>
      <point x="124" y="90" type="curve" smooth="yes"/>
      <point x="124" y="225" type="line" smooth="yes"/>
      <point x="124" y="251"/>
      <point x="129" y="256"/>
      <point x="155" y="256" type="curve" smooth="yes"/>
      <point x="419" y="256" type="line"/>
      <point x="419" y="315" type="line"/>
      <point x="155" y="315" type="line" smooth="yes"/>
      <point x="129" y="315"/>
      <point x="124" y="320"/>
      <point x="124" y="346" type="curve" smooth="yes"/>
      <point x="124" y="395" type="line" smooth="yes"/>
      <point x="124" y="421"/>
      <point x="129" y="426"/>
      <point x="155" y="426" type="curve" smooth="yes"/>
      <point x="308" y="426" type="line"/>
    </contour>
  </outline>
</glyph>
<glyph name="dvH_NA" format="1">
  <advance width="399"/>
  <outline>
    <contour>
      <point x="-20" y="622" type="line"/>
      <point x="-20" y="563" type="line"/>
      <point x="419" y="563" type="line"/>
      <point x="419" y="622" type="line"/>
    </contour>
    <contour>
      <point x="239" y="580" type="line"/>
      <point x="239" y="485" type="line"/>
      <point x="134" y="485" type="line" smooth="yes"/>
      <point x="81" y="485"/>
      <point x="55" y="459"/>
      <point x="55" y="406" type="curve" smooth="yes"/>
      <point x="55" y="362" type="line" smooth="yes"/>
      <point x="55" y="333"/>
      <point x="69" y="317"/>
      <point x="92" y="315" type="curve"/>
      <point x="92" y="313" type="line"/>
      <point x="69" y="311"/>
      <point x="55" y="296"/>
      <point x="55" y="267" type="curve" smooth="yes"/>
      <point x="55" y="79" type="line" smooth="yes"/>
      <point x="55" y="26"/>
      <point x="81" y="0"/>
      <point x="134" y="0" type="curve" smooth="yes"/>
      <point x="318" y="0" type="line"/>
      <point x="318" y="59" type="line"/>
      <point x="155" y="59" type="line" smooth="yes"/>
      <point x="129" y="59"/>
      <point x="124" y="64"/>
      <point x="124" y="90" type="curve" smooth="yes"/>
      <point x="124" y="255" type="line" smooth="yes"/>
      <point x="124" y="281"/>
      <point x="129" y="286"/>
      <point x="155" y="286" type="curve" smooth="yes"/>
      <point x="278" y="286" type="line" smooth="yes"/>
      <point x="304" y="286"/>
      <point x="311" y="281"/>
      <point x="311" y="255" type="curve" smooth="yes"/>
      <point x="311" y="108" type="line"/>
      <point x="372" y="108" type="line"/>
      <point x="372" y="266" type="line" smooth="yes"/>
      <point x="372" y="319"/>
      <point x="346" y="345"/>
      <point x="293" y="345" type="curve" smooth="yes"/>
      <point x="155" y="345" type="line" smooth="yes"/>
      <point x="129" y="345"/>
      <point x="124" y="350"/>
      <point x="124" y="376" type="curve" smooth="yes"/>
      <point x="124" y="395" type="line" smooth="yes"/>
      <point x="124" y="421"/>
      <point x="129" y="426"/>
      <point x="155" y="426" type="curve" smooth="yes"/>
      <point x="308" y="426" type="line"/>
      <point x="308" y="580" type="line"/>
    </contour>
    <contour>
      <point x="258" y="180" type="curve"/>
      <point x="342" y="180" type="line"/>
      <point x="342" y="236" type="line"/>
      <point x="237" y="236" type="line" smooth="yes"/>
      <point x="184" y="236"/>
      <point x="163" y="210"/>
      <point x="163" y="157" type="curve" smooth="yes"/>
      <point x="163" y="129" type="line"/>
      <point x="227" y="129" type="line"/>
      <point x="227" y="149" type="line" smooth="yes"/>
      <point x="227" y="175"/>
      <point x="232" y="180"/>
    </contour>
  </outline>
</glyph>
<glyph name="dvH_VA" format="1">
  <advance width="446"/>
  <outline>
    <contour>
      <point x="-20" y="622" type="line"/>
      <point x="-20" y="563" type="line"/>
      <point x="475" y="563" type="line"/>
      <point x="475" y="622" type="line"/>
    </contour>
    <contour>
      <point x="239" y="580" type="line"/>
      <point x="239" y="485" type="line"/>
      <point x="134" y="485" type="line" smooth="yes"/>
      <point x="81" y="485"/>
      <point x="55" y="459"/>
      <point x="55" y="406" type="curve" smooth="yes"/>
      <point x="55" y="332" type="line" smooth="yes"/>
      <point x="55" y="303"/>
      <point x="69" y="287"/>
      <point x="92" y="285" type="curve"/>
      <point x="92" y="283" type="line"/>
      <point x="69" y="281"/>
      <point x="55" y="266"/>
      <point x="55" y="237" type="curve" smooth="yes"/>
      <point x="55" y="-11" type="line" smooth="yes"/>
      <point x="55" y="-64"/>
      <point x="81" y="-90"/>
      <point x="134" y="-90" type="curve" smooth="yes"/>
      <point x="318" y="-90" type="line"/>
      <point x="318" y="-31" type="line"/>
      <point x="155" y="-31" type="line" smooth="yes"/>
      <point x="129" y="-31"/>
      <point x="124" y="-26"/>
      <point x="124" y="0" type="curve" smooth="yes"/>
      <point x="124" y="225" type="line" smooth="yes"/>
      <point x="124" y="251"/>
      <point x="129" y="256"/>
      <point x="155" y="256" type="curve" smooth="yes"/>
      <point x="313" y="256" type="line" smooth="yes"/>
      <point x="339" y="256"/>
      <point x="344" y="251"/>
      <point x="344" y="225" type="curve" smooth="yes"/>
      <point x="344" y="-6" type="line"/>
      <point x="409" y="-6" type="line"/>
      <point x="409" y="236" type="line" smooth="yes"/>
      <point x="409" y="289"/>
      <point x="383" y="315"/>
      <point x="330" y="315" type="curve" smooth="yes"/>
      <point x="155" y="315" type="line" smooth="yes"/>
      <point x="129" y="315"/>
      <point x="124" y="320"/>
      <point x="124" y="346" type="curve" smooth="yes"/>
      <point x="124" y="395" type="line" smooth="yes"/>
      <point x="124" y="421"/>
      <point x="129" y="426"/>
      <point x="155" y="426" type="curve" smooth="yes"/>
      <point x="308" y="426" type="line"/>
      <point x="308" y="580" type="line"/>
    </contour>
    <contour>
      <point x="296" y="199" type="line"/>
      <point x="236" y="199" type="line" smooth="yes"/>
      <point x="191" y="199"/>
      <point x="170" y="178"/>
      <point x="170" y="135" type="curve" smooth="yes"/>
      <point x="170" y="99" type="line" smooth="yes"/>
      <point x="170" y="54"/>
      <point x="191" y="33"/>
      <point x="236" y="33" type="curve" smooth="yes"/>
      <point x="312" y="33" type="line" smooth="yes"/>
      <point x="342" y="33"/>
      <point x="355" y="44"/>
      <point x="355" y="80" type="curve"/>
      <point x="344" y="118" type="line"/>
      <point x="344" y="92"/>
      <point x="336" y="84"/>
      <point x="310" y="84" type="curve" smooth="yes"/>
      <point x="253" y="84" type="line" smooth="yes"/>
      <point x="231" y="84"/>
      <point x="227" y="88"/>
      <point x="227" y="110" type="curve" smooth="yes"/>
      <point x="227" y="125" type="line" smooth="yes"/>
      <point x="227" y="147"/>
      <point x="231" y="151"/>
      <point x="253" y="151" type="curve" smooth="yes"/>
      <point x="296" y="151" type="line"/>
    </contour>
  </outline>
</glyph>
<glyph name="dvH_YA" format="1">
  <advance width="543"/>
  <outline>
    <contour>
      <point x="239" y="580" type="line"/>
      <point x="239" y="485" type="line"/>
      <point x="134" y="485" type="line" smooth="yes"/>
      <point x="81" y="485"/>
      <point x="55" y="459"/>
      <point x="55" y="406" type="curve" smooth="yes"/>
      <point x="55" y="348" type="line" smooth="yes"/>
      <point x="55" y="319"/>
      <point x="69" y="303"/>
      <point x="92" y="301" type="curve"/>
      <point x="92" y="299" type="line"/>
      <point x="69" y="297"/>
      <point x="55" y="282"/>
      <point x="55" y="253" type="curve" smooth="yes"/>
      <point x="55" y="79" type="line" smooth="yes"/>
      <point x="55" y="26"/>
      <point x="81" y="0"/>
      <point x="134" y="0" type="curve" smooth="yes"/>
      <point x="318" y="0" type="line"/>
      <point x="318" y="59" type="line"/>
      <point x="155" y="59" type="line" smooth="yes"/>
      <point x="129" y="59"/>
      <point x="124" y="64"/>
      <point x="124" y="90" type="curve" smooth="yes"/>
      <point x="124" y="241" type="line" smooth="yes"/>
      <point x="124" y="267"/>
      <point x="129" y="272"/>
      <point x="155" y="272" type="curve" smooth="yes"/>
      <point x="211" y="272" type="line" smooth="yes"/>
      <point x="237" y="272"/>
      <point x="242" y="267"/>
      <point x="242" y="241" type="curve" smooth="yes"/>
      <point x="242" y="222" type="line" smooth="yes"/>
      <point x="242" y="196"/>
      <point x="237" y="191"/>
      <point x="211" y="191" type="curve" smooth="yes"/>
      <point x="181" y="191" type="line"/>
      <point x="181" y="132" type="line"/>
      <point x="387" y="132" type="line" smooth="yes"/>
      <point x="417" y="132"/>
      <point x="430" y="143"/>
      <point x="430" y="179" type="curve"/>
      <point x="419" y="225" type="line"/>
      <point x="419" y="199"/>
      <point x="411" y="191"/>
      <point x="385" y="191" type="curve" smooth="yes"/>
      <point x="276" y="191" type="line"/>
      <point x="276" y="184" type="line"/>
      <point x="298" y="184"/>
      <point x="311" y="201"/>
      <point x="311" y="229" type="curve" smooth="yes"/>
      <point x="311" y="242" type="line" smooth="yes"/>
      <point x="311" y="301"/>
      <point x="287" y="331"/>
      <point x="224" y="331" type="curve" smooth="yes"/>
      <point x="155" y="331" type="line" smooth="yes"/>
      <point x="129" y="331"/>
      <point x="124" y="336"/>
      <point x="124" y="362" type="curve" smooth="yes"/>
      <point x="124" y="395" type="line" smooth="yes"/>
      <point x="124" y="421"/>
      <point x="129" y="426"/>
      <point x="155" y="426" type="curve" smooth="yes"/>
      <point x="308" y="426" type="line"/>
      <point x="308" y="580" type="line"/>
    </contour>
    <contour>
      <point x="419" y="582" type="line"/>
      <point x="419" y="0" type="line"/>
      <point x="487" y="0" type="line"/>
      <point x="487" y="582" type="line"/>
    </contour>
    <contour>
      <point x="-20" y="622" type="line"/>
      <point x="-20" y="563" type="line"/>
      <point x="562" y="563" type="line"/>
      <point x="562" y="622" type="line"/>
    </contour>
  </outline>
</glyph>
<glyph name="dvII" format="1">
  <advance width="340"/>
  <outline>
    <contour>
      <point x="-20" y="622" type="line"/>
      <point x="-20" y="563" type="line"/>
      <point x="360" y="563" type="line"/>
      <point x="360" y="622" type="line"/>
    </contour>
    <contour>
      <point x="48" y="190" type="line"/>
      <point x="48" y="0" type="line"/>
      <point x="117" y="0" type="line"/>
      <point x="117" y="190" type="line"/>
    </contour>
    <contour>
      <point x="215" y="594" type="line"/>
      <point x="215" y="485" type="line"/>
      <point x="114" y="485" type="line" smooth="yes"/>
      <point x="61" y="485"/>
      <point x="35" y="459"/>
      <point x="35" y="406" type="curve" smooth="yes"/>
      <point x="35" y="344" type="line" smooth="yes"/>
      <point x="35" y="291"/>
      <point x="61" y="265"/>
      <point x="114" y="265" type="curve" smooth="yes"/>
      <point x="195" y="265" type="line" smooth="yes"/>
      <point x="221" y="265"/>
      <point x="226" y="260"/>
      <point x="226" y="234" type="curve" smooth="yes"/>
      <point x="226" y="168" type="line" smooth="yes"/>
      <point x="226" y="142"/>
      <point x="221" y="137"/>
      <point x="195" y="137" type="curve" smooth="yes"/>
      <point x="82" y="137" type="line"/>
      <point x="82" y="78" type="line"/>
      <point x="216" y="78" type="line" smooth="yes"/>
      <point x="269" y="78"/>
      <point x="295" y="104"/>
      <point x="295" y="157" type="curve" smooth="yes"/>
      <point x="295" y="245" type="line" smooth="yes"/>
      <point x="295" y="298"/>
      <point x="269" y="324"/>
      <point x="216" y="324" type="curve" smooth="yes"/>
      <point x="135" y="324" type="line" smooth="yes"/>
      <point x="109" y="324"/>
      <point x="104" y="329"/>
      <point x="104" y="355" type="curve" smooth="yes"/>
      <point x="104" y="395" type="line" smooth="yes"/>
      <point x="104" y="421"/>
      <point x="109" y="426"/>
      <point x="135" y="426" type="curve" smooth="yes"/>
      <point x="284" y="426" type="line"/>
      <point x="284" y="594" type="line"/>
    </contour>
    <contour>
      <point x="349" y="714" type="line"/>
      <point x="349" y="773" type="line"/>
      <point x="294" y="773" type="line" smooth="yes"/>
      <point x="241" y="773"/>
      <point x="215" y="748"/>
      <point x="215" y="695" type="curve" smooth="yes"/>
      <point x="215" y="609" type="line"/>
      <point x="284" y="609" type="line"/>
      <point x="284" y="684" type="line" smooth="yes"/>
      <point x="284" y="710"/>
      <point x="289" y="714"/>
      <point x="315" y="714" type="curve" smooth="yes"/>
    </contour>
  </outline>
</glyph>
<glyph name="dvJA" format="1">
  <advance width="490"/>
  <outline>
    <contour>
      <point x="366" y="592" type="line"/>
      <point x="366" y="0" type="line"/>
      <point x="435" y="0" type="line"/>
      <point x="435" y="592" type="line"/>
    </contour>
    <contour>
      <point x="-20" y="622" type="line"/>
      <point x="-20" y="563" type="line"/>
      <point x="510" y="563" type="line"/>
      <point x="510" y="622" type="line"/>
    </contour>
    <contour>
      <point x="45" y="485" type="line"/>
      <point x="45" y="157" type="line" smooth="yes"/>
      <point x="45" y="104"/>
      <point x="71" y="78"/>
      <point x="124" y="78" type="curve" smooth="yes"/>
      <point x="200" y="78" type="line" smooth="yes"/>
      <point x="253" y="78"/>
      <point x="279" y="104"/>
      <point x="279" y="157" type="curve" smooth="yes"/>
      <point x="279" y="426" type="line"/>
      <point x="404" y="426" type="line"/>
      <point x="404" y="485" type="line"/>
      <point x="210" y="485" type="line"/>
      <point x="210" y="168" type="line" smooth="yes"/>
      <point x="210" y="142"/>
      <point x="205" y="137"/>
      <point x="179" y="137" type="curve" smooth="yes"/>
      <point x="145" y="137" type="line" smooth="yes"/>
      <point x="119" y="137"/>
      <point x="114" y="142"/>
      <point x="114" y="168" type="curve" smooth="yes"/>
      <point x="114" y="485" type="line"/>
    </contour>
  </outline>
</glyph>
<glyph name="dvJ_JHA" format="1">
  <advance width="861"/>
  <outline>
    <contour>
      <point x="45" y="485" type="line"/>
      <point x="45" y="157" type="line" smooth="yes"/>
      <point x="45" y="104"/>
      <point x="71" y="78"/>
      <point x="124" y="78" type="curve" smooth="yes"/>
      <point x="200" y="78" type="line" smooth="yes"/>
      <point x="253" y="78"/>
      <point x="279" y="104"/>
      <point x="279" y="157" type="curve" smooth="yes"/>
      <point x="279" y="426" type="line"/>
      <point x="416" y="426" type="line"/>
      <point x="486" y="485" type="line"/>
      <point x="210" y="485" type="line"/>
      <point x="210" y="168" type="line" smooth="yes"/>
      <point x="210" y="142"/>
      <point x="205" y="137"/>
      <point x="179" y="137" type="curve" smooth="yes"/>
      <point x="145" y="137" type="line" smooth="yes"/>
      <point x="119" y="137"/>
      <point x="114" y="142"/>
      <point x="114" y="168" type="curve" smooth="yes"/>
      <point x="114" y="485" type="line"/>
    </contour>
    <contour>
      <point x="377" y="190" type="line"/>
      <point x="377" y="0" type="line"/>
      <point x="446" y="0" type="line"/>
      <point x="446" y="190" type="line"/>
    </contour>
    <contour>
      <point x="-20" y="622" type="line"/>
      <point x="-20" y="563" type="line"/>
      <point x="881" y="563" type="line"/>
      <point x="881" y="622" type="line"/>
    </contour>
    <contour>
      <point x="737" y="592" type="line"/>
      <point x="737" y="0" type="line"/>
      <point x="806" y="0" type="line"/>
      <point x="806" y="592" type="line"/>
    </contour>
    <contour>
      <point x="552" y="594" type="line"/>
      <point x="552" y="485" type="line"/>
      <point x="454" y="485" type="line" smooth="yes"/>
      <point x="401" y="485"/>
      <point x="375" y="459"/>
      <point x="375" y="406" type="curve" smooth="yes"/>
      <point x="375" y="344" type="line" smooth="yes"/>
      <point x="375" y="291"/>
      <point x="401" y="265"/>
      <point x="454" y="265" type="curve" smooth="yes"/>
      <point x="529" y="265" type="line" smooth="yes"/>
      <point x="555" y="265"/>
      <point x="560" y="260"/>
      <point x="560" y="234" type="curve" smooth="yes"/>
      <point x="560" y="168" type="line" smooth="yes"/>
      <point x="560" y="142"/>
      <point x="555" y="137"/>
      <point x="529" y="137" type="curve" smooth="yes"/>
      <point x="408" y="137" type="line"/>
      <point x="408" y="78" type="line"/>
      <point x="550" y="78" type="line" smooth="yes"/>
      <point x="603" y="78"/>
      <point x="629" y="104"/>
      <point x="629" y="157" type="curve" smooth="yes"/>
      <point x="629" y="245" type="line" smooth="yes"/>
      <point x="629" y="263"/>
      <point x="626" y="278"/>
      <point x="620" y="289" type="curve"/>
      <point x="583" y="265" type="line"/>
      <point x="760" y="265" type="line"/>
      <point x="760" y="324" type="line"/>
      <point x="475" y="324" type="line" smooth="yes"/>
      <point x="449" y="324"/>
      <point x="444" y="329"/>
      <point x="444" y="355" type="curve" smooth="yes"/>
      <point x="444" y="395" type="line" smooth="yes"/>
      <point x="444" y="421"/>
      <point x="449" y="426"/>
      <point x="475" y="426" type="curve" smooth="yes"/>
      <point x="621" y="426" type="line"/>
      <point x="621" y="594" type="line"/>
    </contour>
  </outline>
</glyph>
<glyph name="dvJ_J_NYA" format="1">
  <advance width="802"/>
  <outline>
    <contour>
      <point x="677" y="592" type="line"/>
      <point x="677" y="0" type="line"/>
      <point x="746" y="0" type="line"/>
      <point x="746" y="592" type="line"/>
    </contour>
    <contour>
      <point x="-20" y="622" type="line"/>
      <point x="-20" y="563" type="line"/>
      <point x="822" y="563" type="line"/>
      <point x="822" y="622" type="line"/>
    </contour>
    <contour>
      <point x="359" y="220" type="line"/>
      <point x="359" y="0" type="line"/>
      <point x="428" y="0" type="line"/>
      <point x="428" y="220" type="line"/>
    </contour>
    <contour>
      <point x="279" y="426" type="line"/>
      <point x="490" y="426" type="line" smooth="yes"/>
      <point x="516" y="426"/>
      <point x="521" y="421"/>
      <point x="521" y="395" type="curve" smooth="yes"/>
      <point x="521" y="168" type="line" smooth="yes"/>
      <point x="521" y="142"/>
      <point x="516" y="137"/>
      <point x="490" y="137" type="curve" smooth="yes"/>
      <point x="393" y="137" type="line"/>
      <point x="393" y="78" type="line"/>
      <point x="511" y="78" type="line" smooth="yes"/>
      <point x="564" y="78"/>
      <point x="590" y="104"/>
      <point x="590" y="157" type="curve" smooth="yes"/>
      <point x="590" y="400" type="line" smooth="yes"/>
      <point x="590" y="427"/>
      <point x="577" y="432"/>
      <point x="560" y="434" type="curve"/>
      <point x="537" y="426" type="line"/>
      <point x="725" y="426" type="line"/>
      <point x="725" y="485" type="line"/>
      <point x="210" y="485" type="line"/>
      <point x="210" y="168" type="line" smooth="yes"/>
      <point x="210" y="142"/>
      <point x="205" y="137"/>
      <point x="179" y="137" type="curve" smooth="yes"/>
      <point x="145" y="137" type="line" smooth="yes"/>
      <point x="119" y="137"/>
      <point x="114" y="142"/>
      <point x="114" y="168" type="curve" smooth="yes"/>
      <point x="114" y="485" type="line"/>
      <point x="45" y="485" type="line"/>
      <point x="45" y="157" type="line" smooth="yes"/>
      <point x="45" y="104"/>
      <point x="71" y="78"/>
      <point x="124" y="78" type="curve" smooth="yes"/>
      <point x="200" y="78" type="line" smooth="yes"/>
      <point x="253" y="78"/>
      <point x="279" y="104"/>
      <point x="279" y="157" type="curve" smooth="yes"/>
    </contour>
  </outline>
</glyph>
<glyph name="dvJ_KA" format="1">
  <advance width="837"/>
  <outline>
    <contour>
      <point x="618" y="-10" type="move" name="blwm.uu"/>
    </contour>
    <contour>
      <point x="618" y="-30" type="move" name="blwm.vr"/>
    </contour>
    <contour>
      <point x="618" y="632" type="move" name="abvm.e"/>
    </contour>
    <contour>
      <point x="618" y="622" type="move" name="abvm.bindu"/>
    </contour>
    <contour>
      <point x="618" y="-20" type="move" name="blwm.virama"/>
    </contour>
    <contour>
      <point x="549" y="0" type="move" name="blwm.u"/>
    </contour>
    <contour>
      <point x="45" y="485" type="line"/>
      <point x="45" y="157" type="line" smooth="yes"/>
      <point x="45" y="104"/>
      <point x="71" y="78"/>
      <point x="124" y="78" type="curve" smooth="yes"/>
      <point x="200" y="78" type="line" smooth="yes"/>
      <point x="253" y="78"/>
      <point x="279" y="104"/>
      <point x="279" y="157" type="curve" smooth="yes"/>
      <point x="279" y="426" type="line"/>
      <point x="416" y="426" type="line"/>
      <point x="473" y="485" type="line"/>
      <point x="210" y="485" type="line"/>
      <point x="210" y="168" type="line" smooth="yes"/>
      <point x="210" y="142"/>
      <point x="205" y="137"/>
      <point x="179" y="137" type="curve" smooth="yes"/>
      <point x="145" y="137" type="line" smooth="yes"/>
      <point x="119" y="137"/>
      <point x="114" y="142"/>
      <point x="114" y="168" type="curve" smooth="yes"/>
      <point x="114" y="485" type="line"/>
    </contour>
    <contour>
      <point x="549" y="592" type="line"/>
      <point x="549" y="0" type="line"/>
      <point x="618" y="0" type="line"/>
      <point x="618" y="592" type="line"/>
    </contour>
    <contour>
      <point x="509" y="485" type="line"/>
      <point x="454" y="485" type="line" smooth="yes"/>
      <point x="401" y="485"/>
      <point x="375" y="459"/>
      <point x="375" y="406" type="curve" smooth="yes"/>
      <point x="375" y="157" type="line" smooth="yes"/>
      <point x="375" y="104"/>
      <point x="401" y="78"/>
      <point x="454" y="78" type="curve" smooth="yes"/>
      <point x="517" y="78" type="line" smooth="yes"/>
      <point x="547" y="78"/>
      <point x="560" y="89"/>
      <point x="560" y="125" type="curve"/>
      <point x="549" y="171" type="line"/>
      <point x="549" y="145"/>
      <point x="541" y="137"/>
      <point x="515" y="137" type="curve" smooth="yes"/>
      <point x="475" y="137" type="line" smooth="yes"/>
      <point x="449" y="137"/>
      <point x="444" y="142"/>
      <point x="444" y="168" type="curve" smooth="yes"/>
      <point x="444" y="395" type="line" smooth="yes"/>
      <point x="444" y="421"/>
      <point x="449" y="426"/>
      <point x="475" y="426" type="curve" smooth="yes"/>
      <point x="509" y="426" type="line"/>
    </contour>
    <contour>
      <point x="713" y="485" type="curve"/>
      <point x="650" y="485" type="line" smooth="yes"/>
      <point x="620" y="485"/>
      <point x="607" y="474"/>
      <point x="607" y="438" type="curve"/>
      <point x="618" y="392" type="line"/>
      <point x="618" y="418"/>
      <point x="626" y="426"/>
      <point x="652" y="426" type="curve" smooth="yes"/>
      <point x="692" y="426" type="line" smooth="yes"/>
      <point x="718" y="426"/>
      <point x="723" y="421"/>
      <point x="723" y="395" type="curve" smooth="yes"/>
      <point x="723" y="168" type="line" smooth="yes"/>
      <point x="723" y="142"/>
      <point x="718" y="137"/>
      <point x="692" y="137" type="curve" smooth="yes"/>
      <point x="658" y="137" type="line"/>
      <point x="658" y="78" type="line"/>
      <point x="713" y="78" type="line" smooth="yes"/>
      <point x="766" y="78"/>
      <point x="792" y="104"/>
      <point x="792" y="157" type="curve" smooth="yes"/>
      <point x="792" y="406" type="line" smooth="yes"/>
      <point x="792" y="459"/>
      <point x="766" y="485"/>
    </contour>
    <contour>
      <point x="-20" y="622" type="line"/>
      <point x="-20" y="563" type="line"/>
      <point x="857" y="563" type="line"/>
      <point x="857" y="622" type="line"/>
    </contour>
  </outline>
</glyph>
<glyph name="dvJ_MA" format="1">
  <advance width="859"/>
  <outline>
    <contour>
      <point x="45" y="432" type="line"/>
      <point x="45" y="157" type="line" smooth="yes"/>
      <point x="45" y="104"/>
      <point x="71" y="78"/>
      <point x="124" y="78" type="curve" smooth="yes"/>
      <point x="200" y="78" type="line" smooth="yes"/>
      <point x="253" y="78"/>
      <point x="279" y="104"/>
      <point x="279" y="157" type="curve" smooth="yes"/>
      <point x="279" y="373" type="line"/>
      <point x="416" y="373" type="line"/>
      <point x="508" y="432" type="line"/>
      <point x="210" y="432" type="line"/>
      <point x="210" y="168" type="line" smooth="yes"/>
      <point x="210" y="142"/>
      <point x="205" y="137"/>
      <point x="179" y="137" type="curve" smooth="yes"/>
      <point x="145" y="137" type="line" smooth="yes"/>
      <point x="119" y="137"/>
      <point x="114" y="142"/>
      <point x="114" y="168" type="curve" smooth="yes"/>
      <point x="114" y="432" type="line"/>
    </contour>
    <contour>
      <point x="553" y="574" type="line"/>
      <point x="553" y="198" type="line" smooth="yes"/>
      <point x="553" y="172"/>
      <point x="548" y="167"/>
      <point x="522" y="167" type="curve" smooth="yes"/>
      <point x="475" y="167" type="line" smooth="yes"/>
      <point x="449" y="167"/>
      <point x="444" y="172"/>
      <point x="444" y="198" type="curve" smooth="yes"/>
      <point x="444" y="342" type="line" smooth="yes"/>
      <point x="444" y="368"/>
      <point x="449" y="373"/>
      <point x="475" y="373" type="curve" smooth="yes"/>
      <point x="756" y="373" type="line"/>
      <point x="756" y="432" type="line"/>
      <point x="454" y="432" type="line" smooth="yes"/>
      <point x="401" y="432"/>
      <point x="375" y="406"/>
      <point x="375" y="353" type="curve" smooth="yes"/>
      <point x="375" y="187" type="line" smooth="yes"/>
      <point x="375" y="134"/>
      <point x="401" y="108"/>
      <point x="454" y="108" type="curve" smooth="yes"/>
      <point x="543" y="108" type="line" smooth="yes"/>
      <point x="596" y="108"/>
      <point x="622" y="134"/>
      <point x="622" y="187" type="curve" smooth="yes"/>
      <point x="622" y="574" type="line"/>
    </contour>
    <contour>
      <point x="735" y="597" type="line"/>
      <point x="735" y="0" type="line"/>
      <point x="804" y="0" type="line"/>
      <point x="804" y="597" type="line"/>
    </contour>
    <contour>
      <point x="-20" y="622" type="line"/>
      <point x="-20" y="563" type="line"/>
      <point x="879" y="563" type="line"/>
      <point x="879" y="622" type="line"/>
    </contour>
  </outline>
</glyph>
<glyph name="dvJ_NYA" format="1">
  <advance width="491"/>
  <outline>
    <contour>
      <point x="366" y="592" type="line"/>
      <point x="366" y="0" type="line"/>
      <point x="435" y="0" type="line"/>
      <point x="435" y="592" type="line"/>
    </contour>
    <contour>
      <point x="-20" y="622" type="line"/>
      <point x="-20" y="563" type="line"/>
      <point x="511" y="563" type="line"/>
      <point x="511" y="622" type="line"/>
    </contour>
    <contour>
      <point x="82" y="137" type="line"/>
      <point x="82" y="78" type="line"/>
      <point x="200" y="78" type="line" smooth="yes"/>
      <point x="253" y="78"/>
      <point x="279" y="104"/>
      <point x="279" y="157" type="curve" smooth="yes"/>
      <point x="279" y="400" type="line" smooth="yes"/>
      <point x="279" y="428"/>
      <point x="266" y="433"/>
      <point x="244" y="433" type="curve"/>
      <point x="244" y="426" type="line"/>
      <point x="414" y="426" type="line"/>
      <point x="414" y="485" type="line"/>
      <point x="68" y="485" type="line"/>
      <point x="68" y="426" type="line"/>
      <point x="179" y="426" type="line" smooth="yes"/>
      <point x="205" y="426"/>
      <point x="210" y="421"/>
      <point x="210" y="395" type="curve" smooth="yes"/>
      <point x="210" y="168" type="line" smooth="yes"/>
      <point x="210" y="142"/>
      <point x="205" y="137"/>
      <point x="179" y="137" type="curve" smooth="yes"/>
    </contour>
    <contour>
      <point x="48" y="220" type="line"/>
      <point x="48" y="0" type="line"/>
      <point x="117" y="0" type="line"/>
      <point x="117" y="220" type="line"/>
    </contour>
  </outline>
</glyph>
<glyph name="dvJ_RA" format="1">
  <advance width="490"/>
  <outline>
    <contour>
      <point x="366" y="592" type="line"/>
      <point x="366" y="0" type="line"/>
      <point x="435" y="0" type="line"/>
      <point x="435" y="592" type="line"/>
    </contour>
    <contour>
      <point x="-20" y="622" type="line"/>
      <point x="-20" y="563" type="line"/>
      <point x="510" y="563" type="line"/>
      <point x="510" y="622" type="line"/>
    </contour>
    <contour>
      <point x="45" y="485" type="line"/>
      <point x="45" y="187" type="line" smooth="yes"/>
      <point x="45" y="134"/>
      <point x="71" y="108"/>
      <point x="124" y="108" type="curve" smooth="yes"/>
      <point x="200" y="108" type="line" smooth="yes"/>
      <point x="253" y="108"/>
      <point x="279" y="134"/>
      <point x="279" y="187" type="curve" smooth="yes"/>
      <point x="279" y="426" type="line"/>
      <point x="404" y="426" type="line"/>
      <point x="404" y="485" type="line"/>
      <point x="210" y="485" type="line"/>
      <point x="210" y="198" type="line" smooth="yes"/>
      <point x="210" y="172"/>
      <point x="205" y="167"/>
      <point x="179" y="167" type="curve" smooth="yes"/>
      <point x="145" y="167" type="line" smooth="yes"/>
      <point x="119" y="167"/>
      <point x="114" y="172"/>
      <point x="114" y="198" type="curve" smooth="yes"/>
      <point x="114" y="485" type="line"/>
    </contour>
    <contour>
      <point x="376" y="198" type="line"/>
      <point x="146" y="-50" type="line"/>
      <point x="228" y="-50" type="line"/>
      <point x="396" y="136" type="line"/>
    </contour>
  </outline>
</glyph>
<glyph name="dvKHA" format="1">
  <advance width="584"/>
  <outline>
    <contour>
      <point x="464" y="601" type="line"/>
      <point x="464" y="0" type="line"/>
      <point x="529" y="0" type="line"/>
      <point x="529" y="601" type="line"/>
    </contour>
    <contour>
      <point x="434" y="471" type="line"/>
      <point x="375" y="471" type="line" smooth="yes"/>
      <point x="322" y="471"/>
      <point x="296" y="445"/>
      <point x="296" y="392" type="curve" smooth="yes"/>
      <point x="296" y="198" type="line" smooth="yes"/>
      <point x="296" y="145"/>
      <point x="322" y="119"/>
      <point x="375" y="119" type="curve" smooth="yes"/>
      <point x="427" y="119" type="line" smooth="yes"/>
      <point x="457" y="119"/>
      <point x="471" y="130"/>
      <point x="471" y="166" type="curve"/>
      <point x="464" y="217" type="line"/>
      <point x="464" y="188"/>
      <point x="453" y="178"/>
      <point x="423" y="178" type="curve" smooth="yes"/>
      <point x="392" y="178" type="line" smooth="yes"/>
      <point x="366" y="178"/>
      <point x="361" y="183"/>
      <point x="361" y="209" type="curve" smooth="yes"/>
      <point x="361" y="381" type="line" smooth="yes"/>
      <point x="361" y="407"/>
      <point x="366" y="412"/>
      <point x="392" y="412" type="curve" smooth="yes"/>
      <point x="434" y="412" type="line"/>
    </contour>
    <contour>
      <point x="48" y="471" type="line"/>
      <point x="48" y="79" type="line" smooth="yes"/>
      <point x="48" y="26"/>
      <point x="74" y="0"/>
      <point x="127" y="0" type="curve" smooth="yes"/>
      <point x="361" y="0" type="line"/>
      <point x="361" y="62" type="line"/>
      <point x="148" y="62" type="line" smooth="yes"/>
      <point x="122" y="62"/>
      <point x="117" y="67"/>
      <point x="117" y="93" type="curve" smooth="yes"/>
      <point x="117" y="471" type="line"/>
    </contour>
    <contour>
      <point x="-20" y="622" type="line"/>
      <point x="-20" y="563" type="line"/>
      <point x="152" y="563" type="line" smooth="yes"/>
      <point x="178" y="563"/>
      <point x="183" y="558"/>
      <point x="183" y="532" type="curve" smooth="yes"/>
      <point x="183" y="336" type="line" smooth="yes"/>
      <point x="183" y="310"/>
      <point x="178" y="305"/>
      <point x="152" y="305" type="curve" smooth="yes"/>
      <point x="82" y="305" type="line"/>
      <point x="82" y="246" type="line"/>
      <point x="173" y="246" type="line" smooth="yes"/>
      <point x="226" y="246"/>
      <point x="252" y="272"/>
      <point x="252" y="325" type="curve" smooth="yes"/>
      <point x="252" y="537" type="line" smooth="yes"/>
      <point x="252" y="565"/>
      <point x="239" y="570"/>
      <point x="217" y="570" type="curve"/>
      <point x="217" y="563" type="line"/>
      <point x="604" y="563" type="line"/>
      <point x="604" y="622" type="line"/>
    </contour>
  </outline>
</glyph>
<glyph name="dvKH_MA" format="1">
  <advance width="905"/>
  <outline>
    <contour>
      <point x="434" y="485" type="line"/>
      <point x="375" y="485" type="line" smooth="yes"/>
      <point x="322" y="485"/>
      <point x="296" y="459"/>
      <point x="296" y="406" type="curve" smooth="yes"/>
      <point x="296" y="187" type="line" smooth="yes"/>
      <point x="296" y="134"/>
      <point x="322" y="108"/>
      <point x="375" y="108" type="curve" smooth="yes"/>
      <point x="427" y="108" type="line" smooth="yes"/>
      <point x="457" y="108"/>
      <point x="482" y="119"/>
      <point x="482" y="155" type="curve"/>
      <point x="464" y="206" type="line"/>
      <point x="464" y="177"/>
      <point x="453" y="167"/>
      <point x="423" y="167" type="curve" smooth="yes"/>
      <point x="392" y="167" type="line" smooth="yes"/>
      <point x="366" y="167"/>
      <point x="361" y="172"/>
      <point x="361" y="198" type="curve" smooth="yes"/>
      <point x="361" y="395" type="line" smooth="yes"/>
      <point x="361" y="421"/>
      <point x="366" y="426"/>
      <point x="392" y="426" type="curve" smooth="yes"/>
      <point x="434" y="426" type="line"/>
    </contour>
    <contour>
      <point x="48" y="471" type="line"/>
      <point x="48" y="79" type="line" smooth="yes"/>
      <point x="48" y="26"/>
      <point x="74" y="0"/>
      <point x="127" y="0" type="curve" smooth="yes"/>
      <point x="361" y="0" type="line"/>
      <point x="361" y="62" type="line"/>
      <point x="148" y="62" type="line" smooth="yes"/>
      <point x="122" y="62"/>
      <point x="117" y="67"/>
      <point x="117" y="93" type="curve" smooth="yes"/>
      <point x="117" y="471" type="line"/>
    </contour>
    <contour>
      <point x="-20" y="622" type="line"/>
      <point x="-20" y="563" type="line"/>
      <point x="152" y="563" type="line" smooth="yes"/>
      <point x="178" y="563"/>
      <point x="183" y="558"/>
      <point x="183" y="532" type="curve" smooth="yes"/>
      <point x="183" y="336" type="line" smooth="yes"/>
      <point x="183" y="310"/>
      <point x="178" y="305"/>
      <point x="152" y="305" type="curve" smooth="yes"/>
      <point x="82" y="305" type="line"/>
      <point x="82" y="246" type="line"/>
      <point x="173" y="246" type="line" smooth="yes"/>
      <point x="226" y="246"/>
      <point x="252" y="272"/>
      <point x="252" y="325" type="curve" smooth="yes"/>
      <point x="252" y="537" type="line" smooth="yes"/>
      <point x="252" y="565"/>
      <point x="239" y="570"/>
      <point x="217" y="570" type="curve"/>
      <point x="217" y="563" type="line"/>
      <point x="943" y="563" type="line"/>
      <point x="943" y="622" type="line"/>
    </contour>
    <contour>
      <point x="799" y="594" type="line"/>
      <point x="799" y="0" type="line"/>
      <point x="868" y="0" type="line"/>
      <point x="868" y="594" type="line"/>
    </contour>
    <contour>
      <point x="820" y="432" type="line"/>
      <point x="543" y="432" type="line" smooth="yes"/>
      <point x="490" y="432"/>
      <point x="464" y="406"/>
      <point x="464" y="353" type="curve" smooth="yes"/>
      <point x="464" y="187" type="line" smooth="yes"/>
      <point x="464" y="134"/>
      <point x="490" y="108"/>
      <point x="543" y="108" type="curve" smooth="yes"/>
      <point x="632" y="108" type="line" smooth="yes"/>
      <point x="685" y="108"/>
      <point x="711" y="134"/>
      <point x="711" y="187" type="curve" smooth="yes"/>
      <point x="711" y="594" type="line"/>
      <point x="642" y="594" type="line"/>
      <point x="642" y="198" type="line" smooth="yes"/>
      <point x="642" y="172"/>
      <point x="637" y="167"/>
      <point x="611" y="167" type="curve" smooth="yes"/>
      <point x="564" y="167" type="line" smooth="yes"/>
      <point x="538" y="167"/>
      <point x="533" y="172"/>
      <point x="533" y="198" type="curve" smooth="yes"/>
      <point x="533" y="342" type="line" smooth="yes"/>
      <point x="533" y="368"/>
      <point x="538" y="373"/>
      <point x="564" y="373" type="curve" smooth="yes"/>
      <point x="820" y="373" type="line"/>
    </contour>
  </outline>
</glyph>
<glyph name="dvKH_RA" format="1">
  <advance width="584"/>
  <outline>
    <contour>
      <point x="464" y="601" type="line"/>
      <point x="464" y="0" type="line"/>
      <point x="529" y="0" type="line"/>
      <point x="529" y="601" type="line"/>
    </contour>
    <contour>
      <point x="48" y="471" type="line"/>
      <point x="48" y="79" type="line" smooth="yes"/>
      <point x="48" y="26"/>
      <point x="74" y="0"/>
      <point x="127" y="0" type="curve" smooth="yes"/>
      <point x="257" y="0" type="line"/>
      <point x="257" y="62" type="line"/>
      <point x="148" y="62" type="line" smooth="yes"/>
      <point x="122" y="62"/>
      <point x="117" y="67"/>
      <point x="117" y="93" type="curve" smooth="yes"/>
      <point x="117" y="471" type="line"/>
    </contour>
    <contour>
      <point x="-20" y="622" type="line"/>
      <point x="-20" y="563" type="line"/>
      <point x="152" y="563" type="line" smooth="yes"/>
      <point x="178" y="563"/>
      <point x="183" y="558"/>
      <point x="183" y="532" type="curve" smooth="yes"/>
      <point x="183" y="336" type="line" smooth="yes"/>
      <point x="183" y="310"/>
      <point x="178" y="305"/>
      <point x="152" y="305" type="curve" smooth="yes"/>
      <point x="82" y="305" type="line"/>
      <point x="82" y="246" type="line"/>
      <point x="173" y="246" type="line" smooth="yes"/>
      <point x="226" y="246"/>
      <point x="252" y="272"/>
      <point x="252" y="325" type="curve" smooth="yes"/>
      <point x="252" y="537" type="line" smooth="yes"/>
      <point x="252" y="565"/>
      <point x="239" y="570"/>
      <point x="217" y="570" type="curve"/>
      <point x="217" y="563" type="line"/>
      <point x="604" y="563" type="line"/>
      <point x="604" y="622" type="line"/>
    </contour>
    <contour>
      <point x="296" y="392" type="curve"/>
      <point x="296" y="190" type="line" smooth="yes"/>
      <point x="296" y="137"/>
      <point x="322" y="111"/>
      <point x="378" y="111" type="curve"/>
      <point x="391" y="111" type="line"/>
      <point x="391" y="129" type="line"/>
      <point x="262" y="-50" type="line"/>
      <point x="336" y="-50" type="line"/>
      <point x="471" y="140" type="line"/>
      <point x="464" y="209" type="line"/>
      <point x="464" y="180"/>
      <point x="453" y="170"/>
      <point x="423" y="170" type="curve" smooth="yes"/>
      <point x="392" y="170" type="line" smooth="yes"/>
      <point x="366" y="170"/>
      <point x="361" y="175"/>
      <point x="361" y="201" type="curve" smooth="yes"/>
      <point x="361" y="381" type="line" smooth="yes"/>
      <point x="361" y="407"/>
      <point x="366" y="412"/>
      <point x="392" y="412" type="curve" smooth="yes"/>
      <point x="434" y="412" type="line"/>
      <point x="434" y="471" type="line"/>
      <point x="375" y="471" type="line" smooth="yes"/>
      <point x="322" y="471"/>
      <point x="296" y="445"/>
    </contour>
  </outline>
</glyph>
<glyph name="dvK" format="1">
  <advance width="352"/>
  <outline>
    <contour>
      <point x="288" y="592" type="line"/>
      <point x="219" y="592" type="line"/>
      <point x="219" y="0" type="line"/>
      <point x="288" y="0" type="line"/>
    </contour>
    <contour>
      <point x="179" y="426" type="line"/>
      <point x="179" y="485" type="line"/>
      <point x="124" y="485" type="line" smooth="yes"/>
      <point x="71" y="485"/>
      <point x="45" y="459"/>
      <point x="45" y="406" type="curve" smooth="yes"/>
      <point x="45" y="157" type="line" smooth="yes"/>
      <point x="45" y="104"/>
      <point x="71" y="78"/>
      <point x="124" y="78" type="curve" smooth="yes"/>
      <point x="187" y="78" type="line" smooth="yes"/>
      <point x="217" y="78"/>
      <point x="230" y="89"/>
      <point x="230" y="125" type="curve"/>
      <point x="219" y="171" type="line"/>
      <point x="219" y="145"/>
      <point x="211" y="137"/>
      <point x="185" y="137" type="curve" smooth="yes"/>
      <point x="145" y="137" type="line" smooth="yes"/>
      <point x="119" y="137"/>
      <point x="114" y="142"/>
      <point x="114" y="168" type="curve" smooth="yes"/>
      <point x="114" y="395" type="line" smooth="yes"/>
      <point x="114" y="421"/>
      <point x="119" y="426"/>
      <point x="145" y="426" type="curve" smooth="yes"/>
    </contour>
    <contour>
      <point x="441" y="396" type="line"/>
      <point x="441" y="455" type="line"/>
      <point x="320" y="455" type="line" smooth="yes"/>
      <point x="290" y="455"/>
      <point x="277" y="444"/>
      <point x="277" y="408" type="curve"/>
      <point x="288" y="362" type="line"/>
      <point x="288" y="388"/>
      <point x="296" y="396"/>
      <point x="322" y="396" type="curve" smooth="yes"/>
    </contour>
    <contour>
      <point x="441" y="622" type="line"/>
      <point x="-20" y="622" type="line"/>
      <point x="-20" y="563" type="line"/>
      <point x="441" y="563" type="line"/>
    </contour>
  </outline>
</glyph>
<glyph name="dvK_KA" format="1">
  <advance width="840"/>
  <outline>
    <contour>
      <point x="621" y="-10" type="move" name="blwm.uu"/>
    </contour>
    <contour>
      <point x="621" y="-30" type="move" name="blwm.vr"/>
    </contour>
    <contour>
      <point x="621" y="632" type="move" name="abvm.e"/>
    </contour>
    <contour>
      <point x="621" y="622" type="move" name="abvm.bindu"/>
    </contour>
    <contour>
      <point x="621" y="-20" type="move" name="blwm.virama"/>
    </contour>
    <contour>
      <point x="552" y="0" type="move" name="blwm.u"/>
    </contour>
    <contour>
      <point x="219" y="592" type="line"/>
      <point x="219" y="0" type="line"/>
      <point x="288" y="0" type="line"/>
      <point x="288" y="592" type="line"/>
    </contour>
    <contour>
      <point x="179" y="485" type="line"/>
      <point x="124" y="485" type="line" smooth="yes"/>
      <point x="71" y="485"/>
      <point x="45" y="459"/>
      <point x="45" y="406" type="curve" smooth="yes"/>
      <point x="45" y="157" type="line" smooth="yes"/>
      <point x="45" y="104"/>
      <point x="71" y="78"/>
      <point x="124" y="78" type="curve" smooth="yes"/>
      <point x="187" y="78" type="line" smooth="yes"/>
      <point x="217" y="78"/>
      <point x="230" y="89"/>
      <point x="230" y="125" type="curve"/>
      <point x="219" y="171" type="line"/>
      <point x="219" y="145"/>
      <point x="211" y="137"/>
      <point x="185" y="137" type="curve" smooth="yes"/>
      <point x="145" y="137" type="line" smooth="yes"/>
      <point x="119" y="137"/>
      <point x="114" y="142"/>
      <point x="114" y="168" type="curve" smooth="yes"/>
      <point x="114" y="395" type="line" smooth="yes"/>
      <point x="114" y="421"/>
      <point x="119" y="426"/>
      <point x="145" y="426" type="curve" smooth="yes"/>
      <point x="179" y="426" type="line"/>
    </contour>
    <contour>
      <point x="552" y="592" type="line"/>
      <point x="552" y="0" type="line"/>
      <point x="621" y="0" type="line"/>
      <point x="621" y="592" type="line"/>
    </contour>
    <contour>
      <point x="716" y="485" type="curve"/>
      <point x="653" y="485" type="line" smooth="yes"/>
      <point x="623" y="485"/>
      <point x="610" y="474"/>
      <point x="610" y="438" type="curve"/>
      <point x="621" y="392" type="line"/>
      <point x="621" y="418"/>
      <point x="629" y="426"/>
      <point x="655" y="426" type="curve" smooth="yes"/>
      <point x="695" y="426" type="line" smooth="yes"/>
      <point x="721" y="426"/>
      <point x="726" y="421"/>
      <point x="726" y="395" type="curve" smooth="yes"/>
      <point x="726" y="168" type="line" smooth="yes"/>
      <point x="726" y="142"/>
      <point x="721" y="137"/>
      <point x="695" y="137" type="curve" smooth="yes"/>
      <point x="661" y="137" type="line"/>
      <point x="661" y="78" type="line"/>
      <point x="716" y="78" type="line" smooth="yes"/>
      <point x="769" y="78"/>
      <point x="795" y="104"/>
      <point x="795" y="157" type="curve" smooth="yes"/>
      <point x="795" y="406" type="line" smooth="yes"/>
      <point x="795" y="459"/>
      <point x="769" y="485"/>
    </contour>
    <contour>
      <point x="-20" y="622" type="line"/>
      <point x="-20" y="563" type="line"/>
      <point x="860" y="563" type="line"/>
      <point x="860" y="622" type="line"/>
    </contour>
    <contour>
      <point x="512" y="485" type="line"/>
      <point x="320" y="485" type="line" smooth="yes"/>
      <point x="290" y="485"/>
      <point x="277" y="474"/>
      <point x="277" y="438" type="curve"/>
      <point x="288" y="392" type="line"/>
      <point x="288" y="418"/>
      <point x="296" y="426"/>
      <point x="322" y="426" type="curve" smooth="yes"/>
      <point x="383" y="426" type="line"/>
      <point x="380" y="417"/>
      <point x="378" y="407"/>
      <point x="378" y="397" type="curve" smooth="yes"/>
      <point x="378" y="157" type="line" smooth="yes"/>
      <point x="378" y="104"/>
      <point x="404" y="78"/>
      <point x="457" y="78" type="curve" smooth="yes"/>
      <point x="520" y="78" type="line" smooth="yes"/>
      <point x="550" y="78"/>
      <point x="563" y="89"/>
      <point x="563" y="125" type="curve"/>
      <point x="552" y="171" type="line"/>
      <point x="552" y="145"/>
      <point x="544" y="137"/>
      <point x="518" y="137" type="curve" smooth="yes"/>
      <point x="478" y="137" type="line" smooth="yes"/>
      <point x="452" y="137"/>
      <point x="447" y="142"/>
      <point x="447" y="168" type="curve" smooth="yes"/>
      <point x="447" y="395" type="line" smooth="yes"/>
      <point x="447" y="421"/>
      <point x="452" y="426"/>
      <point x="478" y="426" type="curve" smooth="yes"/>
      <point x="512" y="426" type="line"/>
    </contour>
  </outline>
</glyph>
